<?xml version="1.0" encoding="UTF-8"?>
<svg xmlns="http://www.w3.org/2000/svg" xmlns:xlink="http://www.w3.org/1999/xlink" version="1.2" >
<font id="Section-BlackCaps">
<font-face  font-family="Section" units-per-em="1000" ascent="800" descent="-200" font-style="normal" font-weight="900" font-stretch="normal" cap-height="689" x-height="512" underline-position="-143" underline-thickness="20" />
<missing-glyph  horiz-adv-x="1000" d="" />
<glyph glyph-name="NULL" horiz-adv-x="242" d="" />
<glyph glyph-name="CR" unicode="&#xd;" horiz-adv-x="242" d="" />
<glyph glyph-name="space" unicode="&#x20;" horiz-adv-x="201" d="" />
<glyph glyph-name="exclam" unicode="&#x21;" horiz-adv-x="379" d="M276 689 L102 689 L107 249 L269 249 L276 689 Z M279 0 L279 158 L101 158 L101 0 L279 0 Z " />
<glyph glyph-name="quotedbl" unicode="&#x22;" horiz-adv-x="372" d="M313 689 L211 689 L222 464 L301 464 L313 689 Z M161 689 L58 689 L70 464 L149 464 L161 689 Z " />
<glyph glyph-name="numbersign" unicode="&#x23;" horiz-adv-x="508" d="M501 484 L406 484 L433 613 L360 613 L332 484 L233 484 L260 613 L186 613 L159 484 L66 484 L50 411 L143 411 L115 276 L22 276 L6 203 L99 203 L72 75 L145 75 L173 203 L273 203 L245 75 L319 75 L346 203 L441 203 L457 276 L362 276 L391 411 L485 411 L501 484 Z M317 411 L288 276 L188 276 L217 411 L317 411 Z " />
<glyph glyph-name="dollar" unicode="&#x24;" horiz-adv-x="508" d="M474 168 C474 239 446 298 388 343 L238 462 C218 478 197 490 197 515 C197 544 216 554 254 554 C306 554 344 548 428 538 L439 688 C373 694 333 697 283 698 L283 803 L217 803 L216 696 C113 686 32 639 32 527 C32 459 52 394 117 345 L259 236 C284 217 308 205 308 176 C308 138 263 136 236 136 C195 136 142 139 54 151 L43 1 C119 -8 177 -10 216 -10 L216 -115 L283 -115 L283 -7 C387 3 474 51 474 168 L474 168 Z " />
<glyph glyph-name="percent" unicode="&#x25;" horiz-adv-x="508" d="M209 552 C209 659 170 707 81 707 C-8 707 -46 659 -46 552 C-46 444 -8 398 81 398 C170 398 209 444 209 552 L209 552 Z M463 753 L389 753 L46 -51 L121 -51 L463 753 Z M551 145 C551 252 513 300 424 300 C335 300 296 252 296 145 C296 37 335 -9 424 -9 C513 -9 551 37 551 145 L551 145 Z M141 552 C141 471 119 460 81 460 C43 460 22 472 22 552 C22 632 44 645 81 645 C119 645 141 632 141 552 L141 552 Z M483 145 C483 64 462 53 424 53 C386 53 364 65 364 145 C364 225 386 238 424 238 C462 238 483 225 483 145 L483 145 Z " />
<glyph glyph-name="ampersand" unicode="&#x26;" horiz-adv-x="528" d="M518 6 L499 128 C476 120 471 114 445 115 L443 116 C460 145 473 181 480 223 L362 260 C360 235 355 214 348 196 L295 247 L295 248 C338 283 380 322 380 381 C380 488 308 521 229 521 C150 521 73 488 73 380 C73 348 78 327 91 303 C96 292 106 279 119 265 L119 264 C79 234 45 196 45 132 C45 91 63 54 89 30 C124 -2 175 -9 223 -9 C265 -9 310 2 350 24 C377 5 405 -7 435 -7 C457 -7 481 -3 518 6 L518 6 Z M251 379 C251 363 236 346 219 333 C206 353 203 350 203 379 C203 401 209 408 227 408 C243 408 251 401 251 379 L251 379 Z M258 110 C247 105 233 103 223 103 C195 103 180 120 180 137 C180 156 183 160 198 172 L258 110 Z " />
<glyph glyph-name="quotesingle" unicode="&#x27;" horiz-adv-x="219" d="M161 689 L58 689 L70 464 L149 464 L161 689 Z " />
<glyph glyph-name="parenleft" unicode="&#x28;" horiz-adv-x="334" d="M294 806 L131 806 C84 679 56 511 55 343 C55 174 83 6 131 -122 L293 -122 C249 11 226 176 226 341 C226 506 249 672 294 806 L294 806 Z " />
<glyph glyph-name="parenright" unicode="&#x29;" horiz-adv-x="334" d="M279 343 C279 511 250 679 203 806 L40 806 C85 672 108 506 108 341 C108 176 86 11 41 -122 L204 -122 C251 6 279 174 279 343 L279 343 Z " />
<glyph glyph-name="asterisk" unicode="&#x2a;" horiz-adv-x="515" d="M457 588 L431 666 L293 612 L299 748 L218 748 L223 613 L84 666 L58 588 L205 550 L109 432 L176 384 L256 512 L339 384 L406 432 L312 549 L457 588 Z " />
<glyph glyph-name="plus" unicode="&#x2b;" horiz-adv-x="535" d="M491 220 L491 290 L302 290 L302 479 L232 479 L232 290 L44 290 L44 220 L232 220 L232 31 L302 31 L302 220 L491 220 Z " />
<glyph glyph-name="comma" unicode="&#x2c;" horiz-adv-x="283" d="M227 145 L79 145 L84 24 C76 -10 52 -96 38 -127 L149 -127 C176 -86 204 -24 223 21 L227 145 Z " />
<glyph glyph-name="hyphen" unicode="&#x2d;" horiz-adv-x="335" d="M292 209 L292 300 L43 300 L43 209 L292 209 Z " />
<glyph glyph-name="period" unicode="&#x2e;" horiz-adv-x="287" d="M217 0 L217 146 L70 146 L70 0 L217 0 Z " />
<glyph glyph-name="slash" unicode="&#x2f;" horiz-adv-x="382" d="M392 807 L291 807 L23 -122 L125 -122 L392 807 Z " />
<glyph glyph-name="zero" unicode="0" horiz-adv-x="508" d="M483 342 C483 557 467 697 253 697 C39 697 21 561 21 345 C21 210 28 107 88 45 C125 8 179 -10 253 -10 C467 -10 483 126 483 342 L483 342 Z M322 345 C322 149 309 124 252 124 C195 124 182 148 182 344 C182 540 195 563 252 563 C309 563 322 540 322 345 L322 345 Z " />
<glyph glyph-name="one" unicode="1" horiz-adv-x="508" d="M461 133 L349 133 L348 689 L74 689 L74 556 L188 556 L188 133 L77 133 L76 0 L461 0 L461 133 Z " />
<glyph glyph-name="two" unicode="2" horiz-adv-x="508" d="M471 0 L471 131 L272 131 L238 128 L262 153 L364 287 C412 350 455 416 455 510 C455 620 400 697 260 697 C195 697 140 692 84 682 L96 540 C163 553 189 558 236 558 C268 558 295 547 295 498 C295 446 257 399 228 361 L68 151 L69 0 L471 0 Z " />
<glyph glyph-name="three" unicode="3" horiz-adv-x="508" d="M463 211 C463 281 418 338 380 360 L380 362 C427 405 451 450 451 504 C451 654 367 697 244 697 C220 697 159 695 87 684 L98 542 C149 551 186 557 236 557 C281 557 293 526 293 497 C293 458 286 422 235 422 L158 422 L158 283 L236 283 C276 283 305 268 305 211 C305 167 286 129 242 129 C217 129 164 132 87 152 L76 14 C149 -3 192 -7 249 -7 C391 -7 463 80 463 211 L463 211 Z " />
<glyph glyph-name="four" unicode="4" horiz-adv-x="508" d="M534 180 L534 318 L430 318 L431 475 L298 475 L277 315 L195 315 L195 317 L215 362 L333 689 L165 689 L32 326 L32 180 L270 180 L270 0 L431 0 L431 180 L534 180 Z " />
<glyph glyph-name="five" unicode="5" horiz-adv-x="508" d="M470 213 C470 354 398 430 258 430 L236 430 L236 550 L433 550 L433 689 L81 689 L81 297 L245 297 C286 298 311 277 311 211 C311 152 278 130 243 130 C217 130 164 131 87 150 L76 12 C149 -4 192 -9 249 -9 C391 -9 470 82 470 213 L470 213 Z " />
<glyph glyph-name="six" unicode="6" horiz-adv-x="508" d="M481 216 C481 375 399 442 270 442 C246 442 223 438 201 425 L200 426 C199 473 208 499 229 519 C251 541 280 552 339 552 C365 552 394 549 429 544 L440 685 C375 696 359 698 332 698 C253 698 183 683 123 622 C44 543 35 417 35 333 C35 232 57 109 114 52 C160 6 194 -9 260 -9 C391 -9 481 58 481 216 L481 216 Z M329 213 C329 141 297 134 263 134 C245 134 225 145 216 166 C202 196 197 237 197 274 C218 290 235 300 266 300 C296 300 329 294 329 213 L329 213 Z " />
<glyph glyph-name="seven" unicode="7" horiz-adv-x="508" d="M463 593 L463 689 L68 689 L67 550 L279 550 L279 548 L239 448 L69 0 L240 0 L463 593 Z " />
<glyph glyph-name="eight" unicode="8" horiz-adv-x="508" d="M472 206 C472 268 438 326 401 356 L401 358 C443 404 459 452 459 505 C459 656 370 697 255 697 C139 697 50 656 50 505 C50 452 66 404 108 358 L108 356 C71 326 37 268 37 206 C37 60 101 -9 254 -9 C408 -9 472 60 472 206 L472 206 Z M304 507 C304 444 292 429 254 429 C217 429 205 444 205 507 C205 557 223 570 255 570 C287 570 304 557 304 507 L304 507 Z M316 207 C316 133 293 119 254 119 C216 119 194 133 194 207 C194 272 210 296 255 296 C299 296 316 272 316 207 L316 207 Z " />
<glyph glyph-name="nine" unicode="9" horiz-adv-x="508" d="M474 357 C475 457 453 581 396 638 C350 683 315 698 250 698 C118 698 28 631 28 473 C28 315 110 247 239 247 C263 247 286 251 308 264 L309 263 C310 217 301 191 281 171 C259 148 229 137 170 137 C145 137 115 140 80 145 L69 4 C134 -7 151 -9 177 -9 C256 -8 326 7 387 67 C466 146 474 273 474 357 L474 357 Z M312 415 C292 400 275 389 244 389 C214 389 181 395 181 477 C181 548 212 556 247 556 C264 556 284 545 294 524 C308 493 312 452 312 415 L312 415 Z " />
<glyph glyph-name="colon" unicode="&#x3a;" horiz-adv-x="317" d="M232 230 L232 376 L86 376 L86 230 L232 230 Z M232 0 L232 146 L86 146 L86 0 L232 0 Z " />
<glyph glyph-name="semicolon" unicode="&#x3b;" horiz-adv-x="330" d="M243 230 L243 376 L97 376 L97 230 L243 230 Z M245 145 L96 145 L101 24 C93 -10 69 -96 55 -127 L166 -127 C193 -86 221 -24 240 21 L245 145 Z " />
<glyph glyph-name="less" unicode="&#x3c;" horiz-adv-x="488" d="M448 42 L448 130 L181 239 L141 253 L181 268 L447 377 L448 465 L48 288 L49 219 L448 42 Z " />
<glyph glyph-name="equal" unicode="&#x3d;" horiz-adv-x="534" d="M481 285 L481 355 L52 355 L52 285 L481 285 Z M481 156 L481 226 L52 226 L52 156 L481 156 Z " />
<glyph glyph-name="greater" unicode="&#x3e;" horiz-adv-x="488" d="M440 288 L41 465 L41 377 L307 268 L347 253 L307 239 L41 130 L40 42 L440 219 L440 288 Z " />
<glyph glyph-name="question" unicode="&#x3f;" horiz-adv-x="392" d="M382 560 C382 690 259 698 185 698 C155 698 101 697 32 686 L43 545 C99 554 159 567 190 567 C227 567 233 561 233 547 C233 536 227 529 211 519 C131 466 60 450 60 332 C60 283 81 237 106 196 L242 260 C214 311 220 298 220 298 C214 309 212 321 212 331 C212 355 255 382 274 393 C337 431 382 471 382 560 L382 560 Z M258 1 L258 158 L80 158 L80 1 L258 1 Z " />
<glyph glyph-name="at" unicode="&#x40;" horiz-adv-x="854" d="M790 233 C790 507 697 642 429 642 C158 642 54 506 54 231 C54 -43 151 -177 419 -177 C485 -177 547 -162 623 -127 L580 -31 C516 -65 469 -74 419 -74 C235 -74 160 -7 160 231 C160 469 235 540 429 540 C621 540 686 472 686 233 L686 187 C685 154 672 91 624 91 C577 91 568 150 587 231 L629 417 C516 467 409 501 309 406 C275 373 237 310 219 242 C193 144 186 -2 331 -2 C402 -2 448 44 484 92 C500 38 546 -6 625 -6 C761 -6 790 128 790 233 L790 233 Z M497 351 L480 278 C467 221 408 104 352 104 C300 104 318 171 336 230 C350 277 376 318 390 333 C408 351 425 360 451 360 C464 360 472 359 479 357 L497 351 Z " />
<glyph glyph-name="A" unicode="A" horiz-adv-x="617" d="M602 0 L407 696 L209 696 L15 0 L187 0 L219 122 L395 122 L425 0 L602 0 Z M363 260 L252 260 L289 423 L306 512 L308 512 L326 424 L363 260 Z " />
<glyph glyph-name="B" unicode="B" horiz-adv-x="550" d="M519 204 C519 258 492 332 439 359 L439 361 C486 392 507 446 507 494 C507 563 495 611 461 646 C431 675 391 690 321 690 L65 690 L66 0 L318 0 C383 0 439 12 469 42 C510 84 519 141 519 204 L519 204 Z M350 488 C350 438 334 415 298 415 L232 416 L231 553 L304 553 C331 553 350 542 350 488 L350 488 Z M360 216 C360 152 341 142 309 142 L231 142 L232 290 L310 290 C344 290 360 271 360 216 L360 216 Z " />
<glyph glyph-name="C" unicode="C" horiz-adv-x="530" d="M510 9 L497 157 C429 144 391 138 339 138 C249 138 215 164 215 344 C215 526 249 552 339 552 C391 552 429 545 497 532 L510 680 C442 691 398 698 332 698 C231 698 167 681 119 633 C61 575 40 477 40 346 C40 215 61 114 119 56 C167 8 231 -9 332 -9 C398 -9 442 -2 510 9 L510 9 Z " />
<glyph glyph-name="D" unicode="D" horiz-adv-x="610" d="M569 345 C569 466 557 572 494 635 C435 694 368 689 280 689 L65 689 L65 0 L280 0 C368 0 435 -5 494 54 C557 117 569 225 569 345 L569 345 Z M397 344 C397 239 387 188 362 163 C345 146 306 146 277 146 L232 146 L232 543 L277 543 C306 543 345 544 362 526 C387 501 397 449 397 344 L397 344 Z " />
<glyph glyph-name="E" unicode="E" horiz-adv-x="503" d="M486 0 L486 144 L231 144 L231 283 L399 283 L399 427 L231 427 L231 545 L486 545 L486 689 L65 689 L65 0 L486 0 Z " />
<glyph glyph-name="F" unicode="F" horiz-adv-x="482" d="M486 545 L486 689 L65 689 L65 0 L231 0 L231 283 L399 283 L399 427 L231 427 L231 545 L486 545 Z " />
<glyph glyph-name="G" unicode="G" horiz-adv-x="608" d="M562 340 L397 340 L397 142 C376 139 367 137 348 137 C301 137 280 145 259 163 C230 188 213 234 213 343 C213 522 254 552 348 552 C401 552 437 547 519 533 L531 680 C456 691 402 697 337 697 C114 697 40 582 40 344 C40 124 103 -9 341 -9 C408 -9 503 6 562 24 L562 340 Z " />
<glyph glyph-name="H" unicode="H" horiz-adv-x="645" d="M579 0 L579 689 L414 689 L414 427 L231 427 L231 689 L65 689 L65 0 L231 0 L231 283 L414 283 L414 0 L579 0 Z " />
<glyph glyph-name="I" unicode="I" horiz-adv-x="301" d="M235 0 L235 689 L65 689 L65 0 L235 0 Z " />
<glyph glyph-name="J" unicode="J" horiz-adv-x="397" d="M336 689 L168 689 L167 191 C167 151 164 136 133 136 C102 136 81 139 9 149 L0 5 C69 -5 112 -9 147 -9 C220 -9 268 -1 296 26 C327 58 336 114 336 190 L336 689 Z " />
<glyph glyph-name="K" unicode="K" horiz-adv-x="579" d="M585 0 L370 394 L556 689 L365 689 L229 455 L227 455 L228 689 L65 689 L65 0 L228 0 L227 173 L274 248 L276 248 L398 0 L585 0 Z " />
<glyph glyph-name="L" unicode="L" horiz-adv-x="473" d="M477 0 L477 144 L235 144 L235 689 L65 689 L65 0 L477 0 Z " />
<glyph glyph-name="M" unicode="M" horiz-adv-x="891" d="M825 0 L825 689 L572 689 L472 285 L452 184 L450 184 L430 285 L321 689 L65 689 L65 0 L229 0 L226 484 L227 484 L254 358 L352 0 L540 0 L639 360 L665 481 L667 481 L663 0 L825 0 Z " />
<glyph glyph-name="N" unicode="N" horiz-adv-x="688" d="M623 0 L623 689 L469 689 L474 194 L472 195 L445 288 L282 689 L65 689 L65 0 L219 0 L214 479 L216 478 L244 384 L406 0 L623 0 Z " />
<glyph glyph-name="O" unicode="O" horiz-adv-x="648" d="M608 345 C608 483 587 577 530 634 C486 679 420 698 325 698 C229 698 162 679 118 634 C61 577 40 482 40 344 C40 207 61 113 118 56 C162 11 229 -9 325 -9 C420 -9 486 11 530 56 C587 113 608 207 608 345 L608 345 Z M438 346 C438 154 411 137 324 137 C236 137 211 153 211 344 C211 535 236 552 324 552 C411 552 438 537 438 346 L438 346 Z " />
<glyph glyph-name="P" unicode="P" horiz-adv-x="532" d="M517 461 C517 532 501 608 462 647 C427 681 368 689 300 689 L65 689 L66 0 L230 0 L230 233 L301 233 C365 233 421 234 456 267 C502 310 517 395 517 461 L517 461 Z M354 461 C354 401 345 369 302 369 L230 369 L230 553 L302 553 C344 553 354 516 354 461 L354 461 Z " />
<glyph glyph-name="Q" unicode="Q" horiz-adv-x="640" d="M650 -197 L640 -60 C579 -77 578 -80 550 -80 C519 -80 490 -58 464 -44 C441 -30 414 -16 382 -7 L382 -5 C447 1 495 20 530 56 C587 113 608 207 608 345 C608 483 587 577 530 634 C486 679 420 698 325 698 C229 698 162 679 118 634 C61 577 40 482 40 344 C40 207 61 113 118 56 C152 22 198 2 260 -5 L260 -6 C222 -14 185 -27 147 -44 L166 -183 C238 -148 289 -134 324 -134 C360 -134 390 -155 420 -172 C454 -193 494 -215 550 -215 C573 -215 599 -210 650 -197 L650 -197 Z M438 346 C438 154 411 137 324 137 C236 137 211 153 211 344 C211 535 236 552 324 552 C411 552 438 537 438 346 L438 346 Z " />
<glyph glyph-name="R" unicode="R" horiz-adv-x="548" d="M522 0 L416 260 C507 293 518 397 518 489 C518 561 505 608 466 647 C431 681 374 689 306 689 L65 689 L66 0 L227 0 L227 249 L257 249 L296 135 L347 0 L522 0 Z M355 469 C355 409 346 381 303 381 L230 381 L230 557 L302 556 C344 556 355 524 355 469 L355 469 Z " />
<glyph glyph-name="S" unicode="S" horiz-adv-x="476" d="M459 168 C459 239 431 298 373 343 L223 462 C203 478 182 490 182 515 C182 544 201 554 238 554 C291 554 329 548 413 538 L424 688 C347 695 306 698 244 698 C122 698 17 654 17 527 C17 459 37 394 102 345 L243 236 C269 217 293 205 293 176 C293 138 248 136 221 136 C180 136 127 139 39 151 L28 1 C115 -10 179 -10 218 -10 C343 -10 459 32 459 168 L459 168 Z " />
<glyph glyph-name="T" unicode="T" horiz-adv-x="512" d="M506 545 L506 689 L6 689 L6 545 L172 545 L172 0 L342 0 L342 545 L506 545 Z " />
<glyph glyph-name="U" unicode="U" horiz-adv-x="616" d="M560 209 L560 689 L395 689 L395 224 C395 156 356 138 308 138 C259 138 221 156 221 224 L221 689 L55 689 L55 209 C55 31 209 -9 308 -9 C408 -9 560 31 560 209 L560 209 Z " />
<glyph glyph-name="V" unicode="V" horiz-adv-x="617" d="M600 689 L422 690 L334 311 L313 183 L311 183 L290 310 L198 689 L17 689 L213 -3 L404 -3 L600 689 Z " />
<glyph glyph-name="W" unicode="W" horiz-adv-x="927" d="M899 689 L727 689 L672 309 L662 194 L661 194 L646 307 L568 689 L363 689 L293 302 L281 196 L280 196 L270 303 L203 689 L27 689 L170 0 L367 0 L449 407 L463 505 L465 505 L479 409 L563 0 L761 0 L899 689 Z " />
<glyph glyph-name="X" unicode="X" horiz-adv-x="650" d="M630 0 L426 347 L630 689 L437 689 L325 481 L214 689 L20 689 L225 347 L20 0 L214 0 L326 208 L437 0 L630 0 Z " />
<glyph glyph-name="Y" unicode="Y" horiz-adv-x="603" d="M593 689 L403 689 L338 525 L302 428 L301 428 L267 525 L197 689 L10 689 L218 271 L218 0 L384 0 L384 271 L593 689 Z " />
<glyph glyph-name="Z" unicode="Z" horiz-adv-x="527" d="M505 593 L504 689 L23 689 L23 542 L220 542 L290 544 L290 542 L217 430 L23 97 L22 0 L504 0 L504 147 L306 147 L241 146 L241 148 L311 256 L505 593 Z " />
<glyph glyph-name="bracketleft" unicode="&#x5b;" horiz-adv-x="346" d="M324 -122 L324 20 L236 20 L236 665 L324 665 L324 807 L70 807 L70 -122 L324 -122 Z " />
<glyph glyph-name="backslash" unicode="&#x5c;" horiz-adv-x="382" d="M359 -122 L92 807 L-10 807 L258 -122 L359 -122 Z " />
<glyph glyph-name="bracketright" unicode="&#x5d;" horiz-adv-x="346" d="M276 -122 L276 807 L22 807 L22 665 L110 665 L110 20 L22 20 L22 -122 L276 -122 Z " />
<glyph glyph-name="asciicircum" unicode="&#x5e;" horiz-adv-x="540" d="M498 233 L304 690 L237 690 L42 233 L138 233 L255 513 L271 557 L287 514 L402 233 L498 233 Z " />
<glyph glyph-name="underscore" unicode="&#x5f;" horiz-adv-x="719" d="M721 -69 L721 0 L-2 0 L-2 -69 L721 -69 Z " />
<glyph glyph-name="grave" unicode="&#x60;" horiz-adv-x="508" d="M337 580 L245 746 L89 746 L230 580 L337 580 Z " />
<glyph glyph-name="a" unicode="a" horiz-adv-x="481" d="M478 0 L326 514 L154 514 L3 0 L154 0 L173 75 L302 75 L322 0 L478 0 Z M275 196 L202 196 L221 288 L237 374 L239 374 L256 288 L275 196 Z " />
<glyph glyph-name="b" unicode="b" horiz-adv-x="461" d="M430 158 C430 195 413 251 380 262 L380 264 C410 290 421 328 421 359 C421 405 413 451 382 480 C354 505 323 512 271 512 L55 512 L55 0 L265 0 C312 0 351 3 383 30 C421 62 430 115 430 158 L430 158 Z M275 360 C275 333 268 317 246 317 L203 317 L203 396 L249 396 C264 396 275 382 275 360 L275 360 Z M283 167 C283 135 274 118 253 118 L202 118 L202 209 L251 209 C273 209 283 191 283 167 L283 167 Z " />
<glyph glyph-name="c" unicode="c" horiz-adv-x="425" d="M405 8 L392 145 C341 134 307 129 257 129 C218 129 188 143 188 253 C188 363 218 381 257 381 C307 381 341 376 392 365 L405 503 C342 515 306 519 258 519 C84 519 25 410 25 254 C25 98 84 -9 258 -9 C306 -9 342 -4 405 8 L405 8 Z " />
<glyph glyph-name="d" unicode="d" horiz-adv-x="484" d="M459 255 C459 335 445 418 395 468 C354 509 300 512 238 512 L55 512 L55 0 L238 0 C300 0 354 2 395 44 C445 94 459 176 459 255 L459 255 Z M301 256 C301 219 304 128 255 128 L214 128 L214 383 L255 383 C302 383 301 294 301 256 L301 256 Z " />
<glyph glyph-name="e" unicode="e" horiz-adv-x="426" d="M398 0 L398 133 L215 133 L215 196 L336 196 L336 323 L215 323 L215 378 L398 378 L398 512 L55 512 L55 0 L398 0 Z " />
<glyph glyph-name="f" unicode="f" horiz-adv-x="404" d="M398 378 L398 512 L55 512 L55 0 L215 0 L215 182 L336 182 L336 316 L215 316 L215 378 L398 378 Z " />
<glyph glyph-name="g" unicode="g" horiz-adv-x="477" d="M442 268 L297 268 L297 129 C297 129 274 126 267 126 C201 126 188 179 188 250 C188 370 222 380 269 380 C308 380 349 376 408 362 L422 504 C346 516 314 519 266 519 C188 519 129 499 90 460 C44 414 25 342 25 253 C25 171 41 98 87 51 C125 12 185 -9 266 -9 C317 -9 376 1 442 19 L442 268 Z " />
<glyph glyph-name="h" unicode="h" horiz-adv-x="527" d="M472 0 L472 511 L312 511 L312 325 L215 325 L215 511 L55 511 L55 0 L215 0 L215 192 L312 192 L312 0 L472 0 Z " />
<glyph glyph-name="i" unicode="i" horiz-adv-x="270" d="M215 0 L215 512 L55 512 L55 0 L215 0 Z " />
<glyph glyph-name="j" unicode="j" horiz-adv-x="326" d="M276 512 L116 512 L115 166 C115 127 95 128 86 128 C64 128 45 131 -1 142 L-10 8 C59 -3 70 -6 96 -6 C220 -6 275 36 275 150 L276 512 Z " />
<glyph glyph-name="k" unicode="k" horiz-adv-x="491" d="M491 0 L328 294 L475 512 L291 512 L209 361 L208 361 L210 512 L55 512 L55 0 L210 0 L210 126 L232 160 L233 160 L314 0 L491 0 Z " />
<glyph glyph-name="l" unicode="l" horiz-adv-x="388" d="M392 0 L392 134 L215 134 L215 512 L55 512 L55 0 L392 0 Z " />
<glyph glyph-name="m" unicode="m" horiz-adv-x="713" d="M658 1 L658 512 L439 512 L377 248 L361 165 L360 165 L344 248 L275 512 L55 512 L55 1 L195 1 L189 348 L191 348 L217 235 L282 1 L425 1 L489 238 L514 346 L516 345 L512 1 L658 1 Z " />
<glyph glyph-name="n" unicode="n" horiz-adv-x="573" d="M518 0 L518 512 L380 512 L383 188 L381 188 L357 263 L245 512 L55 512 L55 0 L192 0 L189 317 L191 316 L216 241 L332 0 L518 0 Z " />
<glyph glyph-name="o" unicode="o" horiz-adv-x="501" d="M476 255 C476 339 461 419 414 466 C376 504 328 519 251 519 C174 519 127 504 89 466 C42 419 25 340 25 256 C25 171 41 91 88 44 C126 6 173 -9 250 -9 C327 -9 374 6 413 44 C459 91 476 171 476 255 L476 255 Z M313 255 C313 157 298 126 251 126 C204 126 188 157 188 255 C188 353 203 384 251 384 C298 384 313 353 313 255 L313 255 Z " />
<glyph glyph-name="p" unicode="p" horiz-adv-x="432" d="M427 333 C427 446 386 512 256 512 L55 512 L56 0 L211 0 L211 151 L257 151 C309 151 350 156 377 183 C417 223 427 289 427 333 L427 333 Z M282 338 C282 313 277 277 258 277 L207 277 L207 389 L257 389 C267 389 282 370 282 338 L282 338 Z " />
<glyph glyph-name="q" unicode="q" horiz-adv-x="511" d="M513 -157 L505 -39 C481 -49 459 -56 433 -56 C396 -56 360 -21 310 -4 L310 -3 C359 3 393 18 423 47 C469 94 486 172 486 256 C486 341 471 419 424 466 C386 504 339 519 261 519 C184 519 137 504 99 466 C52 419 35 341 35 257 C35 173 51 94 98 47 C125 21 156 5 199 -1 L199 -3 C177 -8 153 -17 123 -30 L138 -149 C194 -123 224 -114 259 -114 C283 -114 306 -127 326 -139 C352 -154 392 -179 433 -179 C458 -179 474 -168 513 -157 L513 -157 Z M323 257 C323 159 308 129 261 129 C214 129 198 159 198 257 C198 355 213 384 261 384 C308 384 323 355 323 257 L323 257 Z " />
<glyph glyph-name="r" unicode="r" horiz-adv-x="467" d="M442 0 L351 196 C422 229 427 290 427 346 C427 464 381 512 253 512 L55 512 L56 0 L202 0 L202 153 L226 153 L283 0 L442 0 Z M279 342 C279 307 267 291 248 291 L204 291 L204 389 L247 389 C265 389 279 378 279 342 L279 342 Z " />
<glyph glyph-name="s" unicode="s" horiz-adv-x="429" d="M394 128 C394 184 368 222 327 256 L207 353 C197 361 193 364 193 377 C193 386 204 393 221 393 C256 393 292 390 361 373 L370 507 C306 517 264 519 219 519 C128 519 35 493 35 391 C35 349 48 303 95 264 L220 161 C233 151 237 143 237 136 C237 123 223 119 201 119 C172 119 121 123 53 137 L42 4 C124 -9 171 -9 200 -9 C291 -9 394 20 394 128 L394 128 Z " />
<glyph glyph-name="t" unicode="t" horiz-adv-x="409" d="M403 512 L6 512 L6 378 L126 378 L125 0 L285 1 L285 378 L402 378 L403 512 Z " />
<glyph glyph-name="u" unicode="u" horiz-adv-x="512" d="M462 164 L462 512 L305 512 L305 166 C305 135 283 123 256 123 C229 123 207 135 207 166 L207 512 L50 512 L50 164 C50 28 172 -11 256 -11 C339 -11 462 28 462 164 L462 164 Z " />
<glyph glyph-name="v" unicode="v" horiz-adv-x="492" d="M489 512 L331 512 L267 253 L249 150 L247 150 L228 252 L165 512 L3 512 L164 -4 L329 -4 L489 512 Z " />
<glyph glyph-name="w" unicode="w" horiz-adv-x="725" d="M712 512 L554 512 L522 290 L507 171 L505 171 L489 290 L446 512 L282 512 L243 293 L228 174 L226 174 L212 293 L175 512 L12 512 L134 0 L305 0 L344 191 L361 310 L363 310 L381 192 L423 0 L593 0 L712 512 Z " />
<glyph glyph-name="x" unicode="x" horiz-adv-x="514" d="M511 0 L354 257 L511 512 L325 512 L258 379 L257 379 L190 512 L3 512 L162 257 L4 0 L191 0 L257 131 L259 131 L325 0 L511 0 Z " />
<glyph glyph-name="y" unicode="y" horiz-adv-x="479" d="M479 512 L307 512 L253 368 L244 326 L243 326 L231 368 L173 512 L0 512 L160 216 L160 0 L319 0 L319 215 L479 512 Z " />
<glyph glyph-name="z" unicode="z" horiz-adv-x="450" d="M424 433 L424 512 L25 512 L25 378 L133 378 L217 381 L217 380 L183 327 L25 79 L25 0 L424 0 L423 133 L306 133 L231 130 L230 131 L266 184 L424 433 Z " />
<glyph glyph-name="braceleft" unicode="&#x7b;" horiz-adv-x="368" d="M346 -124 L346 26 L288 26 C277 26 265 39 265 48 L275 223 C278 269 273 306 236 343 L236 344 C273 381 278 420 275 466 L265 637 C265 645 277 658 288 658 L346 658 L346 808 L201 808 C120 808 95 769 98 703 L108 489 C111 414 55 400 -4 377 L-4 312 C55 289 111 275 108 200 L98 -19 C95 -85 120 -124 201 -124 L346 -124 Z " />
<glyph glyph-name="bar" unicode="&#x7c;" horiz-adv-x="250" d="M175 -123 L175 807 L74 807 L74 -123 L175 -123 Z " />
<glyph glyph-name="braceright" unicode="&#x7d;" horiz-adv-x="368" d="M372 312 L372 377 C313 400 257 414 260 489 L270 703 C273 769 248 808 167 808 L22 808 L22 658 L80 658 C91 658 103 645 103 637 L93 466 C90 420 95 381 132 344 L132 343 C95 306 90 269 93 223 L103 48 C103 39 91 26 80 26 L22 26 L22 -124 L167 -124 C248 -124 273 -85 270 -19 L260 200 C257 275 313 289 372 312 L372 312 Z " />
<glyph glyph-name="asciitilde" unicode="&#x7e;" horiz-adv-x="565" d="M531 250 L525 319 C497 303 477 291 455 282 C434 274 411 268 384 268 C352 268 319 281 290 292 C257 303 222 316 183 316 C117 316 90 300 34 264 L39 191 C104 231 144 246 178 246 C196 246 211 243 241 232 C305 207 334 201 380 201 C425 201 450 205 488 225 C497 231 508 237 531 250 L531 250 Z " />
<glyph glyph-name="nbspace" unicode="&#xa0;" horiz-adv-x="242" d="" />
<glyph glyph-name="exclamdown" unicode="&#xa1;" horiz-adv-x="379" d="M279 332 L279 490 L101 490 L101 332 L279 332 Z M278 -199 L272 240 L110 240 L104 -199 L278 -199 Z " />
<glyph glyph-name="cent" unicode="&#xa2;" horiz-adv-x="508" d="M450 8 L438 145 C386 134 352 129 302 129 C263 129 233 143 233 253 C233 363 263 381 302 381 C352 381 386 376 438 365 L450 503 C407 511 376 516 345 518 L345 625 L278 625 L278 518 C124 508 70 402 70 254 C70 106 124 2 278 -8 L278 -132 L345 -132 L346 -7 C376 -5 407 -1 450 8 L450 8 Z " />
<glyph glyph-name="sterling" unicode="&#xa3;" horiz-adv-x="508" d="M465 0 L465 144 L318 144 L276 141 L276 142 C284 156 288 189 288 206 L288 295 L379 295 L379 419 L288 419 L288 498 C288 538 289 553 319 553 C350 553 375 550 447 540 L456 684 C387 695 344 698 309 698 C236 698 191 685 164 657 C132 626 123 575 123 499 L123 418 L46 408 L46 309 L123 309 L123 193 C123 178 122 156 112 144 L46 144 L46 0 L465 0 Z " />
<glyph glyph-name="currency" unicode="&#xa4;" horiz-adv-x="508" d="M508 9 L496 157 C428 144 385 138 333 138 C263 138 221 149 206 242 L397 242 L424 317 L200 317 C199 326 199 335 199 344 C199 355 199 366 200 376 L443 376 L470 451 L207 451 C222 540 264 552 333 552 C385 552 428 545 496 532 L508 680 C441 691 396 698 331 698 C230 698 166 681 118 633 C77 592 49 530 37 451 L-51 451 L-51 376 L29 376 L29 317 L-51 317 L-51 242 L36 242 C49 161 76 98 118 56 C166 8 230 -9 331 -9 C396 -9 441 -2 508 9 L508 9 Z " />
<glyph glyph-name="yen" unicode="&#xa5;" horiz-adv-x="508" d="M541 710 L354 710 L284 527 L254 431 L252 431 L219 530 L147 710 L-40 710 L162 296 L55 296 L55 230 L168 230 L168 186 L55 186 L55 121 L168 121 L168 0 L333 0 L333 121 L457 121 L457 186 L333 186 L333 230 L457 230 L457 296 L339 296 L541 710 Z " />
<glyph glyph-name="brokenbar" unicode="&#xa6;" horiz-adv-x="254" d="M177 378 L177 807 L76 807 L76 378 L177 378 Z M177 -123 L177 309 L76 309 L76 -123 L177 -123 Z " />
<glyph glyph-name="section" unicode="&#xa7;" horiz-adv-x="476" d="M459 -65 C459 -18 450 21 419 56 C444 79 459 122 459 168 C459 239 431 298 373 343 L223 462 C203 478 182 490 182 515 C182 544 201 554 238 554 C291 554 329 548 413 538 L424 688 C347 695 306 698 244 698 C122 698 17 654 17 527 C17 481 28 442 53 403 C32 378 17 338 17 295 C17 226 37 162 102 112 L243 4 C269 -16 293 -27 293 -57 C293 -95 248 -97 221 -97 C180 -97 127 -94 39 -82 L28 -232 C115 -242 179 -242 218 -242 C343 -242 459 -200 459 -65 L459 -65 Z M303 176 C303 171 298 164 297 161 L216 223 C196 239 172 258 172 283 C172 287 175 296 176 300 L251 242 C276 223 303 205 303 176 L303 176 Z " />
<glyph glyph-name="dieresis" unicode="&#xa8;" horiz-adv-x="508" d="M411 589 L411 714 L286 714 L286 589 L411 589 Z M220 589 L220 714 L95 714 L95 589 L220 589 Z " />
<glyph glyph-name="copyright" unicode="&#xa9;" horiz-adv-x="704" d="M653 345 C653 599 557 698 352 698 C147 698 50 600 50 345 C50 90 147 -9 352 -9 C557 -9 653 90 653 345 L653 345 Z M553 345 C553 111 464 83 351 83 C238 83 151 111 151 345 C151 579 238 607 351 607 C464 607 553 579 553 345 L553 345 Z M474 552 C426 561 403 562 368 562 C245 562 197 491 197 346 C197 200 245 128 368 128 C403 128 426 130 474 139 L467 231 C414 220 395 218 367 218 C318 218 289 231 289 345 C289 460 318 473 367 473 C395 473 414 470 467 460 L474 552 Z " />
<glyph glyph-name="ordfeminine" unicode="&#xaa;" horiz-adv-x="399" d="M391 312 L266 698 L133 698 L8 312 L131 312 L146 367 L251 367 L266 312 L391 312 Z M226 464 L171 464 L183 519 L198 596 L199 596 L214 519 L226 464 Z " />
<glyph glyph-name="guillemotleft" unicode="&#xab;" horiz-adv-x="660" d="M620 417 L476 417 L309 236 L309 215 L469 41 L612 41 L443 226 L620 417 Z M338 417 L194 417 L27 236 L27 215 L187 41 L330 41 L161 226 L338 417 Z " />
<glyph glyph-name="logicalnot" unicode="&#xac;" horiz-adv-x="856" d="M776 -1 L776 689 L86 689 L86 -1 L776 -1 Z M683 92 L178 92 L178 596 L683 596 L683 92 Z " />
<glyph glyph-name="registered" unicode="&#xae;" horiz-adv-x="704" d="M653 345 C653 599 557 698 352 698 C147 698 50 600 50 345 C50 90 147 -9 352 -9 C557 -9 653 90 653 345 L653 345 Z M553 345 C553 111 464 83 351 83 C238 83 151 111 151 345 C151 579 238 607 351 607 C464 607 553 579 553 345 L553 345 Z M494 132 L420 303 C468 323 480 374 480 425 C480 492 458 558 371 558 L234 558 L233 132 L323 132 L323 295 L327 295 L394 132 L494 132 Z M393 425 C393 384 390 381 369 381 L323 381 L323 472 L369 473 C388 473 393 466 393 425 L393 425 Z " />
<glyph glyph-name="macron" unicode="&#xaf;" horiz-adv-x="508" d="M428 618 L428 741 L85 741 L85 618 L428 618 Z " />
<glyph glyph-name="degree" unicode="&#xb0;" horiz-adv-x="333" d="M274 641 C274 700 226 748 166 748 C107 748 58 700 58 641 C58 581 107 533 166 533 C226 533 274 581 274 641 L274 641 Z M211 641 C211 616 191 596 166 596 C141 596 121 616 121 641 C121 665 141 686 166 686 C191 686 211 665 211 641 L211 641 Z " />
<glyph glyph-name="plusminus" unicode="&#xb1;" horiz-adv-x="535" d="M491 253 L491 323 L302 323 L302 478 L232 478 L232 323 L44 323 L44 253 L232 253 L232 100 L302 100 L302 253 L491 253 Z M491 0 L491 70 L44 70 L44 0 L491 0 Z " />
<glyph glyph-name="acute" unicode="&#xb4;" horiz-adv-x="508" d="M396 746 L240 746 L148 580 L254 580 L396 746 Z " />
<glyph glyph-name="paragraph" unicode="&#xb6;" horiz-adv-x="518" d="M443 609 L218 609 C73 609 20 525 20 403 C20 285 65 207 197 200 L197 -126 L305 -126 L305 515 L335 515 L335 -126 L443 -126 L443 609 Z " />
<glyph glyph-name="periodcentered" unicode="&#xb7;" horiz-adv-x="287" d="M217 180 L217 326 L70 326 L70 180 L217 180 Z " />
<glyph glyph-name="cedilla" unicode="&#xb8;" horiz-adv-x="508" d="M332 -119 C332 -81 316 -62 286 -43 L323 0 L203 0 C192 -15 178 -30 178 -49 C178 -94 232 -92 232 -120 C232 -126 229 -129 213 -129 C193 -129 169 -122 148 -119 L144 -198 C200 -204 216 -204 231 -204 C297 -204 332 -179 332 -119 L332 -119 Z " />
<glyph glyph-name="onesuperior" unicode="&#xb9;" horiz-adv-x="242" d="" />
<glyph glyph-name="ordmasculine" unicode="&#xba;" horiz-adv-x="404" d="M374 501 C374 563 362 622 326 658 C296 687 260 698 202 698 C145 698 108 687 79 658 C43 622 30 564 30 502 C30 440 42 381 78 345 C107 316 144 305 201 305 C259 305 296 316 325 345 C361 381 374 439 374 501 L374 501 Z M243 501 C243 429 232 413 202 413 C172 413 160 429 160 502 C160 574 172 590 202 590 C232 590 243 574 243 501 L243 501 Z " />
<glyph glyph-name="guillemotright" unicode="&#xbb;" horiz-adv-x="660" d="M633 215 L633 236 L466 417 L322 417 L499 226 L330 41 L473 41 L633 215 Z M351 215 L351 236 L184 417 L40 417 L217 226 L48 41 L191 41 L351 215 Z " />
<glyph glyph-name="onequarter" unicode="&#xbc;" horiz-adv-x="242" d="" />
<glyph glyph-name="onehalf" unicode="&#xbd;" horiz-adv-x="242" d="" />
<glyph glyph-name="questiondown" unicode="&#xbf;" horiz-adv-x="392" d="M172 192 L172 190 C178 179 180 169 180 160 C180 136 137 109 119 98 C55 60 10 20 10 -70 C10 -200 133 -208 208 -208 C238 -208 292 -207 360 -196 L349 -54 C294 -64 234 -77 202 -77 C165 -77 160 -70 160 -57 C160 -45 165 -39 181 -28 C261 25 333 40 333 159 C333 208 312 254 286 295 L151 230 C165 204 170 195 172 192 L172 192 Z M312 332 L312 490 L134 490 L134 332 L312 332 Z M172 190 L172 191 L172 190 Z " />
<glyph glyph-name="Agrave" unicode="&#xc0;" horiz-adv-x="617" d="M356 761 L264 928 L108 928 L250 762 L356 761 Z M602 0 L407 696 L209 696 L15 0 L187 0 L219 122 L395 122 L425 0 L602 0 Z M363 260 L252 260 L289 423 L306 512 L308 512 L326 424 L363 260 Z " />
<glyph glyph-name="Aacute" unicode="&#xc1;" horiz-adv-x="617" d="M505 928 L349 928 L257 761 L363 762 L505 928 Z M602 0 L407 696 L209 696 L15 0 L187 0 L219 122 L395 122 L425 0 L602 0 Z M363 260 L252 260 L289 423 L306 512 L308 512 L326 424 L363 260 Z " />
<glyph glyph-name="Acircumflex" unicode="&#xc2;" horiz-adv-x="617" d="M463 761 L363 904 L242 904 L142 761 L269 761 L303 826 L338 761 L463 761 Z M602 0 L407 696 L209 696 L15 0 L187 0 L219 122 L395 122 L425 0 L602 0 Z M363 260 L252 260 L289 423 L306 512 L308 512 L326 424 L363 260 Z " />
<glyph glyph-name="Atilde" unicode="&#xc3;" horiz-adv-x="617" d="M475 812 L473 934 C448 920 405 893 376 895 C326 898 283 927 233 931 C204 933 158 920 122 900 L127 779 C153 794 193 819 223 817 C235 816 248 814 260 811 C295 801 328 784 365 781 C395 779 439 792 475 812 L475 812 Z M602 0 L407 696 L209 696 L15 0 L187 0 L219 122 L395 122 L425 0 L602 0 Z M363 260 L252 260 L289 423 L306 512 L308 512 L326 424 L363 260 Z " />
<glyph glyph-name="Adieresis" unicode="&#xc4;" horiz-adv-x="617" d="M463 770 L463 895 L338 895 L338 770 L463 770 Z M272 770 L272 895 L147 895 L147 770 L272 770 Z M602 0 L407 696 L209 696 L15 0 L187 0 L219 122 L395 122 L425 0 L602 0 Z M363 260 L252 260 L289 423 L306 512 L308 512 L326 424 L363 260 Z " />
<glyph glyph-name="Aring" unicode="&#xc5;" horiz-adv-x="617" d="M411 837 C411 896 363 944 304 944 C245 944 197 896 197 837 C197 778 245 730 304 730 C363 730 411 778 411 837 L411 837 Z M602 0 L407 696 L209 696 L15 0 L187 0 L219 122 L395 122 L425 0 L602 0 Z M346 837 C346 814 327 795 304 795 C281 795 262 814 262 837 C262 860 281 878 304 878 C327 878 346 860 346 837 L346 837 Z M363 260 L252 260 L289 423 L306 512 L308 512 L326 424 L363 260 Z " />
<glyph glyph-name="AE" unicode="&#xc6;" horiz-adv-x="880" d="M858 0 L858 144 L603 144 L603 282 L771 282 L771 427 L603 427 L603 545 L858 545 L858 689 L356 689 L15 1 L202 1 L263 132 L437 132 L437 0 L858 0 Z M437 269 L327 269 L373 365 L436 521 L437 521 L437 269 Z " />
<glyph glyph-name="Ccedilla" unicode="&#xc7;" horiz-adv-x="530" d="M510 9 L497 157 C429 144 391 138 339 138 C249 138 215 164 215 344 C215 526 249 552 339 552 C391 552 429 545 497 532 L510 680 C442 691 398 698 332 698 C231 698 167 681 119 633 C61 575 40 477 40 346 C40 215 61 114 119 56 C156 20 201 1 265 -6 C255 -19 245 -32 245 -49 C245 -94 299 -92 299 -120 C299 -126 296 -129 280 -129 C260 -129 235 -122 215 -119 L210 -198 C267 -204 282 -204 298 -204 C363 -204 399 -179 399 -119 C399 -36 313 -61 382 -8 C424 -5 460 1 510 9 L510 9 Z " />
<glyph glyph-name="Egrave" unicode="&#xc8;" horiz-adv-x="503" d="M486 0 L486 144 L231 144 L231 283 L399 283 L399 427 L231 427 L231 545 L486 545 L486 689 L65 689 L65 0 L486 0 Z " />
<glyph glyph-name="Eacute" unicode="&#xc9;" horiz-adv-x="503" d="M433 761 L333 904 L212 904 L112 761 L238 761 L272 826 L307 761 L433 761 Z M486 0 L486 144 L231 144 L231 283 L399 283 L399 427 L231 427 L231 545 L486 545 L486 689 L65 689 L65 0 L486 0 Z " />
<glyph glyph-name="Ecircumflex" unicode="&#xca;" horiz-adv-x="503" d="M438 770 L438 895 L313 895 L313 770 L438 770 Z M246 770 L246 895 L122 895 L122 770 L246 770 Z M486 0 L486 144 L231 144 L231 283 L399 283 L399 427 L231 427 L231 545 L486 545 L486 689 L65 689 L65 0 L486 0 Z " />
<glyph glyph-name="Edieresis" unicode="&#xcb;" horiz-adv-x="503" d="M340 761 L247 928 L92 928 L233 762 L340 761 Z M486 0 L486 144 L231 144 L231 283 L399 283 L399 427 L231 427 L231 545 L486 545 L486 689 L65 689 L65 0 L486 0 Z " />
<glyph glyph-name="Igrave" unicode="&#xcc;" horiz-adv-x="297" d="M202 761 L110 927 L-46 927 L96 761 L202 761 Z M232 0 L232 689 L62 689 L62 0 L232 0 Z " />
<glyph glyph-name="Iacute" unicode="&#xcd;" horiz-adv-x="297" d="M342 927 L186 927 L94 761 L200 761 L342 927 Z M232 0 L232 689 L62 689 L62 0 L232 0 Z " />
<glyph glyph-name="Icircumflex" unicode="&#xce;" horiz-adv-x="297" d="M309 760 L209 903 L88 903 L-12 760 L115 760 L149 825 L184 760 L309 760 Z M232 0 L232 689 L62 689 L62 0 L232 0 Z " />
<glyph glyph-name="Idieresis" unicode="&#xcf;" horiz-adv-x="297" d="M303 770 L303 895 L178 895 L178 770 L303 770 Z M112 770 L112 895 L-13 895 L-13 770 L112 770 Z M232 0 L232 689 L62 689 L62 0 L232 0 Z " />
<glyph glyph-name="Eth" unicode="&#xd0;" horiz-adv-x="607" d="M566 345 C566 466 554 572 491 635 C432 694 365 689 277 689 L62 689 L62 326 L-45 264 L-45 144 L62 206 L62 0 L277 0 C365 0 432 -5 491 54 C554 117 566 225 566 345 L566 345 Z M394 344 C394 239 383 188 358 163 C341 146 303 146 274 146 L229 146 L229 303 L327 360 L327 481 L229 424 L229 543 L274 543 C303 543 341 544 358 526 C383 501 394 449 394 344 L394 344 Z " />
<glyph glyph-name="Ntilde" unicode="&#xd1;" horiz-adv-x="690" d="M513 812 L510 934 C485 920 442 893 413 895 C363 898 320 927 271 931 C241 933 196 920 159 900 L165 779 C190 794 230 819 260 817 C273 816 285 814 297 811 C332 801 366 784 402 781 C433 779 477 792 513 812 L513 812 Z M623 0 L623 689 L469 689 L474 194 L472 195 L445 288 L282 689 L65 689 L65 0 L219 0 L214 479 L216 478 L244 384 L406 0 L623 0 Z " />
<glyph glyph-name="Ograve" unicode="&#xd2;" horiz-adv-x="648" d="M374 761 L282 927 L126 927 L268 761 L374 761 Z M608 345 C608 483 587 577 530 634 C486 679 420 698 325 698 C229 698 162 679 118 634 C61 577 40 482 40 344 C40 207 61 113 118 56 C162 11 229 -9 325 -9 C420 -9 486 11 530 56 C587 113 608 207 608 345 L608 345 Z M438 346 C438 154 411 137 324 137 C236 137 211 153 211 344 C211 535 236 552 324 552 C411 552 438 537 438 346 L438 346 Z " />
<glyph glyph-name="Oacute" unicode="&#xd3;" horiz-adv-x="648" d="M520 927 L364 927 L272 761 L378 761 L520 927 Z M608 345 C608 483 587 577 530 634 C486 679 420 698 325 698 C229 698 162 679 118 634 C61 577 40 482 40 344 C40 207 61 113 118 56 C162 11 229 -9 325 -9 C420 -9 486 11 530 56 C587 113 608 207 608 345 L608 345 Z M438 346 C438 154 411 137 324 137 C236 137 211 153 211 344 C211 535 236 552 324 552 C411 552 438 537 438 346 L438 346 Z " />
<glyph glyph-name="Ocircumflex" unicode="&#xd4;" horiz-adv-x="648" d="M481 761 L381 904 L260 904 L160 761 L287 761 L321 826 L356 761 L481 761 Z M608 345 C608 483 587 577 530 634 C486 679 420 698 325 698 C229 698 162 679 118 634 C61 577 40 482 40 344 C40 207 61 113 118 56 C162 11 229 -9 325 -9 C420 -9 486 11 530 56 C587 113 608 207 608 345 L608 345 Z M438 346 C438 154 411 137 324 137 C236 137 211 153 211 344 C211 535 236 552 324 552 C411 552 438 537 438 346 L438 346 Z " />
<glyph glyph-name="Otilde" unicode="&#xd5;" horiz-adv-x="648" d="M502 812 L500 934 C475 920 432 893 403 895 C353 898 310 927 261 931 C231 933 186 920 149 900 L155 779 C180 794 220 819 250 817 C263 816 275 814 287 811 C322 801 355 784 392 781 C423 779 467 792 502 812 L502 812 Z M608 345 C608 483 587 577 530 634 C486 679 420 698 325 698 C229 698 162 679 118 634 C61 577 40 482 40 344 C40 207 61 113 118 56 C162 11 229 -9 325 -9 C420 -9 486 11 530 56 C587 113 608 207 608 345 L608 345 Z M438 346 C438 154 411 137 324 137 C236 137 211 153 211 344 C211 535 236 552 324 552 C411 552 438 537 438 346 L438 346 Z " />
<glyph glyph-name="Odieresis" unicode="&#xd6;" horiz-adv-x="648" d="M481 770 L481 895 L356 895 L356 770 L481 770 Z M290 770 L290 895 L165 895 L165 770 L290 770 Z M608 345 C608 483 587 577 530 634 C486 679 420 698 325 698 C229 698 162 679 118 634 C61 577 40 482 40 344 C40 207 61 113 118 56 C162 11 229 -9 325 -9 C420 -9 486 11 530 56 C587 113 608 207 608 345 L608 345 Z M438 346 C438 154 411 137 324 137 C236 137 211 153 211 344 C211 535 236 552 324 552 C411 552 438 537 438 346 L438 346 Z " />
<glyph glyph-name="multiply" unicode="&#xd7;" horiz-adv-x="520" d="M466 392 L416 442 L259 286 L104 441 L54 391 L209 236 L54 81 L104 31 L259 186 L414 32 L463 81 L309 236 L466 392 Z " />
<glyph glyph-name="Oslash" unicode="&#xd8;" horiz-adv-x="651" d="M610 345 C610 483 590 577 533 634 L532 634 L599 748 L511 748 L469 676 C431 691 384 698 327 698 C232 698 165 679 120 634 C63 577 43 482 43 344 C43 213 61 121 113 64 L40 -60 L128 -60 L174 18 C214 0 264 -9 327 -9 C422 -9 488 11 533 56 C590 113 610 207 610 345 L610 345 Z M391 543 L217 243 C214 270 213 303 213 344 C213 535 238 552 326 552 C353 552 375 551 391 543 L391 543 Z M440 346 C440 154 414 137 326 137 C293 137 269 139 252 152 L434 465 C438 435 440 397 440 346 L440 346 Z " />
<glyph glyph-name="Ugrave" unicode="&#xd9;" horiz-adv-x="616" d="M363 761 L271 928 L115 928 L256 762 L363 761 Z M560 209 L560 689 L395 689 L395 224 C395 156 356 138 308 138 C259 138 221 156 221 224 L221 689 L55 689 L55 209 C55 31 209 -9 308 -9 C408 -9 560 31 560 209 L560 209 Z " />
<glyph glyph-name="Uacute" unicode="&#xda;" horiz-adv-x="616" d="M503 928 L347 928 L255 761 L361 762 L503 928 Z M560 209 L560 689 L395 689 L395 224 C395 156 356 138 308 138 C259 138 221 156 221 224 L221 689 L55 689 L55 209 C55 31 209 -9 308 -9 C408 -9 560 31 560 209 L560 209 Z " />
<glyph glyph-name="Ucircumflex" unicode="&#xdb;" horiz-adv-x="616" d="M467 760 L367 903 L246 903 L146 760 L272 760 L306 825 L341 760 L467 760 Z M560 209 L560 689 L395 689 L395 224 C395 156 356 138 308 138 C259 138 221 156 221 224 L221 689 L55 689 L55 209 C55 31 209 -9 308 -9 C408 -9 560 31 560 209 L560 209 Z " />
<glyph glyph-name="Udieresis" unicode="&#xdc;" horiz-adv-x="616" d="M467 770 L467 895 L342 895 L342 770 L467 770 Z M276 770 L276 895 L151 895 L151 770 L276 770 Z M560 209 L560 689 L395 689 L395 224 C395 156 356 138 308 138 C259 138 221 156 221 224 L221 689 L55 689 L55 209 C55 31 209 -9 308 -9 C408 -9 560 31 560 209 L560 209 Z " />
<glyph glyph-name="Yacute" unicode="&#xdd;" horiz-adv-x="603" d="M498 929 L342 929 L250 762 L356 763 L498 929 Z M593 689 L403 689 L338 525 L302 428 L301 428 L267 525 L197 689 L10 689 L218 271 L218 0 L384 0 L384 271 L593 689 Z " />
<glyph glyph-name="Thorn" unicode="&#xde;" horiz-adv-x="510" d="M494 352 C494 423 481 489 441 528 C406 562 350 570 282 570 L227 570 L227 689 L62 689 L63 0 L227 0 L227 134 L278 134 C343 134 401 135 436 169 C482 211 494 286 494 352 L494 352 Z M331 352 C331 292 327 266 284 266 L227 266 L227 438 L284 437 C325 437 331 407 331 352 L331 352 Z " />
<glyph glyph-name="germandbls" unicode="&#xdf;" horiz-adv-x="861" d="M825 128 C825 184 799 222 759 256 L639 353 C629 361 625 364 625 377 C625 386 636 393 653 393 C687 393 723 390 793 373 L802 507 C738 517 696 519 650 519 C560 519 467 493 467 391 C467 349 479 303 526 264 L652 161 C665 151 669 143 669 136 C669 123 655 119 633 119 C603 119 553 123 485 137 L473 4 C556 -9 603 -9 632 -9 C723 -9 825 20 825 128 L825 128 Z M394 128 C394 184 368 222 327 256 L207 353 C197 361 193 364 193 377 C193 386 204 393 221 393 C256 393 292 390 361 373 L370 507 C306 517 264 519 219 519 C128 519 35 493 35 391 C35 349 48 303 95 264 L220 161 C233 151 237 143 237 136 C237 123 223 119 201 119 C172 119 121 123 53 137 L42 4 C124 -9 171 -9 200 -9 C291 -9 394 20 394 128 L394 128 Z " />
<glyph glyph-name="agrave" unicode="&#xe0;" horiz-adv-x="481" d="M293 580 L200 746 L44 746 L186 580 L293 580 Z M478 0 L326 514 L154 514 L3 0 L154 0 L173 75 L302 75 L322 0 L478 0 Z M275 196 L202 196 L221 288 L237 374 L239 374 L256 288 L275 196 Z " />
<glyph glyph-name="aacute" unicode="&#xe1;" horiz-adv-x="481" d="M436 746 L280 746 L187 580 L294 580 L436 746 Z M478 0 L326 514 L154 514 L3 0 L154 0 L173 75 L302 75 L322 0 L478 0 Z M275 196 L202 196 L221 288 L237 374 L239 374 L256 288 L275 196 Z " />
<glyph glyph-name="acircumflex" unicode="&#xe2;" horiz-adv-x="481" d="M401 580 L301 724 L179 724 L79 580 L206 581 L240 645 L275 581 L401 580 Z M478 0 L326 514 L154 514 L3 0 L154 0 L173 75 L302 75 L322 0 L478 0 Z M275 196 L202 196 L221 288 L237 374 L239 374 L256 288 L275 196 Z " />
<glyph glyph-name="atilde" unicode="&#xe3;" horiz-adv-x="481" d="M406 631 L404 754 C379 740 335 713 306 715 C257 718 214 747 164 750 C134 752 89 740 53 720 L58 599 C84 613 123 639 153 637 C166 636 178 634 190 630 C225 620 259 603 296 601 C326 599 370 611 406 631 L406 631 Z M478 0 L326 514 L154 514 L3 0 L154 0 L173 75 L302 75 L322 0 L478 0 Z M275 196 L202 196 L221 288 L237 374 L239 374 L256 288 L275 196 Z " />
<glyph glyph-name="adieresis" unicode="&#xe4;" horiz-adv-x="481" d="M398 589 L398 714 L273 714 L273 589 L398 589 Z M206 589 L206 714 L81 714 L81 589 L206 589 Z M478 0 L326 514 L154 514 L3 0 L154 0 L173 75 L302 75 L322 0 L478 0 Z M275 196 L202 196 L221 288 L237 374 L239 374 L256 288 L275 196 Z " />
<glyph glyph-name="aring" unicode="&#xe5;" horiz-adv-x="481" d="M340 656 C340 716 293 763 233 763 C174 763 126 716 126 656 C126 597 174 549 233 549 C293 549 340 597 340 656 L340 656 Z M478 0 L326 514 L154 514 L3 0 L154 0 L173 75 L302 75 L322 0 L478 0 Z M275 656 C275 633 256 615 233 615 C210 615 192 633 192 656 C192 679 210 698 233 698 C256 698 275 679 275 656 L275 656 Z M275 196 L202 196 L221 288 L237 374 L239 374 L256 288 L275 196 Z " />
<glyph glyph-name="ae" unicode="&#xe6;" horiz-adv-x="701" d="M674 0 L674 133 L490 133 L490 193 L611 193 L611 326 L490 326 L490 378 L674 378 L674 512 L276 511 L3 0 L173 0 L210 78 L331 77 L331 0 L674 0 Z M331 196 L265 196 L295 267 L328 351 L331 350 L331 196 Z " />
<glyph glyph-name="ccedilla" unicode="&#xe7;" horiz-adv-x="425" d="M405 8 L392 145 C341 134 307 129 257 129 C218 129 188 143 188 253 C188 363 218 381 257 381 C307 381 341 376 392 365 L405 503 C342 515 306 519 258 519 C84 519 25 410 25 254 C25 120 70 22 194 -3 C183 -17 171 -31 171 -49 C171 -94 225 -92 225 -120 C225 -126 222 -129 206 -129 C186 -129 161 -122 141 -119 L137 -198 C193 -204 209 -204 224 -204 C290 -204 325 -179 325 -119 C325 -36 240 -59 309 -6 C337 -4 366 0 405 8 L405 8 Z " />
<glyph glyph-name="egrave" unicode="&#xe8;" horiz-adv-x="426" d="M262 580 L170 746 L14 746 L156 580 L262 580 Z M398 0 L398 133 L215 133 L215 196 L336 196 L336 323 L215 323 L215 378 L398 378 L398 512 L55 512 L55 0 L398 0 Z " />
<glyph glyph-name="eacute" unicode="&#xe9;" horiz-adv-x="426" d="M404 746 L248 746 L156 580 L262 580 L404 746 Z M398 0 L398 133 L215 133 L215 196 L336 196 L336 323 L215 323 L215 378 L398 378 L398 512 L55 512 L55 0 L398 0 Z " />
<glyph glyph-name="ecircumflex" unicode="&#xea;" horiz-adv-x="426" d="M385 580 L285 724 L163 724 L63 580 L190 581 L224 645 L259 581 L385 580 Z M398 0 L398 133 L215 133 L215 196 L336 196 L336 323 L215 323 L215 378 L398 378 L398 512 L55 512 L55 0 L398 0 Z " />
<glyph glyph-name="edieresis" unicode="&#xeb;" horiz-adv-x="426" d="M383 589 L383 714 L258 714 L258 589 L383 589 Z M192 589 L192 714 L67 714 L67 589 L192 589 Z M398 0 L398 133 L215 133 L215 196 L336 196 L336 323 L215 323 L215 378 L398 378 L398 512 L55 512 L55 0 L398 0 Z " />
<glyph glyph-name="igrave" unicode="&#xec;" horiz-adv-x="270" d="M191 580 L99 746 L-57 746 L84 580 L191 580 Z M215 0 L215 512 L55 512 L55 0 L215 0 Z " />
<glyph glyph-name="iacute" unicode="&#xed;" horiz-adv-x="270" d="M332 746 L176 746 L84 580 L190 580 L332 746 Z M215 0 L215 512 L55 512 L55 0 L215 0 Z " />
<glyph glyph-name="icircumflex" unicode="&#xee;" horiz-adv-x="270" d="M294 580 L194 724 L73 724 L-27 580 L100 581 L134 645 L169 581 L294 580 Z M215 0 L215 512 L55 512 L55 0 L215 0 Z " />
<glyph glyph-name="idieresis" unicode="&#xef;" horiz-adv-x="270" d="M293 589 L293 714 L168 714 L168 589 L293 589 Z M101 589 L101 714 L-24 714 L-24 589 L101 589 Z M215 0 L215 512 L55 512 L55 0 L215 0 Z " />
<glyph glyph-name="eth" unicode="&#xf0;" horiz-adv-x="482" d="M457 255 C457 335 443 417 392 468 C351 509 298 512 235 512 L53 512 L53 209 L-22 165 L-22 55 L53 99 L53 0 L235 0 C298 0 351 2 392 44 C443 94 457 176 457 255 L457 255 Z M299 256 C299 219 302 128 253 128 L212 128 L212 191 L266 222 L266 333 L212 301 L212 383 L253 383 C300 383 299 294 299 256 L299 256 Z " />
<glyph glyph-name="ntilde" unicode="&#xf1;" horiz-adv-x="573" d="M457 631 L455 754 C430 740 386 713 357 715 C308 718 265 747 215 750 C185 752 140 740 104 720 L109 599 C135 613 174 639 204 637 C217 636 229 634 242 630 C277 620 310 603 347 601 C377 599 421 611 457 631 L457 631 Z M518 0 L518 512 L380 512 L383 188 L381 188 L357 263 L245 512 L55 512 L55 0 L192 0 L189 317 L191 316 L216 241 L332 0 L518 0 Z " />
<glyph glyph-name="ograve" unicode="&#xf2;" horiz-adv-x="501" d="M304 580 L212 746 L56 746 L197 580 L304 580 Z M476 255 C476 339 461 419 414 466 C376 504 328 519 251 519 C174 519 127 504 89 466 C42 419 25 340 25 256 C25 171 41 91 88 44 C126 6 173 -9 250 -9 C327 -9 374 6 413 44 C459 91 476 171 476 255 L476 255 Z M313 255 C313 157 298 126 251 126 C204 126 188 157 188 255 C188 353 203 384 251 384 C298 384 313 353 313 255 L313 255 Z " />
<glyph glyph-name="oacute" unicode="&#xf3;" horiz-adv-x="501" d="M446 746 L290 746 L197 580 L304 580 L446 746 Z M476 255 C476 339 461 419 414 466 C376 504 328 519 251 519 C174 519 127 504 89 466 C42 419 25 340 25 256 C25 171 41 91 88 44 C126 6 173 -9 250 -9 C327 -9 374 6 413 44 C459 91 476 171 476 255 L476 255 Z M313 255 C313 157 298 126 251 126 C204 126 188 157 188 255 C188 353 203 384 251 384 C298 384 313 353 313 255 L313 255 Z " />
<glyph glyph-name="ocircumflex" unicode="&#xf4;" horiz-adv-x="501" d="M415 580 L315 724 L194 724 L94 580 L220 581 L254 645 L289 581 L415 580 Z M476 255 C476 339 461 419 414 466 C376 504 328 519 251 519 C174 519 127 504 89 466 C42 419 25 340 25 256 C25 171 41 91 88 44 C126 6 173 -9 250 -9 C327 -9 374 6 413 44 C459 91 476 171 476 255 L476 255 Z M313 255 C313 157 298 126 251 126 C204 126 188 157 188 255 C188 353 203 384 251 384 C298 384 313 353 313 255 L313 255 Z " />
<glyph glyph-name="otilde" unicode="&#xf5;" horiz-adv-x="501" d="M429 631 L427 754 C402 740 358 713 329 715 C280 718 237 747 187 750 C157 752 112 740 76 720 L81 599 C107 613 146 639 176 637 C189 636 201 634 213 630 C248 620 282 603 319 601 C349 599 393 611 429 631 L429 631 Z M476 255 C476 339 461 419 414 466 C376 504 328 519 251 519 C174 519 127 504 89 466 C42 419 25 340 25 256 C25 171 41 91 88 44 C126 6 173 -9 250 -9 C327 -9 374 6 413 44 C459 91 476 171 476 255 L476 255 Z M313 255 C313 157 298 126 251 126 C204 126 188 157 188 255 C188 353 203 384 251 384 C298 384 313 353 313 255 L313 255 Z " />
<glyph glyph-name="odieresis" unicode="&#xf6;" horiz-adv-x="501" d="M411 589 L411 714 L286 714 L286 589 L411 589 Z M220 589 L220 714 L95 714 L95 589 L220 589 Z M476 255 C476 339 461 419 414 466 C376 504 328 519 251 519 C174 519 127 504 89 466 C42 419 25 340 25 256 C25 171 41 91 88 44 C126 6 173 -9 250 -9 C327 -9 374 6 413 44 C459 91 476 171 476 255 L476 255 Z M313 255 C313 157 298 126 251 126 C204 126 188 157 188 255 C188 353 203 384 251 384 C298 384 313 353 313 255 L313 255 Z " />
<glyph glyph-name="divide" unicode="&#xf7;" horiz-adv-x="536" d="M315 354 L315 447 L221 447 L221 354 L315 354 Z M492 220 L492 290 L44 290 L44 220 L492 220 Z M315 65 L315 158 L221 158 L221 65 L315 65 Z " />
<glyph glyph-name="oslash" unicode="&#xf8;" horiz-adv-x="501" d="M476 255 C476 338 461 418 415 465 L469 557 L382 557 L352 505 C325 515 292 519 251 519 C174 519 127 504 89 466 C42 419 25 340 25 256 C25 173 40 94 85 47 L29 -50 L116 -50 L148 6 C176 -4 209 -9 250 -9 C327 -9 374 6 413 44 C459 91 476 171 476 255 L476 255 Z M313 255 C313 157 298 126 251 126 C239 126 230 128 222 132 L313 288 L313 255 Z M279 379 L189 224 C188 234 188 244 188 255 C188 353 203 384 251 384 C262 384 271 383 279 379 L279 379 Z " />
<glyph glyph-name="ugrave" unicode="&#xf9;" horiz-adv-x="512" d="M310 579 L217 745 L61 745 L203 579 L310 579 Z M462 164 L462 512 L305 512 L305 166 C305 135 283 123 256 123 C229 123 207 135 207 166 L207 512 L50 512 L50 164 C50 28 172 -11 256 -11 C339 -11 462 28 462 164 L462 164 Z " />
<glyph glyph-name="uacute" unicode="&#xfa;" horiz-adv-x="512" d="M451 746 L295 746 L202 580 L309 580 L451 746 Z M462 164 L462 512 L305 512 L305 166 C305 135 283 123 256 123 C229 123 207 135 207 166 L207 512 L50 512 L50 164 C50 28 172 -11 256 -11 C339 -11 462 28 462 164 L462 164 Z " />
<glyph glyph-name="ucircumflex" unicode="&#xfb;" horiz-adv-x="512" d="M418 580 L318 724 L197 724 L97 580 L223 581 L257 645 L292 581 L418 580 Z M462 164 L462 512 L305 512 L305 166 C305 135 283 123 256 123 C229 123 207 135 207 166 L207 512 L50 512 L50 164 C50 28 172 -11 256 -11 C339 -11 462 28 462 164 L462 164 Z " />
<glyph glyph-name="udieresis" unicode="&#xfc;" horiz-adv-x="512" d="M414 589 L414 714 L289 714 L289 589 L414 589 Z M222 589 L222 714 L97 714 L97 589 L222 589 Z M462 164 L462 512 L305 512 L305 166 C305 135 283 123 256 123 C229 123 207 135 207 166 L207 512 L50 512 L50 164 C50 28 172 -11 256 -11 C339 -11 462 28 462 164 L462 164 Z " />
<glyph glyph-name="yacute" unicode="&#xfd;" horiz-adv-x="479" d="M437 746 L281 746 L188 580 L295 580 L437 746 Z M479 512 L307 512 L253 368 L244 326 L243 326 L231 368 L173 512 L0 512 L160 216 L160 0 L319 0 L319 215 L479 512 Z " />
<glyph glyph-name="thorn" unicode="&#xfe;" horiz-adv-x="422" d="M417 260 C417 374 374 434 243 434 L210 434 L210 510 L55 510 L56 0 L211 0 L211 84 L241 84 C293 84 339 91 368 116 C408 151 417 216 417 260 L417 260 Z M272 266 C272 241 270 209 251 209 L207 209 L207 311 L250 311 C260 311 272 298 272 266 L272 266 Z " />
<glyph glyph-name="ydieresis" unicode="&#xff;" horiz-adv-x="479" d="M401 589 L401 714 L276 714 L276 589 L401 589 Z M209 589 L209 714 L85 714 L85 589 L209 589 Z M479 512 L307 512 L253 368 L244 326 L243 326 L231 368 L173 512 L0 512 L160 216 L160 0 L319 0 L319 215 L479 512 Z " />
<glyph glyph-name="dotlessi" unicode="&#x131;" horiz-adv-x="277" d="M219 0 L219 489 L58 489 L59 0 L219 0 Z " />
<glyph glyph-name="Lslash" unicode="&#x141;" horiz-adv-x="470" d="M474 0 L474 144 L228 144 L228 303 L336 365 L336 486 L228 423 L228 689 L62 689 L62 326 L-45 264 L-45 144 L62 206 L62 0 L474 0 Z " />
<glyph glyph-name="lslash" unicode="&#x142;" horiz-adv-x="389" d="M393 0 L393 134 L216 134 L216 192 L296 238 L296 349 L215 302 L215 512 L56 512 L56 209 L-19 165 L-19 55 L56 99 L56 0 L393 0 Z " />
<glyph glyph-name="OE" unicode="&#x152;" horiz-adv-x="883" d="M861 0 L861 144 L606 144 L606 283 L774 283 L774 427 L606 427 L606 545 L861 545 L861 689 L440 689 L440 675 C408 689 369 698 325 698 C229 698 162 679 118 634 C61 577 40 482 40 344 C40 207 61 113 118 56 C162 11 229 -9 325 -9 C369 -9 408 0 440 15 L440 0 L861 0 Z M438 346 C438 154 411 137 324 137 C236 137 211 153 211 344 C211 535 236 552 324 552 C411 552 438 537 438 346 L438 346 Z " />
<glyph glyph-name="oe" unicode="&#x153;" horiz-adv-x="684" d="M657 0 L657 133 L473 133 L473 193 L595 193 L595 326 L473 326 L473 378 L657 378 L657 512 L330 512 C308 517 282 519 251 519 C174 519 127 504 89 466 C42 419 25 340 25 256 C25 171 41 91 88 44 C126 6 173 -9 250 -9 C281 -9 307 -5 330 0 L657 0 Z M313 255 C313 157 298 126 251 126 C204 126 188 157 188 255 C188 353 203 384 251 384 C298 384 313 353 313 255 L313 255 Z " />
<glyph glyph-name="Scaron" unicode="&#x160;" horiz-adv-x="476" d="M384 903 L257 903 L223 839 L188 903 L62 903 L162 760 L284 760 L384 903 Z M459 168 C459 239 431 298 373 343 L223 462 C203 478 182 490 182 515 C182 544 201 554 238 554 C291 554 329 548 413 538 L424 688 C347 695 306 698 244 698 C122 698 17 654 17 527 C17 459 37 394 102 345 L243 236 C269 217 293 205 293 176 C293 138 248 136 221 136 C180 136 127 139 39 151 L28 1 C115 -10 179 -10 218 -10 C343 -10 459 32 459 168 L459 168 Z " />
<glyph glyph-name="scaron" unicode="&#x161;" horiz-adv-x="429" d="M365 724 L238 724 L204 659 L169 724 L43 724 L143 580 L265 580 L365 724 Z M394 128 C394 184 368 222 327 256 L207 353 C197 361 193 364 193 377 C193 386 204 393 221 393 C256 393 292 390 361 373 L370 507 C306 517 264 519 219 519 C128 519 35 493 35 391 C35 349 48 303 95 264 L220 161 C233 151 237 143 237 136 C237 123 223 119 201 119 C172 119 121 123 53 137 L42 4 C124 -9 171 -9 200 -9 C291 -9 394 20 394 128 L394 128 Z " />
<glyph glyph-name="Ydieresis" unicode="&#x178;" horiz-adv-x="603" d="M463 770 L463 895 L338 895 L338 770 L463 770 Z M272 770 L272 895 L147 895 L147 770 L272 770 Z M593 689 L403 689 L338 525 L302 428 L301 428 L267 525 L197 689 L10 689 L218 271 L218 0 L384 0 L384 271 L593 689 Z " />
<glyph glyph-name="Zcaron" unicode="&#x17d;" horiz-adv-x="527" d="M429 903 L302 903 L268 839 L233 903 L108 903 L208 760 L329 760 L429 903 Z M505 593 L504 689 L23 689 L23 542 L220 542 L290 544 L290 542 L217 430 L23 97 L22 0 L504 0 L504 147 L306 147 L241 146 L241 148 L311 256 L505 593 Z " />
<glyph glyph-name="zcaron" unicode="&#x17e;" horiz-adv-x="450" d="M387 724 L260 724 L226 659 L191 724 L65 724 L165 580 L287 580 L387 724 Z M424 433 L424 512 L25 512 L25 378 L133 378 L217 381 L217 380 L183 327 L25 79 L25 0 L424 0 L423 133 L306 133 L231 130 L230 131 L266 184 L424 433 Z " />
<glyph glyph-name="florin" unicode="&#x192;" horiz-adv-x="508" d="M472 674 C435 686 383 698 323 698 C210 698 153 644 142 546 L132 463 L59 453 L43 328 L115 328 L59 -129 L219 -129 L275 328 L395 328 L413 468 L293 468 L298 524 C301 550 310 556 330 556 C380 556 385 548 443 531 L472 674 Z " />
<glyph glyph-name="circumflex" unicode="&#x2c6;" horiz-adv-x="508" d="M415 580 L315 724 L194 724 L94 580 L220 581 L254 645 L289 581 L415 580 Z " />
<glyph glyph-name="caron" unicode="&#x2c7;" horiz-adv-x="508" d="M415 724 L288 724 L254 659 L219 724 L94 724 L194 580 L315 580 L415 724 Z " />
<glyph glyph-name="breve" unicode="&#x2d8;" horiz-adv-x="508" d="M429 727 L295 727 C288 690 278 680 255 680 C232 680 220 691 213 727 L78 727 C106 638 154 576 254 576 C355 576 402 638 429 727 L429 727 Z " />
<glyph glyph-name="dotaccent" unicode="&#x2d9;" horiz-adv-x="508" d="M316 589 L316 713 L191 713 L191 589 L316 589 Z " />
<glyph glyph-name="ring" unicode="&#x2da;" horiz-adv-x="508" d="M361 656 C361 716 313 763 254 763 C195 763 147 716 147 656 C147 597 195 549 254 549 C313 549 361 597 361 656 L361 656 Z M296 656 C296 633 277 615 254 615 C231 615 212 633 212 656 C212 679 231 698 254 698 C277 698 296 679 296 656 L296 656 Z " />
<glyph glyph-name="ogonek" unicode="&#x2db;" horiz-adv-x="508" d="M344 -183 L338 -102 C309 -120 281 -133 262 -133 C252 -133 241 -121 241 -108 C241 -81 268 -51 332 0 L203 0 C175 -25 146 -60 146 -109 C146 -156 185 -204 259 -204 C287 -204 313 -196 344 -183 L344 -183 Z " />
<glyph glyph-name="tilde" unicode="&#x2dc;" horiz-adv-x="508" d="M429 631 L427 754 C402 740 358 713 329 715 C280 718 237 747 187 750 C157 752 112 740 76 720 L81 599 C107 613 146 639 176 637 C189 636 201 634 213 630 C248 620 282 603 319 601 C349 599 393 611 429 631 L429 631 Z " />
<glyph glyph-name="hungarumlaut" unicode="&#x2dd;" horiz-adv-x="508" d="M497 746 L341 746 L248 580 L355 580 L497 746 Z M268 746 L112 746 L20 580 L127 580 L268 746 Z " />
<glyph glyph-name="Delta" unicode="&#x394;" horiz-adv-x="913" d="M863 0 L458 699 L55 0 L863 0 Z " />
<glyph glyph-name="Omega" unicode="&#x3a9;" horiz-adv-x="341" d="M320 315 L310 430 C265 420 241 417 206 417 C183 417 163 421 163 499 C163 577 184 584 206 584 C241 584 265 580 310 571 L320 685 C268 695 241 698 206 698 C75 698 30 614 30 500 C30 385 75 302 206 302 C241 302 268 306 320 315 L320 315 Z " />
<glyph glyph-name="mu" unicode="&#x3bc;" horiz-adv-x="512" d="M461 0 L461 491 L301 491 L301 138 C285 130 261 122 237 122 C221 122 216 133 216 146 L216 491 L55 491 L55 -212 L218 -212 L218 -6 C258 -5 292 2 329 17 L332 16 L338 0 L461 0 Z " />
<glyph glyph-name="pi" unicode="&#x3c0;" horiz-adv-x="735" d="M718 243 L718 269 L420 519 L263 519 L452 357 L508 311 L509 309 L36 309 L36 202 L509 203 L508 201 L452 156 L261 -9 L416 -9 L718 243 Z " />
<glyph glyph-name="endash" unicode="&#x2013;" horiz-adv-x="522" d="M485 220 L485 290 L36 290 L36 220 L485 220 Z " />
<glyph glyph-name="emdash" unicode="&#x2014;" horiz-adv-x="745" d="M701 220 L701 290 L44 290 L44 220 L701 220 Z " />
<glyph glyph-name="quoteleft" unicode="&#x2018;" horiz-adv-x="287" d="M229 707 L129 708 C102 666 74 605 55 559 L50 435 L189 435 L183 557 C192 590 216 677 229 707 L229 707 Z " />
<glyph glyph-name="quoteright" unicode="&#x2019;" horiz-adv-x="287" d="M237 697 L99 697 L104 576 C96 542 72 456 58 425 L158 425 C185 466 213 528 232 573 L237 697 Z " />
<glyph glyph-name="quotesinglbase" unicode="&#x201a;" horiz-adv-x="287" d="M237 145 L99 145 L104 24 C96 -10 72 -96 58 -127 L158 -127 C185 -86 213 -24 232 21 L237 145 Z " />
<glyph glyph-name="quotedblleft" unicode="&#x201c;" horiz-adv-x="499" d="M441 707 L341 708 C314 666 286 605 267 559 L262 435 L400 435 L395 557 C403 590 427 677 441 707 L441 707 Z M229 707 L129 708 C102 666 74 605 55 559 L50 435 L189 435 L183 557 C192 590 216 677 229 707 L229 707 Z " />
<glyph glyph-name="quotedblright" unicode="&#x201d;" horiz-adv-x="499" d="M449 697 L310 697 L316 576 C308 542 283 456 270 425 L370 425 C397 466 425 528 444 573 L449 697 Z M237 697 L99 697 L104 576 C96 542 72 456 58 425 L158 425 C185 466 213 528 232 573 L237 697 Z " />
<glyph glyph-name="quotedblbase" unicode="&#x201e;" horiz-adv-x="499" d="M449 145 L310 145 L316 24 C308 -9 283 -96 270 -127 L370 -127 C397 -85 425 -24 444 22 L449 145 Z M237 145 L99 145 L104 24 C96 -9 72 -96 58 -127 L158 -127 C185 -85 213 -24 232 22 L237 145 Z " />
<glyph glyph-name="dagger" unicode="&#x2020;" horiz-adv-x="515" d="M440 381 L440 468 L301 468 L301 748 L213 748 L213 468 L75 468 L75 381 L213 381 L213 -123 L301 -123 L301 381 L440 381 Z " />
<glyph glyph-name="daggerdbl" unicode="&#x2021;" horiz-adv-x="516" d="M441 381 L441 468 L302 468 L302 748 L214 748 L214 468 L77 468 L77 381 L214 381 L214 263 L75 263 L75 176 L214 176 L214 -123 L302 -123 L302 176 L440 176 L440 263 L302 263 L302 381 L441 381 Z " />
<glyph glyph-name="bullet" unicode="&#x2022;" horiz-adv-x="308" d="M253 354 C253 409 209 454 154 454 C99 454 54 409 54 354 C54 299 99 254 154 254 C209 254 253 299 253 354 L253 354 Z " />
<glyph glyph-name="ellipsis" unicode="&#x2026;" horiz-adv-x="850" d="M780 0 L780 146 L633 146 L633 0 L780 0 Z M498 0 L498 146 L352 146 L352 0 L498 0 Z M217 0 L217 146 L70 146 L70 0 L217 0 Z " />
<glyph glyph-name="perthousand" unicode="&#x2030;" horiz-adv-x="508" d="M849 145 C849 252 811 300 722 300 C633 300 595 252 595 145 C595 37 633 -9 722 -9 C811 -9 849 37 849 145 L849 145 Z M209 552 C209 659 170 707 81 707 C-8 707 -46 659 -46 552 C-46 444 -8 398 81 398 C170 398 209 444 209 552 L209 552 Z M463 753 L389 753 L46 -51 L121 -51 L463 753 Z M551 145 C551 252 513 300 424 300 C335 300 296 252 296 145 C296 37 335 -9 424 -9 C513 -9 551 37 551 145 L551 145 Z M782 145 C782 64 760 53 722 53 C684 53 662 65 662 145 C662 225 684 238 722 238 C760 238 782 225 782 145 L782 145 Z M141 552 C141 471 119 460 81 460 C43 460 22 472 22 552 C22 632 44 645 81 645 C119 645 141 632 141 552 L141 552 Z M483 145 C483 64 462 53 424 53 C386 53 364 65 364 145 C364 225 386 238 424 238 C462 238 483 225 483 145 L483 145 Z " />
<glyph glyph-name="guilsinglleft" unicode="&#x2039;" horiz-adv-x="378" d="M338 417 L194 417 L27 236 L27 215 L187 41 L330 41 L161 226 L338 417 Z " />
<glyph glyph-name="guilsinglright" unicode="&#x203a;" horiz-adv-x="378" d="M351 215 L351 236 L184 417 L40 417 L217 226 L48 41 L191 41 L351 215 Z " />
<glyph glyph-name="fraction" unicode="&#x2044;" horiz-adv-x="661" d="M671 807 L556 807 L23 -123 L136 -123 L671 807 Z " />
<glyph glyph-name="trademark" unicode="&#x2122;" horiz-adv-x="600" d="M552 432 L552 686 L460 686 L424 554 L414 501 L413 501 L403 554 L368 686 L275 686 L275 432 L341 432 L337 595 L338 594 L349 539 L383 432 L445 432 L479 537 L490 590 L492 592 L487 432 L552 432 Z M236 628 L236 688 L38 688 L38 628 L103 628 L103 433 L171 434 L171 628 L236 628 Z " />
<glyph glyph-name="partialdiff" unicode="&#x2202;" horiz-adv-x="532" d="M486 333 C486 417 478 543 399 622 C338 683 268 698 190 698 C163 698 146 696 81 685 L92 544 C127 549 157 552 182 552 C242 552 271 541 293 519 C313 499 322 473 321 426 L320 425 C298 438 275 442 251 442 C122 442 40 375 40 216 C40 58 130 -9 262 -9 C327 -9 362 6 408 52 C465 109 487 232 486 333 L486 333 Z M324 274 C324 237 320 196 306 166 C296 145 276 134 259 134 C224 134 193 141 193 213 C193 294 226 300 256 300 C287 300 304 290 324 274 L324 274 Z " />
<glyph glyph-name="product" unicode="&#x220f;" horiz-adv-x="735" d="M699 202 L699 309 L227 309 L227 311 L284 357 L473 519 L316 519 L17 269 L17 243 L319 -9 L475 -9 L284 156 L227 201 L227 203 L699 202 Z " />
<glyph glyph-name="summation" unicode="&#x2211;" horiz-adv-x="831" d="M771 344 C771 539 613 697 418 697 C223 697 65 539 65 344 C65 149 223 -9 418 -9 C613 -9 771 149 771 344 L771 344 Z " />
<glyph glyph-name="minus" unicode="&#x2212;" horiz-adv-x="425" d="M381 220 L381 290 L44 290 L44 220 L381 220 Z " />
<glyph glyph-name="radical" unicode="&#x221a;" horiz-adv-x="856" d="M776 -1 L776 689 L86 689 L86 -1 L776 -1 Z M683 92 L178 92 L178 596 L683 596 L683 92 Z M603 453 L538 518 L432 411 L325 518 L260 453 L367 347 L260 240 L325 175 L432 282 L538 175 L603 240 L496 347 L603 453 Z " />
<glyph glyph-name="infinity" unicode="&#x221e;" horiz-adv-x="733" d="M689 252 C689 340 618 416 528 416 C455 416 405 371 366 323 C326 372 279 416 206 416 C115 416 44 340 44 252 C44 163 117 91 206 91 C278 91 328 136 367 184 C406 136 454 91 528 91 C617 91 689 163 689 252 L689 252 Z M604 252 C604 210 570 176 528 176 C492 176 458 208 420 254 C456 300 487 331 528 331 C568 331 604 295 604 252 L604 252 Z M313 254 C277 207 246 176 206 176 C164 176 130 210 130 252 C130 295 165 331 206 331 C228 331 247 322 268 304 C284 290 298 273 313 254 L313 254 Z " />
<glyph glyph-name="integral" unicode="&#x222b;" horiz-adv-x="515" d="M457 588 L431 666 L293 612 L299 748 L218 748 L223 613 L84 666 L58 588 L205 550 L109 432 L176 384 L256 512 L339 384 L406 432 L312 549 L457 588 Z M293 554 L257 529 L222 555 L234 595 L280 596 L293 554 Z " />
<glyph glyph-name="approxequal" unicode="&#x2248;" horiz-adv-x="572" d="M509 299 L503 373 C463 352 419 342 389 342 C321 342 256 364 187 364 C154 364 100 357 62 336 L68 262 C113 285 149 294 184 294 C246 294 313 274 375 274 C405 274 475 283 509 299 L509 299 Z M509 170 L503 243 C463 223 419 213 389 213 C321 213 256 235 187 235 C154 235 100 227 62 207 L68 133 C113 156 149 165 184 165 C246 165 313 144 375 144 C405 144 475 153 509 170 L509 170 Z " />
<glyph glyph-name="notequal" unicode="&#x2260;" horiz-adv-x="855" d="M775 0 L775 689 L86 689 L86 0 L775 0 Z " />
<glyph glyph-name="lessequal" unicode="&#x2264;" horiz-adv-x="468" d="M441 72 L441 157 L174 267 L128 283 L174 301 L440 410 L441 495 L41 318 L41 249 L441 72 Z M441 -1 L441 69 L40 69 L40 -1 L441 -1 Z " />
<glyph glyph-name="greaterequal" unicode="&#x2265;" horiz-adv-x="468" d="M427 249 L427 318 L27 495 L27 410 L294 301 L340 283 L294 267 L27 157 L27 72 L427 249 Z M428 -1 L428 69 L27 69 L27 -1 L428 -1 Z " />
<glyph glyph-name="lozenge" unicode="&#x25ca;" horiz-adv-x="834" d="M774 346 L420 700 L65 346 L420 -9 L774 346 Z " />
<glyph glyph-name="fi" unicode="&#xfb01;" horiz-adv-x="666" d="M611 0 L611 512 L451 512 L451 0 L611 0 Z M378 378 L378 512 L55 512 L55 0 L215 0 L215 182 L316 182 L316 316 L215 316 L215 378 L378 378 Z " />
<glyph glyph-name="fl" unicode="&#xfb02;" horiz-adv-x="781" d="M785 0 L785 134 L607 134 L607 512 L448 512 L448 0 L785 0 Z M378 378 L378 512 L55 512 L55 0 L215 0 L215 182 L316 182 L316 316 L215 316 L215 378 L378 378 Z " />
</font>
</svg>
