<?xml version="1.0" encoding="UTF-8"?>
<svg xmlns="http://www.w3.org/2000/svg" xmlns:xlink="http://www.w3.org/1999/xlink" version="1.2" >
<font id="Section-Black">
<font-face  font-family="Section" units-per-em="1000" ascent="800" descent="-200" font-style="normal" font-weight="900" font-stretch="normal" cap-height="689" x-height="489" underline-position="-143" underline-thickness="20" />
<missing-glyph  horiz-adv-x="1000" d="" />
<glyph glyph-name="NULL" horiz-adv-x="242" d="" />
<glyph glyph-name="CR" unicode="&#xd;" horiz-adv-x="242" d="" />
<glyph glyph-name="space" unicode="&#x20;" horiz-adv-x="201" d="" />
<glyph glyph-name="exclam" unicode="&#x21;" horiz-adv-x="379" d="M276 689 L102 689 L107 249 L269 249 L276 689 Z M279 0 L279 158 L101 158 L101 0 L279 0 Z " />
<glyph glyph-name="quotedbl" unicode="&#x22;" horiz-adv-x="372" d="M313 689 L211 689 L222 464 L301 464 L313 689 Z M161 689 L58 689 L70 464 L149 464 L161 689 Z " />
<glyph glyph-name="numbersign" unicode="&#x23;" horiz-adv-x="581" d="M538 391 L443 391 L471 519 L397 519 L370 391 L270 391 L297 519 L223 519 L196 391 L103 391 L87 318 L180 318 L152 183 L59 183 L43 110 L136 110 L109 -19 L183 -19 L210 110 L310 110 L283 -19 L356 -19 L384 110 L478 110 L494 183 L399 183 L428 318 L522 318 L538 391 Z M354 318 L325 183 L226 183 L254 318 L354 318 Z " />
<glyph glyph-name="dollar" unicode="&#x24;" horiz-adv-x="444" d="M404 128 C404 184 377 222 337 256 L219 356 C209 364 205 369 205 377 C205 386 211 392 227 392 C271 392 311 387 369 370 L380 507 C330 515 293 518 257 519 L257 625 L190 625 L190 517 C114 510 45 478 45 391 C45 349 59 304 105 264 L227 159 C236 151 242 143 242 136 C242 123 226 120 212 120 C182 120 131 127 63 141 L52 4 C117 -6 161 -8 190 -8 L190 -132 L257 -132 L257 -6 C333 4 404 39 404 128 L404 128 Z " />
<glyph glyph-name="percent" unicode="&#x25;" horiz-adv-x="764" d="M702 134 C702 242 664 289 575 289 C486 289 447 242 447 135 C447 27 486 -19 575 -19 C664 -19 702 27 702 134 L702 134 Z M609 567 L534 567 L151 -73 L226 -73 L609 567 Z M317 364 C317 472 279 519 190 519 C101 519 62 472 62 364 C62 257 97 211 185 211 C274 211 317 257 317 364 L317 364 Z M634 134 C634 54 613 43 575 43 C537 43 515 54 515 135 C515 215 537 227 575 227 C612 227 634 215 634 134 L634 134 Z M249 364 C249 284 223 273 185 273 C148 273 130 284 130 364 C130 445 152 457 190 457 C228 457 249 445 249 364 L249 364 Z " />
<glyph glyph-name="ampersand" unicode="&#x26;" horiz-adv-x="625" d="M610 7 L592 140 C560 127 548 127 537 127 C530 127 522 132 508 143 C532 188 550 240 561 291 L431 331 C425 298 418 267 409 240 C383 270 356 301 331 335 L331 337 C376 376 427 446 427 525 C427 625 391 698 261 698 C129 698 97 619 97 521 C97 465 116 412 156 355 L156 354 C100 313 60 258 60 180 C60 91 104 -9 264 -9 C325 -9 378 9 419 38 C455 11 493 -7 529 -7 C552 -7 564 -4 610 7 L610 7 Z M290 526 C290 474 277 459 260 438 C242 466 233 495 233 524 C233 570 247 573 264 573 C278 573 290 569 290 526 L290 526 Z M325 127 C310 116 286 112 264 112 C224 112 202 143 202 182 C202 210 212 229 229 243 C255 207 287 170 325 127 L325 127 Z " />
<glyph glyph-name="quotesingle" unicode="&#x27;" horiz-adv-x="219" d="M161 689 L58 689 L70 464 L149 464 L161 689 Z " />
<glyph glyph-name="parenleft" unicode="&#x28;" horiz-adv-x="334" d="M294 806 L131 806 C84 679 56 511 55 343 C55 174 83 6 131 -122 L293 -122 C249 11 226 176 226 341 C226 506 249 672 294 806 L294 806 Z " />
<glyph glyph-name="parenright" unicode="&#x29;" horiz-adv-x="334" d="M279 343 C279 511 250 679 203 806 L40 806 C85 672 108 506 108 341 C108 176 86 11 41 -122 L204 -122 C251 6 279 174 279 343 L279 343 Z " />
<glyph glyph-name="asterisk" unicode="&#x2a;" horiz-adv-x="515" d="M457 588 L431 666 L293 612 L299 748 L218 748 L223 613 L84 666 L58 588 L205 550 L109 432 L176 384 L256 512 L339 384 L406 432 L312 549 L457 588 Z " />
<glyph glyph-name="plus" unicode="&#x2b;" horiz-adv-x="535" d="M491 220 L491 290 L302 290 L302 479 L232 479 L232 290 L44 290 L44 220 L232 220 L232 31 L302 31 L302 220 L491 220 Z " />
<glyph glyph-name="comma" unicode="&#x2c;" horiz-adv-x="283" d="M227 145 L79 145 L84 24 C76 -10 52 -96 38 -127 L149 -127 C176 -86 204 -24 223 21 L227 145 Z " />
<glyph glyph-name="hyphen" unicode="&#x2d;" horiz-adv-x="335" d="M292 209 L292 300 L43 300 L43 209 L292 209 Z " />
<glyph glyph-name="period" unicode="&#x2e;" horiz-adv-x="287" d="M217 0 L217 146 L70 146 L70 0 L217 0 Z " />
<glyph glyph-name="slash" unicode="&#x2f;" horiz-adv-x="382" d="M392 807 L291 807 L23 -122 L125 -122 L392 807 Z " />
<glyph glyph-name="zero" unicode="0" horiz-adv-x="520" d="M480 255 C480 416 427 519 260 519 C93 519 40 416 40 255 C40 93 94 -9 260 -9 C427 -9 480 93 480 255 L480 255 Z M317 255 C317 144 302 125 260 125 C218 125 203 144 203 255 C203 368 220 385 260 385 C301 385 317 368 317 255 L317 255 Z " />
<glyph glyph-name="one" unicode="1" horiz-adv-x="381" d="M300 0 L300 509 L30 509 L30 376 L140 376 L140 0 L300 0 Z " />
<glyph glyph-name="two" unicode="2" horiz-adv-x="476" d="M426 0 L426 129 L292 129 L218 125 L218 127 L281 172 L350 230 C388 262 423 296 423 363 C423 473 357 519 213 519 C190 519 128 517 56 506 L67 364 C142 378 187 381 211 381 C239 381 262 380 262 353 C262 332 249 322 218 295 L40 137 L40 0 L426 0 Z " />
<glyph glyph-name="three" unicode="3" horiz-adv-x="437" d="M402 33 C402 103 357 160 319 183 L319 185 C366 227 389 272 389 326 C389 476 305 519 182 519 C159 519 97 517 25 506 L37 364 C87 373 125 379 175 379 C219 379 232 348 232 319 C232 280 225 244 174 244 L97 244 L97 105 L175 105 C214 105 244 90 244 33 C244 -11 224 -49 181 -49 C155 -49 102 -46 26 -26 L15 -164 C88 -181 131 -185 188 -185 C330 -185 402 -98 402 33 L402 33 Z " />
<glyph glyph-name="four" unicode="4" horiz-adv-x="552" d="M542 0 L542 138 L438 138 L439 295 L306 295 L285 135 L204 135 L204 137 L223 182 L341 509 L173 509 L40 146 L40 0 L278 0 L278 -180 L439 -180 L439 0 L542 0 Z " />
<glyph glyph-name="five" unicode="5" horiz-adv-x="489" d="M454 33 C454 174 382 249 242 249 L220 249 L220 370 L416 370 L416 509 L65 509 L65 117 L229 117 C269 117 295 97 295 31 C295 -28 262 -50 227 -50 C201 -50 148 -49 71 -30 L60 -168 C133 -185 176 -189 233 -189 C375 -189 454 -98 454 33 L454 33 Z " />
<glyph glyph-name="six" unicode="6" horiz-adv-x="532" d="M491 216 C491 375 410 442 280 442 C256 442 233 438 211 425 L210 426 C209 473 218 499 239 519 C261 541 290 552 349 552 C375 552 404 549 439 544 L450 685 C385 696 369 698 342 698 C263 698 193 683 133 622 C54 543 46 417 45 333 C45 232 67 109 124 52 C170 6 204 -9 270 -9 C401 -9 491 58 491 216 L491 216 Z M339 213 C339 141 307 134 273 134 C255 134 235 145 226 166 C212 196 207 237 207 274 C228 290 245 300 276 300 C306 300 339 294 339 213 L339 213 Z " />
<glyph glyph-name="seven" unicode="7" horiz-adv-x="466" d="M436 413 L436 509 L20 509 L20 370 L252 370 L252 368 L212 268 L42 -180 L213 -180 L436 413 Z " />
<glyph glyph-name="eight" unicode="8" horiz-adv-x="525" d="M480 206 C480 268 446 326 409 356 L409 358 C451 404 467 452 467 505 C467 656 378 697 263 697 C147 697 58 656 58 505 C58 452 74 404 116 358 L116 356 C79 326 45 268 45 206 C45 60 109 -9 262 -9 C416 -9 480 60 480 206 L480 206 Z M312 507 C312 444 300 429 262 429 C225 429 213 444 213 507 C213 557 231 570 263 570 C295 570 312 557 312 507 L312 507 Z M324 207 C324 133 301 119 262 119 C224 119 202 133 202 207 C202 272 218 296 263 296 C307 296 324 272 324 207 L324 207 Z " />
<glyph glyph-name="nine" unicode="9" horiz-adv-x="522" d="M476 178 C477 278 455 402 398 459 C352 505 317 519 252 519 C120 519 30 453 30 295 C30 136 112 68 241 68 C265 68 288 73 310 85 L311 85 C312 38 303 12 283 -8 C261 -30 231 -42 172 -42 C147 -42 117 -39 82 -33 L71 -175 C136 -185 153 -187 180 -187 C258 -187 328 -172 389 -112 C468 -32 476 94 476 178 L476 178 Z M314 236 C294 221 277 211 246 211 C216 211 183 217 183 298 C183 369 214 377 249 377 C266 377 286 366 296 345 C310 314 314 273 314 236 L314 236 Z " />
<glyph glyph-name="colon" unicode="&#x3a;" horiz-adv-x="317" d="M232 230 L232 376 L86 376 L86 230 L232 230 Z M232 0 L232 146 L86 146 L86 0 L232 0 Z " />
<glyph glyph-name="semicolon" unicode="&#x3b;" horiz-adv-x="330" d="M243 230 L243 376 L97 376 L97 230 L243 230 Z M245 145 L96 145 L101 24 C93 -10 69 -96 55 -127 L166 -127 C193 -86 221 -24 240 21 L245 145 Z " />
<glyph glyph-name="less" unicode="&#x3c;" horiz-adv-x="488" d="M448 42 L448 130 L181 239 L141 253 L181 268 L447 377 L448 465 L48 288 L49 219 L448 42 Z " />
<glyph glyph-name="equal" unicode="&#x3d;" horiz-adv-x="534" d="M481 285 L481 355 L52 355 L52 285 L481 285 Z M481 156 L481 226 L52 226 L52 156 L481 156 Z " />
<glyph glyph-name="greater" unicode="&#x3e;" horiz-adv-x="488" d="M440 288 L41 465 L41 377 L307 268 L347 253 L307 239 L41 130 L40 42 L440 219 L440 288 Z " />
<glyph glyph-name="question" unicode="&#x3f;" horiz-adv-x="392" d="M382 560 C382 690 259 698 185 698 C155 698 101 697 32 686 L43 545 C99 554 159 567 190 567 C227 567 233 561 233 547 C233 536 227 529 211 519 C131 466 60 450 60 332 C60 283 81 237 106 196 L242 260 C214 311 220 298 220 298 C214 309 212 321 212 331 C212 355 255 382 274 393 C337 431 382 471 382 560 L382 560 Z M258 1 L258 158 L80 158 L80 1 L258 1 Z " />
<glyph glyph-name="at" unicode="&#x40;" horiz-adv-x="854" d="M790 233 C790 507 697 642 429 642 C158 642 54 506 54 231 C54 -43 151 -177 419 -177 C485 -177 547 -162 623 -127 L580 -31 C516 -65 469 -74 419 -74 C235 -74 160 -7 160 231 C160 469 235 540 429 540 C621 540 686 472 686 233 L686 187 C685 154 672 91 624 91 C577 91 568 150 587 231 L629 417 C516 467 409 501 309 406 C275 373 237 310 219 242 C193 144 186 -2 331 -2 C402 -2 448 44 484 92 C500 38 546 -6 625 -6 C761 -6 790 128 790 233 L790 233 Z M497 351 L480 278 C467 221 408 104 352 104 C300 104 318 171 336 230 C350 277 376 318 390 333 C408 351 425 360 451 360 C464 360 472 359 479 357 L497 351 Z " />
<glyph glyph-name="A" unicode="A" horiz-adv-x="617" d="M602 0 L407 696 L209 696 L15 0 L187 0 L219 122 L395 122 L425 0 L602 0 Z M363 260 L252 260 L289 423 L306 512 L308 512 L326 424 L363 260 Z " />
<glyph glyph-name="B" unicode="B" horiz-adv-x="550" d="M519 204 C519 258 492 332 439 359 L439 361 C486 392 507 446 507 494 C507 563 495 611 461 646 C431 675 391 690 321 690 L65 690 L66 0 L318 0 C383 0 439 12 469 42 C510 84 519 141 519 204 L519 204 Z M350 488 C350 438 334 415 298 415 L232 416 L231 553 L304 553 C331 553 350 542 350 488 L350 488 Z M360 216 C360 152 341 142 309 142 L231 142 L232 290 L310 290 C344 290 360 271 360 216 L360 216 Z " />
<glyph glyph-name="C" unicode="C" horiz-adv-x="530" d="M510 9 L497 157 C429 144 391 138 339 138 C249 138 215 164 215 344 C215 526 249 552 339 552 C391 552 429 545 497 532 L510 680 C442 691 398 698 332 698 C231 698 167 681 119 633 C61 575 40 477 40 346 C40 215 61 114 119 56 C167 8 231 -9 332 -9 C398 -9 442 -2 510 9 L510 9 Z " />
<glyph glyph-name="D" unicode="D" horiz-adv-x="610" d="M569 345 C569 466 557 572 494 635 C435 694 368 689 280 689 L65 689 L65 0 L280 0 C368 0 435 -5 494 54 C557 117 569 225 569 345 L569 345 Z M397 344 C397 239 387 188 362 163 C345 146 306 146 277 146 L232 146 L232 543 L277 543 C306 543 345 544 362 526 C387 501 397 449 397 344 L397 344 Z " />
<glyph glyph-name="E" unicode="E" horiz-adv-x="503" d="M486 0 L486 144 L231 144 L231 283 L399 283 L399 427 L231 427 L231 545 L486 545 L486 689 L65 689 L65 0 L486 0 Z " />
<glyph glyph-name="F" unicode="F" horiz-adv-x="482" d="M486 545 L486 689 L65 689 L65 0 L231 0 L231 283 L399 283 L399 427 L231 427 L231 545 L486 545 Z " />
<glyph glyph-name="G" unicode="G" horiz-adv-x="608" d="M562 340 L397 340 L397 142 C376 139 367 137 348 137 C301 137 280 145 259 163 C230 188 213 234 213 343 C213 522 254 552 348 552 C401 552 437 547 519 533 L531 680 C456 691 402 697 337 697 C114 697 40 582 40 344 C40 124 103 -9 341 -9 C408 -9 503 6 562 24 L562 340 Z " />
<glyph glyph-name="H" unicode="H" horiz-adv-x="645" d="M579 0 L579 689 L414 689 L414 427 L231 427 L231 689 L65 689 L65 0 L231 0 L231 283 L414 283 L414 0 L579 0 Z " />
<glyph glyph-name="I" unicode="I" horiz-adv-x="301" d="M235 0 L235 689 L65 689 L65 0 L235 0 Z " />
<glyph glyph-name="J" unicode="J" horiz-adv-x="397" d="M336 689 L168 689 L167 191 C167 151 164 136 133 136 C102 136 81 139 9 149 L0 5 C69 -5 112 -9 147 -9 C220 -9 268 -1 296 26 C327 58 336 114 336 190 L336 689 Z " />
<glyph glyph-name="K" unicode="K" horiz-adv-x="579" d="M585 0 L370 394 L556 689 L365 689 L229 455 L227 455 L228 689 L65 689 L65 0 L228 0 L227 173 L274 248 L276 248 L398 0 L585 0 Z " />
<glyph glyph-name="L" unicode="L" horiz-adv-x="473" d="M477 0 L477 144 L235 144 L235 689 L65 689 L65 0 L477 0 Z " />
<glyph glyph-name="M" unicode="M" horiz-adv-x="891" d="M825 0 L825 689 L572 689 L472 285 L452 184 L450 184 L430 285 L321 689 L65 689 L65 0 L229 0 L226 484 L227 484 L254 358 L352 0 L540 0 L639 360 L665 481 L667 481 L663 0 L825 0 Z " />
<glyph glyph-name="N" unicode="N" horiz-adv-x="688" d="M623 0 L623 689 L469 689 L474 194 L472 195 L445 288 L282 689 L65 689 L65 0 L219 0 L214 479 L216 478 L244 384 L406 0 L623 0 Z " />
<glyph glyph-name="O" unicode="O" horiz-adv-x="648" d="M608 345 C608 483 587 577 530 634 C486 679 420 698 325 698 C229 698 162 679 118 634 C61 577 40 482 40 344 C40 207 61 113 118 56 C162 11 229 -9 325 -9 C420 -9 486 11 530 56 C587 113 608 207 608 345 L608 345 Z M438 346 C438 154 411 137 324 137 C236 137 211 153 211 344 C211 535 236 552 324 552 C411 552 438 537 438 346 L438 346 Z " />
<glyph glyph-name="P" unicode="P" horiz-adv-x="532" d="M517 461 C517 532 501 608 462 647 C427 681 368 689 300 689 L65 689 L66 0 L230 0 L230 233 L301 233 C365 233 421 234 456 267 C502 310 517 395 517 461 L517 461 Z M354 461 C354 401 345 369 302 369 L230 369 L230 553 L302 553 C344 553 354 516 354 461 L354 461 Z " />
<glyph glyph-name="Q" unicode="Q" horiz-adv-x="640" d="M650 -197 L640 -60 C579 -77 578 -80 550 -80 C519 -80 490 -58 464 -44 C441 -30 414 -16 382 -7 L382 -5 C447 1 495 20 530 56 C587 113 608 207 608 345 C608 483 587 577 530 634 C486 679 420 698 325 698 C229 698 162 679 118 634 C61 577 40 482 40 344 C40 207 61 113 118 56 C152 22 198 2 260 -5 L260 -6 C222 -14 185 -27 147 -44 L166 -183 C238 -148 289 -134 324 -134 C360 -134 390 -155 420 -172 C454 -193 494 -215 550 -215 C573 -215 599 -210 650 -197 L650 -197 Z M438 346 C438 154 411 137 324 137 C236 137 211 153 211 344 C211 535 236 552 324 552 C411 552 438 537 438 346 L438 346 Z " />
<glyph glyph-name="R" unicode="R" horiz-adv-x="548" d="M522 0 L416 260 L416 260 C507 293 518 397 518 489 C518 561 505 608 466 647 C431 681 374 689 306 689 L65 689 L66 0 L227 0 L227 249 L257 249 L296 135 L347 0 L522 0 Z M355 469 C355 409 346 381 303 381 L230 381 L230 557 L302 556 C344 556 355 524 355 469 L355 469 Z " />
<glyph glyph-name="S" unicode="S" horiz-adv-x="476" d="M459 168 C459 239 431 298 373 343 L223 462 C203 478 182 490 182 515 C182 544 201 554 238 554 C291 554 329 548 413 538 L424 688 C347 695 306 698 244 698 C122 698 17 654 17 527 C17 459 37 394 102 345 L243 236 C269 217 293 205 293 176 C293 138 248 136 221 136 C180 136 127 139 39 151 L28 1 C115 -10 179 -10 218 -10 C343 -10 459 32 459 168 L459 168 Z " />
<glyph glyph-name="T" unicode="T" horiz-adv-x="512" d="M506 545 L506 689 L6 689 L6 545 L172 545 L172 0 L342 0 L342 545 L506 545 Z " />
<glyph glyph-name="U" unicode="U" horiz-adv-x="616" d="M560 209 L560 689 L395 689 L395 224 C395 156 356 138 308 138 C259 138 221 156 221 224 L221 689 L55 689 L55 209 C55 31 209 -9 308 -9 C408 -9 560 31 560 209 L560 209 Z " />
<glyph glyph-name="V" unicode="V" horiz-adv-x="617" d="M600 689 L422 690 L334 311 L313 183 L311 183 L290 310 L198 689 L17 689 L213 -3 L404 -3 L600 689 Z " />
<glyph glyph-name="W" unicode="W" horiz-adv-x="927" d="M899 689 L727 689 L672 309 L662 194 L661 194 L646 307 L568 689 L363 689 L293 302 L281 196 L280 196 L270 303 L203 689 L27 689 L170 0 L367 0 L449 407 L463 505 L465 505 L479 409 L563 0 L761 0 L899 689 Z " />
<glyph glyph-name="X" unicode="X" horiz-adv-x="650" d="M630 0 L426 347 L630 689 L437 689 L325 481 L214 689 L20 689 L225 347 L20 0 L214 0 L326 208 L437 0 L630 0 Z " />
<glyph glyph-name="Y" unicode="Y" horiz-adv-x="603" d="M593 689 L403 689 L338 525 L302 428 L301 428 L267 525 L197 689 L10 689 L218 271 L218 0 L384 0 L384 271 L593 689 Z " />
<glyph glyph-name="Z" unicode="Z" horiz-adv-x="527" d="M505 593 L504 689 L23 689 L23 542 L220 542 L290 544 L290 542 L217 430 L23 97 L22 0 L504 0 L504 147 L306 147 L241 146 L241 148 L311 256 L505 593 Z " />
<glyph glyph-name="bracketleft" unicode="&#x5b;" horiz-adv-x="346" d="M324 -122 L324 20 L236 20 L236 665 L324 665 L324 807 L70 807 L70 -122 L324 -122 Z " />
<glyph glyph-name="backslash" unicode="&#x5c;" horiz-adv-x="382" d="M359 -122 L92 807 L-10 807 L258 -122 L359 -122 Z " />
<glyph glyph-name="bracketright" unicode="&#x5d;" horiz-adv-x="346" d="M276 -122 L276 807 L22 807 L22 665 L110 665 L110 20 L22 20 L22 -122 L276 -122 Z " />
<glyph glyph-name="asciicircum" unicode="&#x5e;" horiz-adv-x="540" d="M498 233 L304 690 L237 690 L42 233 L138 233 L255 513 L271 557 L287 514 L402 233 L498 233 Z " />
<glyph glyph-name="underscore" unicode="&#x5f;" horiz-adv-x="719" d="M721 -69 L721 0 L-2 0 L-2 -69 L721 -69 Z " />
<glyph glyph-name="grave" unicode="&#x60;" horiz-adv-x="508" d="M337 560 L245 726 L89 726 L230 560 L337 560 Z " />
<glyph glyph-name="a" unicode="a" horiz-adv-x="458" d="M412 373 C412 481 310 499 218 499 C148 499 104 488 60 476 L72 353 C129 369 173 380 210 380 C252 380 258 365 258 351 L259 315 C138 309 25 292 25 150 C25 107 38 60 64 35 C94 5 125 -10 171 -10 C211 -10 256 6 279 20 L281 20 L288 0 L412 0 L412 373 Z M258 209 L258 117 C247 114 239 110 213 110 C187 110 177 141 177 157 C177 174 182 185 190 193 C202 205 235 209 258 209 L258 209 Z " />
<glyph glyph-name="b" unicode="b" horiz-adv-x="507" d="M477 246 C477 394 445 498 305 498 C272 498 249 498 219 482 L216 482 L216 720 L55 720 L55 0 L179 0 L185 14 L187 14 C221 -3 266 -9 294 -9 C443 -9 477 128 477 246 L477 246 Z M316 248 C316 153 297 125 248 125 C227 125 222 129 216 133 L216 360 C224 364 237 368 258 368 C297 368 316 338 316 248 L316 248 Z " />
<glyph glyph-name="c" unicode="c" horiz-adv-x="420" d="M400 5 L389 140 C334 131 298 125 267 125 C219 125 192 144 192 245 C192 344 220 365 267 365 C298 365 339 359 389 350 L400 486 C328 497 287 499 257 499 C93 499 30 410 30 245 C30 79 94 -9 257 -9 C287 -9 328 -6 400 5 L400 5 Z " />
<glyph glyph-name="d" unicode="d" horiz-adv-x="507" d="M451 0 L451 720 L289 720 L289 494 L287 494 C270 497 267 499 244 499 C77 499 30 403 30 242 C30 94 81 -9 202 -9 C257 -9 293 4 319 20 L321 20 L328 0 L451 0 Z M291 131 C282 125 270 122 249 122 C210 122 191 152 191 242 C191 337 210 370 259 370 C280 370 284 367 291 365 L291 131 Z " />
<glyph glyph-name="e" unicode="e" horiz-adv-x="464" d="M434 200 L434 278 C434 395 400 499 244 499 C93 499 30 406 30 244 C30 78 94 -9 257 -9 C310 -9 344 -3 421 12 L411 143 C370 132 317 120 261 120 C215 120 194 142 192 200 L434 200 Z M295 310 L192 310 C194 355 199 394 244 394 C288 394 291 356 295 310 L295 310 Z " />
<glyph glyph-name="f" unicode="f" horiz-adv-x="412" d="M412 706 C373 718 320 730 260 730 C147 730 98 676 97 579 L97 484 L25 474 L25 349 L97 349 L97 0 L257 0 L257 349 L377 349 L377 489 L257 489 L257 556 C257 583 265 588 285 588 C334 588 341 580 400 563 L412 706 Z " />
<glyph glyph-name="g" unicode="g" horiz-adv-x="526" d="M516 376 L507 499 C446 489 401 483 367 483 C346 484 336 486 309 491 C288 495 262 499 236 499 C114 499 36 445 36 301 C36 221 57 169 96 140 L96 138 C67 111 46 80 46 47 C46 26 50 8 72 -6 L71 -9 C47 -30 30 -54 30 -95 C30 -217 114 -238 230 -238 C361 -238 476 -202 476 -60 C476 19 431 69 309 69 L213 69 C204 69 205 83 211 91 L221 104 L232 104 C356 104 433 156 433 300 C433 323 430 345 425 362 L425 365 C452 365 480 367 516 376 L516 376 Z M292 304 C292 251 272 233 236 233 C200 233 182 251 182 304 C182 361 201 377 237 377 C273 377 292 361 292 304 L292 304 Z M324 -63 C324 -108 276 -111 236 -111 C218 -111 195 -110 184 -99 C178 -93 175 -86 175 -75 C175 -60 184 -52 194 -46 L300 -46 C316 -46 324 -58 324 -63 L324 -63 Z " />
<glyph glyph-name="h" unicode="h" horiz-adv-x="511" d="M466 363 C466 469 404 498 312 498 C278 498 236 486 218 476 L216 476 L216 720 L55 720 L55 0 L216 0 L215 352 C235 362 256 369 280 369 C296 369 305 357 305 345 L305 0 L466 0 L466 363 Z " />
<glyph glyph-name="i" unicode="i" horiz-adv-x="279" d="M228 554 L228 708 L50 708 L50 554 L228 554 Z M220 0 L220 489 L60 489 L60 0 L220 0 Z " />
<glyph glyph-name="j" unicode="j" horiz-adv-x="284" d="M234 554 L234 708 L56 708 L56 554 L234 554 Z M225 -48 L225 489 L65 489 L65 -39 C65 -71 69 -88 32 -88 C3 -88 -23 -84 -60 -75 L-70 -226 C-6 -237 16 -240 49 -240 C200 -240 225 -181 225 -48 L225 -48 Z " />
<glyph glyph-name="k" unicode="k" horiz-adv-x="509" d="M509 0 L338 289 L492 490 L300 490 L243 405 L217 359 L215 359 L217 465 L217 720 L55 720 L56 0 L217 0 L217 140 L237 163 L271 102 L326 0 L509 0 Z " />
<glyph glyph-name="l" unicode="l" horiz-adv-x="272" d="M217 0 L217 720 L55 720 L57 0 L217 0 Z " />
<glyph glyph-name="m" unicode="m" horiz-adv-x="727" d="M681 363 C681 469 623 498 532 498 C486 498 445 486 410 465 C384 489 345 498 297 498 C255 498 207 479 183 463 L180 464 L173 490 L50 490 L50 0 L211 0 L210 351 C228 360 240 367 264 367 C279 367 285 358 285 344 L285 0 L446 0 L445 351 C463 360 475 367 499 367 C515 367 521 358 521 344 L521 0 L681 0 L681 363 Z " />
<glyph glyph-name="n" unicode="n" horiz-adv-x="506" d="M461 363 C461 469 393 498 301 498 C255 498 212 482 182 464 L181 464 L174 490 L50 490 L50 0 L211 0 L210 353 C227 361 251 369 275 369 C290 369 300 358 300 345 L300 0 L461 0 L461 363 Z " />
<glyph glyph-name="o" unicode="o" horiz-adv-x="513" d="M483 244 C483 408 421 499 257 499 C93 499 30 409 30 244 C30 79 94 -9 257 -9 C420 -9 483 79 483 244 L483 244 Z M322 244 C322 143 303 123 257 123 C210 123 193 142 193 244 C193 345 210 364 257 364 C303 364 322 345 322 244 L322 244 Z " />
<glyph glyph-name="p" unicode="p" horiz-adv-x="507" d="M476 256 C476 403 425 498 305 498 C262 498 227 493 188 470 L186 470 L179 490 L55 490 L55 -232 L218 -232 L218 -4 L219 -4 C237 -8 239 -9 263 -9 C430 -9 476 95 476 256 L476 256 Z M315 256 C315 161 297 120 248 120 C227 120 223 123 216 125 L216 359 C225 365 236 368 257 368 C297 368 315 346 315 256 L315 256 Z " />
<glyph glyph-name="q" unicode="q" horiz-adv-x="507" d="M451 490 L328 490 L322 476 L321 476 C287 493 241 499 213 499 C64 499 30 370 30 251 C30 104 62 -7 202 -7 C235 -7 258 -8 288 8 L291 8 L290 -232 L451 -232 L451 490 Z M291 130 C283 126 270 122 249 122 C210 122 191 158 191 248 C191 343 210 366 259 366 C280 366 284 361 291 358 L291 130 Z " />
<glyph glyph-name="r" unicode="r" horiz-adv-x="349" d="M343 490 C323 495 301 499 274 499 C239 499 208 487 183 447 L180 447 L175 490 L50 490 L50 0 L211 0 L211 316 C222 338 247 353 267 353 C286 353 311 348 331 340 L343 490 Z " />
<glyph glyph-name="s" unicode="s" horiz-adv-x="411" d="M386 137 C386 213 342 247 317 266 L204 346 C194 353 191 354 191 364 C192 376 200 378 216 378 C248 378 290 369 348 357 L359 487 C288 498 247 499 217 499 C128 499 30 468 30 361 C30 284 77 242 113 219 L207 160 C217 153 226 149 226 135 C226 122 212 116 192 116 C161 116 130 123 56 134 L46 3 C117 -8 162 -9 192 -9 C277 -9 386 30 386 137 L386 137 Z " />
<glyph glyph-name="t" unicode="t" horiz-adv-x="397" d="M374 352 L374 489 L255 489 L254 628 L94 628 L94 484 L22 475 L22 352 L94 352 L94 104 C94 37 130 -9 214 -9 C244 -9 274 -6 346 6 L335 145 C320 141 284 131 268 131 C258 131 255 135 255 154 L255 352 L374 352 Z " />
<glyph glyph-name="u" unicode="u" horiz-adv-x="506" d="M455 0 L455 490 L295 490 L295 137 C279 129 255 121 231 121 C215 121 205 132 205 145 L205 490 L45 490 L45 127 C45 21 113 -8 204 -8 C251 -8 293 8 323 26 L325 26 L332 0 L455 0 Z " />
<glyph glyph-name="v" unicode="v" horiz-adv-x="485" d="M485 490 L317 489 L270 264 L249 132 L248 132 L224 264 L173 489 L0 490 L150 -6 L336 -6 L485 490 Z " />
<glyph glyph-name="w" unicode="w" horiz-adv-x="723" d="M711 490 L549 490 L517 267 L507 150 L506 150 L492 267 L451 490 L281 490 L240 267 L229 149 L227 149 L214 267 L181 490 L12 490 L125 0 L310 0 L348 201 L361 295 L362 295 L376 202 L414 0 L599 0 L711 490 Z " />
<glyph glyph-name="x" unicode="x" horiz-adv-x="496" d="M488 489 L306 489 L265 401 L251 364 L248 364 L235 401 L198 489 L8 489 L154 244 L10 0 L189 0 L230 88 L244 127 L246 127 L260 88 L297 0 L486 0 L342 244 L488 489 Z " />
<glyph glyph-name="y" unicode="y" horiz-adv-x="478" d="M478 490 L310 489 L268 282 L243 146 L242 146 L215 283 L166 489 L-7 490 L171 -45 C156 -89 153 -102 109 -102 C77 -102 52 -92 21 -87 L11 -229 C57 -236 94 -240 126 -240 C224 -240 272 -197 310 -70 L478 490 Z " />
<glyph glyph-name="z" unicode="z" horiz-adv-x="419" d="M394 133 L223 133 L224 135 L270 202 L394 392 L394 489 L35 489 L36 356 L194 356 L194 354 L154 298 L25 97 L25 0 L394 0 L394 133 Z " />
<glyph glyph-name="braceleft" unicode="&#x7b;" horiz-adv-x="368" d="M346 -124 L346 26 L288 26 C277 26 265 39 265 48 L275 223 C278 269 273 306 236 343 L236 344 C273 381 278 420 275 466 L265 637 C265 645 277 658 288 658 L346 658 L346 808 L201 808 C120 808 95 769 98 703 L108 489 C111 414 55 400 -4 377 L-4 312 C55 289 111 275 108 200 L98 -19 C95 -85 120 -124 201 -124 L346 -124 Z " />
<glyph glyph-name="bar" unicode="&#x7c;" horiz-adv-x="250" d="M175 -123 L175 807 L74 807 L74 -123 L175 -123 Z " />
<glyph glyph-name="braceright" unicode="&#x7d;" horiz-adv-x="368" d="M372 312 L372 377 C313 400 257 414 260 489 L270 703 C273 769 248 808 167 808 L22 808 L22 658 L80 658 C91 658 103 645 103 637 L93 466 C90 420 95 381 132 344 L132 343 C95 306 90 269 93 223 L103 48 C103 39 91 26 80 26 L22 26 L22 -124 L167 -124 C248 -124 273 -85 270 -19 L260 200 C257 275 313 289 372 312 L372 312 Z " />
<glyph glyph-name="asciitilde" unicode="&#x7e;" horiz-adv-x="565" d="M531 250 L525 319 C497 303 477 291 455 282 C434 274 411 268 384 268 C352 268 319 281 290 292 C257 303 222 316 183 316 C117 316 90 300 34 264 L39 191 C104 231 144 246 178 246 C196 246 211 243 241 232 C305 207 334 201 380 201 C425 201 450 205 488 225 C497 231 508 237 531 250 L531 250 Z " />
<glyph glyph-name="nbspace" unicode="&#xa0;" horiz-adv-x="242" d="" />
<glyph glyph-name="exclamdown" unicode="&#xa1;" horiz-adv-x="379" d="M279 332 L279 490 L101 490 L101 332 L279 332 Z M278 -199 L272 240 L110 240 L104 -199 L278 -199 Z " />
<glyph glyph-name="cent" unicode="&#xa2;" horiz-adv-x="450" d="M420 8 L407 145 C356 134 322 129 272 129 C233 129 203 143 203 253 C203 363 233 381 272 381 C322 381 356 376 407 365 L420 503 C376 511 346 516 315 518 L315 625 L248 625 L248 518 C94 508 40 402 40 254 C40 106 94 2 248 -8 L248 -132 L315 -132 L315 -7 C346 -5 376 -1 420 8 L420 8 Z " />
<glyph glyph-name="sterling" unicode="&#xa3;" horiz-adv-x="505" d="M464 0 L464 131 L327 131 L295 128 L295 129 C305 146 303 171 305 191 L388 191 L388 315 L307 315 L307 324 C307 364 308 379 342 379 C373 379 391 377 435 368 L445 505 C405 516 348 525 313 525 C180 525 142 478 142 338 L142 314 L65 304 L66 191 L142 191 L142 173 C142 158 141 143 131 131 L65 131 L65 0 L464 0 Z " />
<glyph glyph-name="currency" unicode="&#xa4;" horiz-adv-x="480" d="M450 8 L438 145 C386 134 352 129 302 129 C258 129 247 139 233 171 L308 171 L337 235 L221 235 C221 241 220 247 220 253 C220 259 221 264 221 269 L351 269 L383 333 L231 333 C246 371 261 381 302 381 C352 381 386 376 438 365 L450 503 C387 515 351 519 303 519 C161 519 88 445 67 333 L-10 333 L-10 269 L60 269 L60 254 C60 248 60 242 61 235 L-10 235 L-10 171 L68 171 C90 62 163 -9 303 -9 C351 -9 387 -4 450 8 L450 8 Z " />
<glyph glyph-name="yen" unicode="&#xa5;" horiz-adv-x="539" d="M509 512 L337 512 L283 368 L274 326 L273 326 L261 368 L204 512 L30 512 L188 219 L94 219 L94 152 L190 152 L190 112 L94 112 L94 44 L190 44 L190 0 L349 0 L349 44 L458 44 L458 112 L349 112 L349 152 L458 152 L458 219 L352 219 L509 512 Z " />
<glyph glyph-name="brokenbar" unicode="&#xa6;" horiz-adv-x="254" d="M177 378 L177 807 L76 807 L76 378 L177 378 Z M177 -123 L177 309 L76 309 L76 -123 L177 -123 Z " />
<glyph glyph-name="section" unicode="&#xa7;" horiz-adv-x="476" d="M459 -65 C459 -18 450 21 419 56 C444 79 459 122 459 168 C459 239 431 298 373 343 L223 462 C203 478 182 490 182 515 C182 544 201 554 238 554 C291 554 329 548 413 538 L424 688 C347 695 306 698 244 698 C122 698 17 654 17 527 C17 481 28 442 53 403 C32 378 17 338 17 295 C17 226 37 162 102 112 L243 4 C269 -16 293 -27 293 -57 C293 -95 248 -97 221 -97 C180 -97 127 -94 39 -82 L28 -232 C115 -242 179 -242 218 -242 C343 -242 459 -200 459 -65 L459 -65 Z M303 176 C303 171 298 164 297 161 L216 223 C196 239 172 258 172 283 C172 287 175 296 176 300 L251 242 C276 223 303 205 303 176 L303 176 Z " />
<glyph glyph-name="dieresis" unicode="&#xa8;" horiz-adv-x="508" d="M411 569 L411 694 L286 694 L286 569 L411 569 Z M220 569 L220 694 L95 694 L95 569 L220 569 Z " />
<glyph glyph-name="copyright" unicode="&#xa9;" horiz-adv-x="588" d="M538 254 C538 445 448 519 294 519 C141 519 50 445 50 254 C50 64 141 -9 294 -9 C447 -9 538 64 538 254 L538 254 Z M438 254 C438 111 376 80 294 80 C212 80 150 111 150 254 C150 397 212 431 294 431 C376 431 438 397 438 254 L438 254 Z M377 132 L371 198 C343 193 327 191 305 191 C286 191 271 197 271 251 C271 304 286 312 305 312 C327 312 343 310 371 305 L377 371 C345 377 328 379 305 379 C220 379 191 326 191 251 C191 176 220 124 305 124 C328 124 345 126 377 132 L377 132 Z " />
<glyph glyph-name="ordfeminine" unicode="&#xaa;" horiz-adv-x="381" d="M336 600 C336 686 257 698 190 698 C144 698 105 690 60 680 L71 577 C121 591 153 598 179 598 C203 598 210 591 210 585 L210 562 C119 550 35 548 35 439 C35 408 44 371 66 351 C90 330 114 317 150 317 C179 317 203 323 226 334 L227 334 L231 324 L335 324 L336 600 Z M210 477 L210 420 C203 418 196 417 182 417 C170 417 160 432 160 445 C160 456 166 465 170 468 C177 474 196 476 210 477 L210 477 Z " />
<glyph glyph-name="guillemotleft" unicode="&#xab;" horiz-adv-x="660" d="M620 417 L476 417 L309 236 L309 215 L469 41 L612 41 L443 226 L620 417 Z M338 417 L194 417 L27 236 L27 215 L187 41 L330 41 L161 226 L338 417 Z " />
<glyph glyph-name="logicalnot" unicode="&#xac;" horiz-adv-x="661" d="M575 -1 L575 489 L86 489 L86 -1 L575 -1 Z M482 92 L178 92 L178 396 L482 396 L482 92 Z " />
<glyph glyph-name="registered" unicode="&#xae;" horiz-adv-x="588" d="M538 249 C538 440 448 514 294 514 C141 514 50 440 50 249 C50 59 141 -14 294 -14 C447 -14 538 59 538 249 L538 249 Z M438 249 C438 106 376 75 294 75 C212 75 150 106 150 249 C150 392 212 426 294 426 C376 426 438 392 438 249 L438 249 Z M395 127 L350 221 C385 239 387 267 387 293 C387 350 364 373 302 373 L207 373 L207 127 L279 127 L279 200 L288 200 L316 127 L395 127 Z M314 292 C314 275 308 267 299 267 L280 267 L280 314 L299 314 C308 314 314 309 314 292 L314 292 Z " />
<glyph glyph-name="macron" unicode="&#xaf;" horiz-adv-x="508" d="M428 598 L428 720 L85 720 L85 598 L428 598 Z " />
<glyph glyph-name="degree" unicode="&#xb0;" horiz-adv-x="333" d="M274 641 C274 700 226 748 166 748 C107 748 58 700 58 641 C58 581 107 533 166 533 C226 533 274 581 274 641 L274 641 Z M211 641 C211 616 191 596 166 596 C141 596 121 616 121 641 C121 665 141 686 166 686 C191 686 211 665 211 641 L211 641 Z " />
<glyph glyph-name="plusminus" unicode="&#xb1;" horiz-adv-x="535" d="M491 253 L491 323 L302 323 L302 478 L232 478 L232 323 L44 323 L44 253 L232 253 L232 100 L302 100 L302 253 L491 253 Z M491 0 L491 70 L44 70 L44 0 L491 0 Z " />
<glyph glyph-name="acute" unicode="&#xb4;" horiz-adv-x="508" d="M396 726 L240 726 L148 560 L254 560 L396 726 Z " />
<glyph glyph-name="paragraph" unicode="&#xb6;" horiz-adv-x="518" d="M443 609 L218 609 C73 609 20 525 20 403 C20 285 65 207 197 200 L197 -126 L305 -126 L305 515 L335 515 L335 -126 L443 -126 L443 609 Z " />
<glyph glyph-name="periodcentered" unicode="&#xb7;" horiz-adv-x="287" d="M217 180 L217 326 L70 326 L70 180 L217 180 Z " />
<glyph glyph-name="cedilla" unicode="&#xb8;" horiz-adv-x="508" d="M332 -119 C332 -81 316 -62 286 -43 L323 0 L203 0 C192 -15 178 -30 178 -49 C178 -94 232 -92 232 -120 C232 -126 229 -129 213 -129 C193 -129 169 -122 148 -119 L144 -198 C200 -204 216 -204 231 -204 C297 -204 332 -179 332 -119 L332 -119 Z " />
<glyph glyph-name="ordmasculine" unicode="&#xba;" horiz-adv-x="410" d="M380 507 C380 629 332 698 205 698 C79 698 30 629 30 507 C30 385 80 318 205 318 C331 318 380 385 380 507 L380 507 Z M246 507 C246 435 232 428 205 428 C178 428 165 434 165 507 C165 580 178 587 205 587 C232 587 246 580 246 507 L246 507 Z " />
<glyph glyph-name="guillemotright" unicode="&#xbb;" horiz-adv-x="660" d="M633 215 L633 236 L466 417 L322 417 L499 226 L330 41 L473 41 L633 215 Z M351 215 L351 236 L184 417 L40 417 L217 226 L48 41 L191 41 L351 215 Z " />
<glyph glyph-name="onequarter" unicode="&#xbc;" horiz-adv-x="242" d="" />
<glyph glyph-name="onehalf" unicode="&#xbd;" horiz-adv-x="242" d="" />
<glyph glyph-name="questiondown" unicode="&#xbf;" horiz-adv-x="392" d="M312 332 L312 490 L134 490 L134 332 L312 332 Z M360 -196 L349 -54 C294 -64 234 -77 202 -77 C165 -77 160 -70 160 -57 C160 -45 165 -39 181 -28 C261 25 333 40 333 159 C333 208 312 254 286 295 L151 230 C179 180 172 192 172 192 C178 181 180 170 180 160 C180 136 137 109 119 98 C55 60 10 20 10 -70 C10 -200 133 -208 208 -208 C238 -208 292 -207 360 -196 L360 -196 Z " />
<glyph glyph-name="Agrave" unicode="&#xc0;" horiz-adv-x="617" d="M356 761 L264 928 L108 928 L250 762 L356 761 Z M602 0 L407 696 L209 696 L15 0 L187 0 L219 122 L395 122 L425 0 L602 0 Z M363 260 L252 260 L289 423 L306 512 L308 512 L326 424 L363 260 Z " />
<glyph glyph-name="Aacute" unicode="&#xc1;" horiz-adv-x="617" d="M505 928 L349 928 L257 761 L363 762 L505 928 Z M602 0 L407 696 L209 696 L15 0 L187 0 L219 122 L395 122 L425 0 L602 0 Z M363 260 L252 260 L289 423 L306 512 L308 512 L326 424 L363 260 Z " />
<glyph glyph-name="Acircumflex" unicode="&#xc2;" horiz-adv-x="617" d="M463 761 L363 904 L242 904 L142 761 L269 761 L303 826 L338 761 L463 761 Z M602 0 L407 696 L209 696 L15 0 L187 0 L219 122 L395 122 L425 0 L602 0 Z M363 260 L252 260 L289 423 L306 512 L308 512 L326 424 L363 260 Z " />
<glyph glyph-name="Atilde" unicode="&#xc3;" horiz-adv-x="617" d="M475 812 L473 934 C448 920 405 893 376 895 C326 898 283 927 233 931 C204 933 158 920 122 900 L127 779 C153 794 193 819 223 817 C235 816 248 814 260 811 C295 801 328 784 365 781 C395 779 439 792 475 812 L475 812 Z M602 0 L407 696 L209 696 L15 0 L187 0 L219 122 L395 122 L425 0 L602 0 Z M363 260 L252 260 L289 423 L306 512 L308 512 L326 424 L363 260 Z " />
<glyph glyph-name="Adieresis" unicode="&#xc4;" horiz-adv-x="617" d="M463 770 L463 895 L338 895 L338 770 L463 770 Z M272 770 L272 895 L147 895 L147 770 L272 770 Z M602 0 L407 696 L209 696 L15 0 L187 0 L219 122 L395 122 L425 0 L602 0 Z M363 260 L252 260 L289 423 L306 512 L308 512 L326 424 L363 260 Z " />
<glyph glyph-name="Aring" unicode="&#xc5;" horiz-adv-x="617" d="M411 837 C411 896 363 944 304 944 C245 944 197 896 197 837 C197 778 245 730 304 730 C363 730 411 778 411 837 L411 837 Z M602 0 L407 696 L209 696 L15 0 L187 0 L219 122 L395 122 L425 0 L602 0 Z M346 837 C346 814 327 795 304 795 C281 795 262 814 262 837 C262 860 281 878 304 878 C327 878 346 860 346 837 L346 837 Z M363 260 L252 260 L289 423 L306 512 L308 512 L326 424 L363 260 Z " />
<glyph glyph-name="AE" unicode="&#xc6;" horiz-adv-x="880" d="M858 0 L858 144 L603 144 L603 282 L771 282 L771 427 L603 427 L603 545 L858 545 L858 689 L356 689 L15 1 L202 1 L263 132 L437 132 L437 0 L858 0 Z M437 269 L327 269 L373 365 L436 521 L437 521 L437 269 Z " />
<glyph glyph-name="Ccedilla" unicode="&#xc7;" horiz-adv-x="530" d="M510 9 L497 157 C429 144 391 138 339 138 C249 138 215 164 215 344 C215 526 249 552 339 552 C391 552 429 545 497 532 L510 680 C442 691 398 698 332 698 C231 698 167 681 119 633 C61 575 40 477 40 346 C40 215 61 114 119 56 C156 20 201 1 265 -6 C255 -19 245 -32 245 -49 C245 -94 299 -92 299 -120 C299 -126 296 -129 280 -129 C260 -129 235 -122 215 -119 L210 -198 C267 -204 282 -204 298 -204 C363 -204 399 -179 399 -119 C399 -36 313 -61 382 -8 C424 -5 460 1 510 9 L510 9 Z " />
<glyph glyph-name="Egrave" unicode="&#xc8;" horiz-adv-x="503" d="M340 761 L247 928 L92 928 L233 762 L340 761 Z M486 0 L486 144 L231 144 L231 283 L399 283 L399 427 L231 427 L231 545 L486 545 L486 689 L65 689 L65 0 L486 0 Z " />
<glyph glyph-name="Eacute" unicode="&#xc9;" horiz-adv-x="503" d="M446 928 L290 928 L197 761 L304 762 L446 928 Z M486 0 L486 144 L231 144 L231 283 L399 283 L399 427 L231 427 L231 545 L486 545 L486 689 L65 689 L65 0 L486 0 Z " />
<glyph glyph-name="Ecircumflex" unicode="&#xca;" horiz-adv-x="503" d="M433 761 L333 904 L212 904 L112 761 L238 761 L272 826 L307 761 L433 761 Z M486 0 L486 144 L231 144 L231 283 L399 283 L399 427 L231 427 L231 545 L486 545 L486 689 L65 689 L65 0 L486 0 Z " />
<glyph glyph-name="Edieresis" unicode="&#xcb;" horiz-adv-x="503" d="M438 770 L438 895 L313 895 L313 770 L438 770 Z M246 770 L246 895 L122 895 L122 770 L246 770 Z M486 0 L486 144 L231 144 L231 283 L399 283 L399 427 L231 427 L231 545 L486 545 L486 689 L65 689 L65 0 L486 0 Z " />
<glyph glyph-name="Igrave" unicode="&#xcc;" horiz-adv-x="297" d="M202 761 L110 927 L-46 927 L96 761 L202 761 Z M232 0 L232 689 L62 689 L62 0 L232 0 Z " />
<glyph glyph-name="Iacute" unicode="&#xcd;" horiz-adv-x="297" d="M342 927 L186 927 L94 761 L200 761 L342 927 Z M232 0 L232 689 L62 689 L62 0 L232 0 Z " />
<glyph glyph-name="Icircumflex" unicode="&#xce;" horiz-adv-x="297" d="M309 760 L209 903 L88 903 L-12 760 L115 760 L149 825 L184 760 L309 760 Z M232 0 L232 689 L62 689 L62 0 L232 0 Z " />
<glyph glyph-name="Idieresis" unicode="&#xcf;" horiz-adv-x="297" d="M303 770 L303 895 L178 895 L178 770 L303 770 Z M112 770 L112 895 L-13 895 L-13 770 L112 770 Z M232 0 L232 689 L62 689 L62 0 L232 0 Z " />
<glyph glyph-name="Eth" unicode="&#xd0;" horiz-adv-x="607" d="M566 345 C566 466 554 572 491 635 C432 694 365 689 277 689 L62 689 L62 326 L-45 264 L-45 144 L62 206 L62 0 L277 0 C365 0 432 -5 491 54 C554 117 566 225 566 345 L566 345 Z M394 344 C394 239 383 188 358 163 C341 146 303 146 274 146 L229 146 L229 303 L327 360 L327 481 L229 424 L229 543 L274 543 C303 543 341 544 358 526 C383 501 394 449 394 344 L394 344 Z " />
<glyph glyph-name="Ntilde" unicode="&#xd1;" horiz-adv-x="688" d="M513 812 L510 934 C485 920 442 893 413 895 C363 898 320 927 271 931 C241 933 196 920 159 900 L165 779 C190 794 230 819 260 817 C273 816 285 814 297 811 C332 801 366 784 402 781 C433 779 477 792 513 812 L513 812 Z M623 0 L623 689 L469 689 L474 194 L472 195 L445 288 L282 689 L65 689 L65 0 L219 0 L214 479 L216 478 L244 384 L406 0 L623 0 Z " />
<glyph glyph-name="Ograve" unicode="&#xd2;" horiz-adv-x="648" d="M374 761 L282 927 L126 927 L268 761 L374 761 Z M608 345 C608 483 587 577 530 634 C486 679 420 698 325 698 C229 698 162 679 118 634 C61 577 40 482 40 344 C40 207 61 113 118 56 C162 11 229 -9 325 -9 C420 -9 486 11 530 56 C587 113 608 207 608 345 L608 345 Z M438 346 C438 154 411 137 324 137 C236 137 211 153 211 344 C211 535 236 552 324 552 C411 552 438 537 438 346 L438 346 Z " />
<glyph glyph-name="Oacute" unicode="&#xd3;" horiz-adv-x="648" d="M520 927 L364 927 L272 761 L378 761 L520 927 Z M608 345 C608 483 587 577 530 634 C486 679 420 698 325 698 C229 698 162 679 118 634 C61 577 40 482 40 344 C40 207 61 113 118 56 C162 11 229 -9 325 -9 C420 -9 486 11 530 56 C587 113 608 207 608 345 L608 345 Z M438 346 C438 154 411 137 324 137 C236 137 211 153 211 344 C211 535 236 552 324 552 C411 552 438 537 438 346 L438 346 Z " />
<glyph glyph-name="Ocircumflex" unicode="&#xd4;" horiz-adv-x="648" d="M481 761 L381 904 L260 904 L160 761 L287 761 L321 826 L356 761 L481 761 Z M608 345 C608 483 587 577 530 634 C486 679 420 698 325 698 C229 698 162 679 118 634 C61 577 40 482 40 344 C40 207 61 113 118 56 C162 11 229 -9 325 -9 C420 -9 486 11 530 56 C587 113 608 207 608 345 L608 345 Z M438 346 C438 154 411 137 324 137 C236 137 211 153 211 344 C211 535 236 552 324 552 C411 552 438 537 438 346 L438 346 Z " />
<glyph glyph-name="Otilde" unicode="&#xd5;" horiz-adv-x="648" d="M502 812 L500 934 C475 920 432 893 403 895 C353 898 310 927 261 931 C231 933 186 920 149 900 L155 779 C180 794 220 819 250 817 C263 816 275 814 287 811 C322 801 355 784 392 781 C423 779 467 792 502 812 L502 812 Z M608 345 C608 483 587 577 530 634 C486 679 420 698 325 698 C229 698 162 679 118 634 C61 577 40 482 40 344 C40 207 61 113 118 56 C162 11 229 -9 325 -9 C420 -9 486 11 530 56 C587 113 608 207 608 345 L608 345 Z M438 346 C438 154 411 137 324 137 C236 137 211 153 211 344 C211 535 236 552 324 552 C411 552 438 537 438 346 L438 346 Z " />
<glyph glyph-name="Odieresis" unicode="&#xd6;" horiz-adv-x="648" d="M481 770 L481 895 L356 895 L356 770 L481 770 Z M290 770 L290 895 L165 895 L165 770 L290 770 Z M608 345 C608 483 587 577 530 634 C486 679 420 698 325 698 C229 698 162 679 118 634 C61 577 40 482 40 344 C40 207 61 113 118 56 C162 11 229 -9 325 -9 C420 -9 486 11 530 56 C587 113 608 207 608 345 L608 345 Z M438 346 C438 154 411 137 324 137 C236 137 211 153 211 344 C211 535 236 552 324 552 C411 552 438 537 438 346 L438 346 Z " />
<glyph glyph-name="multiply" unicode="&#xd7;" horiz-adv-x="520" d="M466 392 L416 442 L259 286 L104 441 L54 391 L209 236 L54 81 L104 31 L259 186 L414 32 L463 81 L309 236 L466 392 Z " />
<glyph glyph-name="Oslash" unicode="&#xd8;" horiz-adv-x="651" d="M610 345 C610 483 590 577 533 634 L532 634 L599 748 L511 748 L469 676 C431 691 384 698 327 698 C232 698 165 679 120 634 C63 577 43 482 43 344 C43 213 61 121 113 64 L40 -60 L128 -60 L174 18 C214 0 264 -9 327 -9 C422 -9 488 11 533 56 C590 113 610 207 610 345 L610 345 Z M391 543 L217 243 C214 270 213 303 213 344 C213 535 238 552 326 552 C353 552 375 551 391 543 L391 543 Z M440 346 C440 154 414 137 326 137 C293 137 269 139 252 152 L434 465 C438 435 440 397 440 346 L440 346 Z " />
<glyph glyph-name="Ugrave" unicode="&#xd9;" horiz-adv-x="616" d="M363 761 L271 928 L115 928 L256 762 L363 761 Z M560 209 L560 689 L395 689 L395 224 C395 156 356 138 308 138 C259 138 221 156 221 224 L221 689 L55 689 L55 209 C55 31 209 -9 308 -9 C408 -9 560 31 560 209 L560 209 Z " />
<glyph glyph-name="Uacute" unicode="&#xda;" horiz-adv-x="616" d="M503 928 L347 928 L255 761 L361 762 L503 928 Z M560 209 L560 689 L395 689 L395 224 C395 156 356 138 308 138 C259 138 221 156 221 224 L221 689 L55 689 L55 209 C55 31 209 -9 308 -9 C408 -9 560 31 560 209 L560 209 Z " />
<glyph glyph-name="Ucircumflex" unicode="&#xdb;" horiz-adv-x="616" d="M467 760 L367 903 L246 903 L146 760 L272 760 L306 825 L341 760 L467 760 Z M560 209 L560 689 L395 689 L395 224 C395 156 356 138 308 138 C259 138 221 156 221 224 L221 689 L55 689 L55 209 C55 31 209 -9 308 -9 C408 -9 560 31 560 209 L560 209 Z " />
<glyph glyph-name="Udieresis" unicode="&#xdc;" horiz-adv-x="616" d="M467 770 L467 895 L342 895 L342 770 L467 770 Z M276 770 L276 895 L151 895 L151 770 L276 770 Z M560 209 L560 689 L395 689 L395 224 C395 156 356 138 308 138 C259 138 221 156 221 224 L221 689 L55 689 L55 209 C55 31 209 -9 308 -9 C408 -9 560 31 560 209 L560 209 Z " />
<glyph glyph-name="Yacute" unicode="&#xdd;" horiz-adv-x="603" d="M498 929 L342 929 L250 762 L356 763 L498 929 Z M593 689 L403 689 L338 525 L302 428 L301 428 L267 525 L197 689 L10 689 L218 271 L218 0 L384 0 L384 271 L593 689 Z " />
<glyph glyph-name="Thorn" unicode="&#xde;" horiz-adv-x="510" d="M494 352 C494 423 481 489 441 528 C406 562 350 570 282 570 L227 570 L227 689 L62 689 L63 0 L227 0 L227 134 L278 134 C343 134 401 135 436 169 C482 211 494 286 494 352 L494 352 Z M331 352 C331 292 327 266 284 266 L227 266 L227 438 L284 437 C325 437 331 407 331 352 L331 352 Z " />
<glyph glyph-name="germandbls" unicode="&#xdf;" horiz-adv-x="621" d="M606 137 C606 213 554 250 529 269 L422 344 C412 351 407 359 407 374 C407 419 475 436 475 558 C475 699 361 737 258 737 C176 737 55 705 55 552 L55 0 L211 0 L211 514 C211 557 222 601 269 601 C295 601 322 585 322 551 C322 471 250 461 250 358 C250 281 296 241 332 219 L427 160 C437 153 446 147 446 134 C446 121 433 115 413 115 C381 115 338 121 286 134 L276 3 C337 -9 397 -9 427 -9 C512 -9 606 30 606 137 L606 137 Z " />
<glyph glyph-name="agrave" unicode="&#xe0;" horiz-adv-x="459" d="M273 560 L181 726 L25 726 L167 560 L273 560 Z M414 373 C414 481 312 499 220 499 C150 499 105 488 62 476 L74 353 C130 369 175 380 212 380 C253 380 260 365 260 351 L260 315 C139 309 27 292 27 150 C27 107 40 60 66 35 C96 5 127 -10 173 -10 C213 -10 257 6 281 20 L282 20 L290 0 L414 0 L414 373 Z M260 209 L260 117 C249 114 240 110 215 110 C189 110 179 141 179 157 C179 174 184 185 192 193 C204 205 237 209 260 209 L260 209 Z " />
<glyph glyph-name="aacute" unicode="&#xe1;" horiz-adv-x="461" d="M415 726 L260 726 L167 560 L274 560 L415 726 Z M412 373 C412 481 310 499 218 499 C148 499 104 488 60 476 L72 353 C129 369 173 380 210 380 C252 380 258 365 258 351 L259 315 C138 309 25 292 25 150 C25 107 38 60 64 35 C94 5 125 -10 171 -10 C211 -10 256 6 279 20 L281 20 L288 0 L412 0 L412 373 Z M258 209 L258 117 C247 114 239 110 213 110 C187 110 177 141 177 157 C177 174 182 185 190 193 C202 205 235 209 258 209 L258 209 Z " />
<glyph glyph-name="acircumflex" unicode="&#xe2;" horiz-adv-x="458" d="M390 560 L290 704 L169 704 L69 560 L196 561 L230 625 L265 561 L390 560 Z M412 373 C412 481 310 499 218 499 C148 499 104 488 60 476 L72 353 C129 369 173 380 210 380 C252 380 258 365 258 351 L259 315 C138 309 25 292 25 150 C25 107 38 60 64 35 C94 5 125 -10 171 -10 C211 -10 256 6 279 20 L281 20 L288 0 L412 0 L412 373 Z M258 209 L258 117 C247 114 239 110 213 110 C187 110 177 141 177 157 C177 174 182 185 190 193 C202 205 235 209 258 209 L258 209 Z " />
<glyph glyph-name="atilde" unicode="&#xe3;" horiz-adv-x="458" d="M409 611 L407 734 C382 720 339 693 310 695 C260 698 217 727 168 730 C138 732 93 720 56 700 L62 579 C87 593 127 619 157 617 C170 616 182 613 194 610 C229 600 262 583 299 581 C330 579 374 591 409 611 L409 611 Z M412 373 C412 481 310 499 218 499 C148 499 104 488 60 476 L72 353 C129 369 173 380 210 380 C252 380 258 365 258 351 L259 315 C138 309 25 292 25 150 C25 107 38 60 64 35 C94 5 125 -10 171 -10 C211 -10 256 6 279 20 L281 20 L288 0 L412 0 L412 373 Z M258 209 L258 117 C247 114 239 110 213 110 C187 110 177 141 177 157 C177 174 182 185 190 193 C202 205 235 209 258 209 L258 209 Z " />
<glyph glyph-name="adieresis" unicode="&#xe4;" horiz-adv-x="458" d="M387 569 L387 694 L262 694 L262 569 L387 569 Z M196 569 L196 694 L71 694 L71 569 L196 569 Z M412 373 C412 481 310 499 218 499 C148 499 104 488 60 476 L72 353 C129 369 173 380 210 380 C252 380 258 365 258 351 L259 315 C138 309 25 292 25 150 C25 107 38 60 64 35 C94 5 125 -10 171 -10 C211 -10 256 6 279 20 L281 20 L288 0 L412 0 L412 373 Z M258 209 L258 117 C247 114 239 110 213 110 C187 110 177 141 177 157 C177 174 182 185 190 193 C202 205 235 209 258 209 L258 209 Z " />
<glyph glyph-name="aring" unicode="&#xe5;" horiz-adv-x="458" d="M334 636 C334 695 287 743 227 743 C168 743 120 695 120 636 C120 577 168 529 227 529 C287 529 334 577 334 636 L334 636 Z M412 373 C412 481 310 499 218 499 C148 499 104 488 60 476 L72 353 C129 369 173 380 210 380 C252 380 258 365 258 351 L259 315 C138 309 25 292 25 150 C25 107 38 60 64 35 C94 5 125 -10 171 -10 C211 -10 256 6 279 20 L281 20 L288 0 L412 0 L412 373 Z M269 636 C269 613 250 595 227 595 C204 595 186 613 186 636 C186 659 204 678 227 678 C250 678 269 659 269 636 L269 636 Z M258 209 L258 117 C247 114 239 110 213 110 C187 110 177 141 177 157 C177 174 182 185 190 193 C202 205 235 209 258 209 L258 209 Z " />
<glyph glyph-name="ae" unicode="&#xe6;" horiz-adv-x="691" d="M661 200 L661 282 C661 399 617 499 464 499 C420 499 386 496 354 463 C321 497 266 499 218 499 C148 499 152 495 60 476 L72 353 C129 369 173 380 210 380 C241 380 253 365 253 351 L253 309 C156 305 89 294 52 250 C33 227 25 195 25 150 C25 107 37 59 64 35 C95 6 125 -10 171 -10 C211 -10 278 -3 323 42 C355 4 412 -9 484 -9 C537 -9 571 -3 648 12 L638 143 C583 133 541 120 485 120 C443 120 409 137 412 200 L661 200 Z M524 310 L416 310 C420 356 419 394 471 394 C521 394 521 355 524 310 L524 310 Z M273 124 C250 115 233 111 207 111 C187 111 177 141 177 157 C177 174 182 188 191 195 C205 206 238 209 258 209 C260 178 265 149 273 124 L273 124 Z " />
<glyph glyph-name="ccedilla" unicode="&#xe7;" horiz-adv-x="420" d="M400 5 L389 140 C334 131 298 125 267 125 C219 125 192 144 192 245 C192 344 220 365 267 365 C298 365 339 359 389 350 L400 486 C328 497 287 499 257 499 C93 499 30 410 30 245 C30 103 77 19 193 -3 C182 -17 170 -31 170 -49 C170 -94 224 -92 224 -120 C224 -126 221 -129 206 -129 C186 -129 161 -122 141 -119 L136 -198 C193 -204 208 -204 223 -204 C289 -204 325 -179 325 -119 C325 -36 240 -59 309 -6 C333 -4 362 -1 400 5 L400 5 Z " />
<glyph glyph-name="egrave" unicode="&#xe8;" horiz-adv-x="464" d="M296 560 L203 726 L47 726 L189 560 L296 560 Z M434 200 L434 278 C434 395 400 499 244 499 C93 499 30 406 30 244 C30 78 94 -9 257 -9 C310 -9 344 -3 421 12 L411 143 C370 132 317 120 261 120 C215 120 194 142 192 200 L434 200 Z M295 310 L192 310 C194 355 199 394 244 394 C288 394 291 356 295 310 L295 310 Z " />
<glyph glyph-name="eacute" unicode="&#xe9;" horiz-adv-x="464" d="M430 726 L274 726 L181 560 L288 560 L430 726 Z M434 200 L434 278 C434 395 400 499 244 499 C93 499 30 406 30 244 C30 78 94 -9 257 -9 C310 -9 344 -3 421 12 L411 143 C370 132 317 120 261 120 C215 120 194 142 192 200 L434 200 Z M295 310 L192 310 C194 355 199 394 244 394 C288 394 291 356 295 310 L295 310 Z " />
<glyph glyph-name="ecircumflex" unicode="&#xea;" horiz-adv-x="464" d="M400 560 L300 704 L179 704 L79 560 L205 561 L239 625 L275 561 L400 560 Z M434 200 L434 278 C434 395 400 499 244 499 C93 499 30 406 30 244 C30 78 94 -9 257 -9 C310 -9 344 -3 421 12 L411 143 C370 132 317 120 261 120 C215 120 194 142 192 200 L434 200 Z M295 310 L192 310 C194 355 199 394 244 394 C288 394 291 356 295 310 L295 310 Z " />
<glyph glyph-name="edieresis" unicode="&#xeb;" horiz-adv-x="464" d="M397 569 L397 694 L272 694 L272 569 L397 569 Z M206 569 L206 694 L81 694 L81 569 L206 569 Z M434 200 L434 278 C434 395 400 499 244 499 C93 499 30 406 30 244 C30 78 94 -9 257 -9 C310 -9 344 -3 421 12 L411 143 C370 132 317 120 261 120 C215 120 194 142 192 200 L434 200 Z M295 310 L192 310 C194 355 199 394 244 394 C288 394 291 356 295 310 L295 310 Z " />
<glyph glyph-name="igrave" unicode="&#xec;" horiz-adv-x="279" d="M195 560 L103 726 L-53 726 L89 560 L195 560 Z M220 0 L220 489 L60 489 L60 0 L220 0 Z " />
<glyph glyph-name="iacute" unicode="&#xed;" horiz-adv-x="279" d="M334 726 L178 726 L86 560 L192 560 L334 726 Z M220 0 L220 489 L60 489 L60 0 L220 0 Z " />
<glyph glyph-name="icircumflex" unicode="&#xee;" horiz-adv-x="279" d="M299 560 L198 704 L77 704 L-23 560 L104 561 L138 625 L173 561 L299 560 Z M220 0 L220 489 L60 489 L60 0 L220 0 Z " />
<glyph glyph-name="idieresis" unicode="&#xef;" horiz-adv-x="279" d="M298 568 L298 693 L173 693 L173 568 L298 568 Z M106 568 L106 693 L-18 693 L-18 568 L106 568 Z M220 0 L220 489 L60 489 L60 0 L220 0 Z " />
<glyph glyph-name="eth" unicode="&#xf0;" horiz-adv-x="530" d="M492 278 C492 387 485 515 431 610 L476 636 L477 746 L371 684 C333 715 282 734 216 734 C178 734 133 731 62 713 L79 574 C117 589 148 600 199 600 C224 600 233 602 243 597 L204 577 L205 472 L308 535 C327 496 326 452 328 443 L326 443 C308 450 290 453 256 453 C104 453 30 375 30 229 C30 68 108 -9 256 -9 C427 -9 492 89 492 278 L492 278 Z M332 223 C332 124 287 120 256 120 C224 120 190 128 190 224 C190 310 222 323 256 323 C296 323 332 314 332 223 L332 223 Z " />
<glyph glyph-name="ntilde" unicode="&#xf1;" horiz-adv-x="506" d="M433 611 L431 734 C406 720 362 693 333 695 C284 698 241 727 191 730 C161 732 116 720 80 700 L85 579 C111 593 150 619 180 617 C193 616 206 613 218 610 C253 600 286 583 323 581 C353 579 397 591 433 611 L433 611 Z M461 363 C461 469 393 498 301 498 C255 498 212 482 182 464 L181 464 L174 490 L50 490 L50 0 L211 0 L210 353 C227 361 251 369 275 369 C290 369 300 358 300 345 L300 0 L461 0 L461 363 Z " />
<glyph glyph-name="ograve" unicode="&#xf2;" horiz-adv-x="513" d="M313 560 L221 726 L65 726 L206 560 L313 560 Z M483 244 C483 408 421 499 257 499 C93 499 30 409 30 244 C30 79 94 -9 257 -9 C420 -9 483 79 483 244 L483 244 Z M322 244 C322 143 303 123 257 123 C210 123 193 142 193 244 C193 345 210 364 257 364 C303 364 322 345 322 244 L322 244 Z " />
<glyph glyph-name="oacute" unicode="&#xf3;" horiz-adv-x="513" d="M451 726 L295 726 L202 560 L309 560 L451 726 Z M483 244 C483 408 421 499 257 499 C93 499 30 409 30 244 C30 79 94 -9 257 -9 C420 -9 483 79 483 244 L483 244 Z M322 244 C322 143 303 123 257 123 C210 123 193 142 193 244 C193 345 210 364 257 364 C303 364 322 345 322 244 L322 244 Z " />
<glyph glyph-name="ocircumflex" unicode="&#xf4;" horiz-adv-x="513" d="M418 560 L318 704 L197 704 L97 560 L224 561 L258 625 L293 561 L418 560 Z M483 244 C483 408 421 499 257 499 C93 499 30 409 30 244 C30 79 94 -9 257 -9 C420 -9 483 79 483 244 L483 244 Z M322 244 C322 143 303 123 257 123 C210 123 193 142 193 244 C193 345 210 364 257 364 C303 364 322 345 322 244 L322 244 Z " />
<glyph glyph-name="otilde" unicode="&#xf5;" horiz-adv-x="513" d="M430 611 L428 734 C403 720 359 693 330 695 C281 698 238 727 188 730 C158 732 113 720 77 700 L82 579 C108 593 147 619 177 617 C190 616 203 613 215 610 C250 600 283 583 320 581 C350 579 394 591 430 611 L430 611 Z M483 244 C483 408 421 499 257 499 C93 499 30 409 30 244 C30 79 94 -9 257 -9 C420 -9 483 79 483 244 L483 244 Z M322 244 C322 143 303 123 257 123 C210 123 193 142 193 244 C193 345 210 364 257 364 C303 364 322 345 322 244 L322 244 Z " />
<glyph glyph-name="odieresis" unicode="&#xf6;" horiz-adv-x="513" d="M416 569 L416 694 L291 694 L291 569 L416 569 Z M224 569 L224 694 L99 694 L99 569 L224 569 Z M483 244 C483 408 421 499 257 499 C93 499 30 409 30 244 C30 79 94 -9 257 -9 C420 -9 483 79 483 244 L483 244 Z M322 244 C322 143 303 123 257 123 C210 123 193 142 193 244 C193 345 210 364 257 364 C303 364 322 345 322 244 L322 244 Z " />
<glyph glyph-name="divide" unicode="&#xf7;" horiz-adv-x="536" d="M315 354 L315 447 L221 447 L221 354 L315 354 Z M492 220 L492 290 L44 290 L44 220 L492 220 Z M315 65 L315 158 L221 158 L221 65 L315 65 Z " />
<glyph glyph-name="oslash" unicode="&#xf8;" horiz-adv-x="513" d="M483 244 C483 335 464 403 419 446 L467 528 L380 528 L355 484 C327 494 295 499 257 499 C93 499 30 409 30 244 C30 151 50 83 97 41 L46 -45 L134 -45 L163 4 C189 -4 221 -9 257 -9 C420 -9 483 79 483 244 L483 244 Z M283 361 L194 207 C193 218 193 230 193 244 C193 345 210 364 257 364 C267 364 276 364 283 361 L283 361 Z M322 244 C322 143 303 123 257 123 C248 123 240 124 233 126 L321 277 C321 267 322 256 322 244 L322 244 Z " />
<glyph glyph-name="ugrave" unicode="&#xf9;" horiz-adv-x="506" d="M302 560 L209 726 L54 726 L195 560 L302 560 Z M455 0 L455 490 L295 490 L295 137 C279 129 255 121 231 121 C215 121 205 132 205 145 L205 490 L45 490 L45 127 C45 21 113 -8 204 -8 C251 -8 293 8 323 26 L325 26 L332 0 L455 0 Z " />
<glyph glyph-name="uacute" unicode="&#xfa;" horiz-adv-x="506" d="M445 726 L289 726 L196 560 L303 560 L445 726 Z M455 0 L455 490 L295 490 L295 137 C279 129 255 121 231 121 C215 121 205 132 205 145 L205 490 L45 490 L45 127 C45 21 113 -8 204 -8 C251 -8 293 8 323 26 L325 26 L332 0 L455 0 Z " />
<glyph glyph-name="ucircumflex" unicode="&#xfb;" horiz-adv-x="506" d="M412 560 L312 704 L191 704 L90 560 L217 561 L251 625 L286 561 L412 560 Z M455 0 L455 490 L295 490 L295 137 C279 129 255 121 231 121 C215 121 205 132 205 145 L205 490 L45 490 L45 127 C45 21 113 -8 204 -8 C251 -8 293 8 323 26 L325 26 L332 0 L455 0 Z " />
<glyph glyph-name="udieresis" unicode="&#xfc;" horiz-adv-x="506" d="M409 569 L409 694 L284 694 L284 569 L409 569 Z M217 569 L217 694 L92 694 L92 569 L217 569 Z M455 0 L455 490 L295 490 L295 137 C279 129 255 121 231 121 C215 121 205 132 205 145 L205 490 L45 490 L45 127 C45 21 113 -8 204 -8 C251 -8 293 8 323 26 L325 26 L332 0 L455 0 Z " />
<glyph glyph-name="yacute" unicode="&#xfd;" horiz-adv-x="478" d="M438 726 L282 726 L189 560 L296 560 L438 726 Z M478 490 L310 489 L268 282 L243 146 L242 146 L215 283 L166 489 L-7 490 L171 -45 C156 -89 153 -102 109 -102 C77 -102 52 -92 21 -87 L11 -229 C57 -236 94 -240 126 -240 C224 -240 272 -197 310 -70 L478 490 Z " />
<glyph glyph-name="thorn" unicode="&#xfe;" horiz-adv-x="507" d="M476 245 C474 399 426 498 263 498 C240 498 237 496 220 493 L218 495 L218 720 L56 720 L55 -232 L218 -232 L218 -6 L219 -4 C237 -8 239 -9 263 -9 C426 -9 474 90 476 245 L476 245 Z M314 245 C313 158 295 120 248 120 C227 120 223 123 216 125 L216 363 C223 366 227 368 248 368 C295 368 313 331 314 245 L314 245 Z " />
<glyph glyph-name="ydieresis" unicode="&#xff;" horiz-adv-x="478" d="M399 569 L399 694 L274 694 L274 569 L399 569 Z M207 569 L207 694 L82 694 L82 569 L207 569 Z M478 490 L310 489 L268 282 L243 146 L242 146 L215 283 L166 489 L-7 490 L171 -45 C156 -89 153 -102 109 -102 C77 -102 52 -92 21 -87 L11 -229 C57 -236 94 -240 126 -240 C224 -240 272 -197 310 -70 L478 490 Z " />
<glyph glyph-name="dotlessi" unicode="&#x131;" horiz-adv-x="277" d="M219 0 L219 489 L58 489 L59 0 L219 0 Z " />
<glyph glyph-name="Lslash" unicode="&#x141;" horiz-adv-x="470" d="M474 0 L474 144 L228 144 L228 303 L336 365 L336 486 L228 423 L228 689 L62 689 L62 326 L-45 264 L-45 144 L62 206 L62 0 L474 0 Z " />
<glyph glyph-name="lslash" unicode="&#x142;" horiz-adv-x="276" d="M327 479 L220 416 L220 720 L58 720 L59 323 L-47 262 L-47 141 L60 204 L60 0 L220 0 L220 297 L327 359 L327 479 Z " />
<glyph glyph-name="OE" unicode="&#x152;" horiz-adv-x="883" d="M861 0 L861 144 L606 144 L606 272 L606 283 L774 283 L774 427 L606 427 L606 545 L861 545 L861 689 L440 689 L440 675 C408 689 369 698 325 698 C229 698 162 679 118 634 C61 577 40 482 40 344 C40 207 61 113 118 56 C162 11 229 -9 325 -9 C369 -9 408 0 440 15 L440 0 L861 0 Z M438 346 C438 154 411 137 324 137 C236 137 211 153 211 344 C211 535 236 552 324 552 C411 552 438 537 438 346 L438 346 Z " />
<glyph glyph-name="oe" unicode="&#x153;" horiz-adv-x="761" d="M730 200 L730 282 C730 399 686 499 533 499 C477 499 439 488 402 450 C365 488 319 499 257 499 C93 499 30 409 30 244 C30 79 94 -9 257 -9 C321 -9 371 8 405 42 C440 7 489 -9 553 -9 C606 -9 640 -3 717 12 L707 143 C652 133 610 120 554 120 C512 120 479 137 481 200 L730 200 Z M593 310 L486 310 C489 356 488 394 540 394 C590 394 590 355 593 310 L593 310 Z M322 244 C322 143 303 123 257 123 C210 123 193 142 193 244 C193 345 210 364 257 364 C303 364 322 345 322 244 L322 244 Z " />
<glyph glyph-name="Scaron" unicode="&#x160;" horiz-adv-x="476" d="M384 903 L257 903 L223 839 L188 903 L62 903 L162 760 L284 760 L384 903 Z M459 168 C459 239 431 298 373 343 L223 462 C203 478 182 490 182 515 C182 544 201 554 238 554 C291 554 329 548 413 538 L424 688 C347 695 306 698 244 698 C122 698 17 654 17 527 C17 459 37 394 102 345 L243 236 C269 217 293 205 293 176 C293 138 248 136 221 136 C180 136 127 139 39 151 L28 1 C115 -10 179 -10 218 -10 C343 -10 459 32 459 168 L459 168 Z " />
<glyph glyph-name="scaron" unicode="&#x161;" horiz-adv-x="411" d="M366 704 L239 704 L205 639 L170 704 L44 704 L145 560 L266 560 L366 704 Z M386 137 C386 213 342 247 317 266 L204 346 C194 353 191 354 191 364 C192 376 200 378 216 378 C248 378 290 369 348 357 L359 487 C288 498 247 499 217 499 C128 499 30 468 30 361 C30 284 77 242 113 219 L207 160 C217 153 226 149 226 135 C226 122 212 116 192 116 C161 116 130 123 56 134 L46 3 C117 -8 162 -9 192 -9 C277 -9 386 30 386 137 L386 137 Z " />
<glyph glyph-name="Ydieresis" unicode="&#x178;" horiz-adv-x="603" d="M463 770 L463 895 L338 895 L338 770 L463 770 Z M272 770 L272 895 L147 895 L147 770 L272 770 Z M593 689 L403 689 L338 525 L302 428 L301 428 L267 525 L197 689 L10 689 L218 271 L218 0 L384 0 L384 271 L593 689 Z " />
<glyph glyph-name="Zcaron" unicode="&#x17d;" horiz-adv-x="527" d="M429 903 L302 903 L268 839 L233 903 L108 903 L208 760 L329 760 L429 903 Z M505 593 L504 689 L23 689 L23 542 L220 542 L290 544 L290 542 L217 430 L23 97 L22 0 L504 0 L504 147 L306 147 L241 146 L241 148 L311 256 L505 593 Z " />
<glyph glyph-name="zcaron" unicode="&#x17e;" horiz-adv-x="419" d="M380 704 L253 704 L219 639 L184 704 L58 704 L158 560 L280 560 L380 704 Z M394 133 L223 133 L224 135 L270 202 L394 392 L394 489 L35 489 L36 356 L194 356 L194 354 L154 298 L25 97 L25 0 L394 0 L394 133 Z " />
<glyph glyph-name="florin" unicode="&#x192;" horiz-adv-x="495" d="M470 495 C433 507 382 519 321 519 C208 519 152 465 140 367 L124 238 L51 229 L35 103 L107 103 L65 -232 L226 -232 L267 103 L385 103 L403 243 L285 243 L297 345 C300 371 308 377 328 377 C378 377 384 369 441 352 L470 495 Z " />
<glyph glyph-name="circumflex" unicode="&#x2c6;" horiz-adv-x="508" d="M415 560 L315 704 L194 704 L94 560 L220 561 L254 625 L289 561 L415 560 Z " />
<glyph glyph-name="caron" unicode="&#x2c7;" horiz-adv-x="508" d="M415 704 L288 704 L254 639 L219 704 L94 704 L194 560 L315 560 L415 704 Z " />
<glyph glyph-name="breve" unicode="&#x2d8;" horiz-adv-x="508" d="M429 707 L295 707 C288 670 278 660 255 660 C232 660 220 671 213 707 L78 707 C106 617 154 556 254 556 C355 556 402 617 429 707 L429 707 Z " />
<glyph glyph-name="dotaccent" unicode="&#x2d9;" horiz-adv-x="508" d="M316 568 L316 693 L191 693 L191 568 L316 568 Z " />
<glyph glyph-name="ring" unicode="&#x2da;" horiz-adv-x="508" d="M361 636 C361 695 313 743 254 743 C195 743 147 695 147 636 C147 577 195 529 254 529 C313 529 361 577 361 636 L361 636 Z M296 636 C296 613 277 595 254 595 C231 595 212 613 212 636 C212 659 231 678 254 678 C277 678 296 659 296 636 L296 636 Z " />
<glyph glyph-name="ogonek" unicode="&#x2db;" horiz-adv-x="508" d="M344 -183 L338 -102 C309 -120 281 -133 262 -133 C252 -133 241 -121 241 -108 C241 -81 268 -51 332 0 L203 0 C175 -25 146 -60 146 -109 C146 -156 185 -204 259 -204 C287 -204 313 -196 344 -183 L344 -183 Z " />
<glyph glyph-name="tilde" unicode="&#x2dc;" horiz-adv-x="508" d="M429 611 L427 734 C402 720 358 693 329 695 C280 698 237 727 187 730 C157 732 112 720 76 700 L81 579 C107 593 146 619 176 617 C189 616 201 613 213 610 C248 600 282 583 319 581 C349 579 393 591 429 611 L429 611 Z " />
<glyph glyph-name="hungarumlaut" unicode="&#x2dd;" horiz-adv-x="508" d="M497 726 L341 726 L248 560 L355 560 L497 726 Z M268 726 L112 726 L20 560 L127 560 L268 726 Z " />
<glyph glyph-name="Delta" unicode="&#x394;" horiz-adv-x="649" d="M614 0 L324 501 L35 0 L614 0 Z " />
<glyph glyph-name="Omega" unicode="&#x3a9;" horiz-adv-x="338" d="M318 328 L309 441 C247 432 232 428 209 428 C180 428 157 435 157 508 C157 581 180 587 209 587 C232 587 247 584 309 575 L318 687 C258 697 227 698 205 698 C79 698 30 629 30 507 C30 385 79 317 205 317 C227 317 258 319 318 328 L318 328 Z " />
<glyph glyph-name="mu" unicode="&#x3bc;" horiz-adv-x="512" d="M461 0 L461 491 L301 491 L301 138 C285 130 261 122 237 122 C221 122 216 133 216 146 L216 491 L55 491 L55 -212 L218 -212 L218 -6 C258 -5 292 2 329 17 L332 16 L338 0 L461 0 Z " />
<glyph glyph-name="pi" unicode="&#x3c0;" horiz-adv-x="735" d="M718 243 L718 269 L420 519 L263 519 L452 357 L508 311 L509 309 L36 309 L36 202 L509 203 L508 201 L452 156 L261 -9 L416 -9 L718 243 Z " />
<glyph glyph-name="endash" unicode="&#x2013;" horiz-adv-x="522" d="M485 220 L485 290 L36 290 L36 220 L485 220 Z " />
<glyph glyph-name="emdash" unicode="&#x2014;" horiz-adv-x="745" d="M701 220 L701 290 L44 290 L44 220 L701 220 Z " />
<glyph glyph-name="quoteleft" unicode="&#x2018;" horiz-adv-x="287" d="M229 707 L129 708 C102 666 74 605 55 559 L50 435 L189 435 L183 557 C192 590 216 677 229 707 L229 707 Z " />
<glyph glyph-name="quoteright" unicode="&#x2019;" horiz-adv-x="287" d="M237 697 L99 697 L104 576 C96 542 72 456 58 425 L158 425 C185 466 213 528 232 573 L237 697 Z " />
<glyph glyph-name="quotesinglbase" unicode="&#x201a;" horiz-adv-x="287" d="M237 145 L99 145 L104 24 C96 -10 72 -96 58 -127 L158 -127 C185 -86 213 -24 232 21 L237 145 Z " />
<glyph glyph-name="quotedblleft" unicode="&#x201c;" horiz-adv-x="499" d="M441 707 L341 708 C314 666 286 605 267 559 L262 435 L400 435 L395 557 C403 590 427 677 441 707 L441 707 Z M229 707 L129 708 C102 666 74 605 55 559 L50 435 L189 435 L183 557 C192 590 216 677 229 707 L229 707 Z " />
<glyph glyph-name="quotedblright" unicode="&#x201d;" horiz-adv-x="499" d="M449 697 L310 697 L316 576 C308 542 283 456 270 425 L370 425 C397 466 425 528 444 573 L449 697 Z M237 697 L99 697 L104 576 C96 542 72 456 58 425 L158 425 C185 466 213 528 232 573 L237 697 Z " />
<glyph glyph-name="quotedblbase" unicode="&#x201e;" horiz-adv-x="499" d="M449 145 L310 145 L316 24 C308 -9 283 -96 270 -127 L370 -127 C397 -85 425 -24 444 22 L449 145 Z M237 145 L99 145 L104 24 C96 -9 72 -96 58 -127 L158 -127 C185 -85 213 -24 232 22 L237 145 Z " />
<glyph glyph-name="dagger" unicode="&#x2020;" horiz-adv-x="515" d="M440 381 L440 468 L301 468 L301 748 L213 748 L213 468 L75 468 L75 381 L213 381 L213 -123 L301 -123 L301 381 L440 381 Z " />
<glyph glyph-name="daggerdbl" unicode="&#x2021;" horiz-adv-x="516" d="M441 381 L441 468 L302 468 L302 748 L214 748 L214 468 L77 468 L77 381 L214 381 L214 263 L75 263 L75 176 L214 176 L214 -123 L302 -123 L302 176 L440 176 L440 263 L302 263 L302 381 L441 381 Z " />
<glyph glyph-name="bullet" unicode="&#x2022;" horiz-adv-x="308" d="M253 354 C253 409 209 454 154 454 C99 454 54 409 54 354 C54 299 99 254 154 254 C209 254 253 299 253 354 L253 354 Z " />
<glyph glyph-name="ellipsis" unicode="&#x2026;" horiz-adv-x="850" d="M780 0 L780 146 L633 146 L633 0 L780 0 Z M498 0 L498 146 L352 146 L352 0 L498 0 Z M217 0 L217 146 L70 146 L70 0 L217 0 Z " />
<glyph glyph-name="perthousand" unicode="&#x2030;" horiz-adv-x="1068" d="M1006 134 C1006 242 968 289 879 289 C790 289 751 242 751 135 C751 27 790 -19 879 -19 C968 -19 1006 27 1006 134 L1006 134 Z M702 134 C702 242 664 289 575 289 C486 289 447 242 447 135 C447 27 486 -19 575 -19 C664 -19 702 27 702 134 L702 134 Z M609 567 L534 567 L151 -73 L226 -73 L609 567 Z M317 364 C317 472 279 519 190 519 C101 519 62 472 62 364 C62 257 97 211 185 211 C274 211 317 257 317 364 L317 364 Z M938 134 C938 54 917 43 879 43 C841 43 819 54 819 135 C819 215 841 227 879 227 C917 227 938 215 938 134 L938 134 Z M634 134 C634 54 613 43 575 43 C537 43 515 54 515 135 C515 215 537 227 575 227 C612 227 634 215 634 134 L634 134 Z M249 364 C249 284 223 273 185 273 C148 273 130 284 130 364 C130 445 152 457 190 457 C228 457 249 445 249 364 L249 364 Z " />
<glyph glyph-name="guilsinglleft" unicode="&#x2039;" horiz-adv-x="378" d="M338 417 L194 417 L27 236 L27 215 L187 41 L330 41 L161 226 L338 417 Z " />
<glyph glyph-name="guilsinglright" unicode="&#x203a;" horiz-adv-x="378" d="M351 215 L351 236 L184 417 L40 417 L217 226 L48 41 L191 41 L351 215 Z " />
<glyph glyph-name="fraction" unicode="&#x2044;" horiz-adv-x="661" d="M671 807 L556 807 L23 -123 L136 -123 L671 807 Z " />
<glyph glyph-name="trademark" unicode="&#x2122;" horiz-adv-x="600" d="M552 432 L552 686 L460 686 L424 554 L414 501 L413 501 L403 554 L368 686 L275 686 L275 432 L341 432 L337 595 L338 594 L349 539 L383 432 L445 432 L479 537 L490 590 L492 592 L487 432 L552 432 Z M236 628 L236 688 L38 688 L38 628 L103 628 L103 433 L171 434 L171 628 L236 628 Z " />
<glyph glyph-name="partialdiff" unicode="&#x2202;" horiz-adv-x="532" d="M486 333 C486 417 478 543 399 622 C338 683 268 698 190 698 C163 698 146 696 81 685 L92 544 C127 549 157 552 182 552 C242 552 271 541 293 519 C313 499 322 473 321 426 L320 425 C298 438 275 442 251 442 C122 442 40 375 40 216 C40 58 130 -9 262 -9 C327 -9 362 6 408 52 C465 109 487 232 486 333 L486 333 Z M324 274 C324 237 320 196 306 166 C296 145 276 134 259 134 C224 134 193 141 193 213 C193 294 226 300 256 300 C287 300 304 290 324 274 L324 274 Z " />
<glyph glyph-name="product" unicode="&#x220f;" horiz-adv-x="735" d="M699 202 L699 309 L227 309 L227 311 L284 357 L473 519 L316 519 L17 269 L17 243 L319 -9 L475 -9 L284 156 L227 201 L227 203 L699 202 Z " />
<glyph glyph-name="summation" unicode="&#x2211;" horiz-adv-x="640" d="M575 245 C575 385 461 499 320 499 C179 499 65 385 65 245 C65 104 179 -10 320 -10 C461 -10 575 104 575 245 L575 245 Z " />
<glyph glyph-name="minus" unicode="&#x2212;" horiz-adv-x="425" d="M381 220 L381 290 L44 290 L44 220 L381 220 Z " />
<glyph glyph-name="radical" unicode="&#x221a;" horiz-adv-x="661" d="M575 -1 L575 489 L86 489 L86 -1 L575 -1 Z M482 92 L178 92 L178 396 L482 396 L482 92 Z M464 309 L399 374 L332 307 L266 374 L201 309 L268 242 L201 175 L266 111 L332 177 L399 111 L464 175 L397 242 L464 309 Z " />
<glyph glyph-name="infinity" unicode="&#x221e;" horiz-adv-x="733" d="M689 252 C689 340 618 416 528 416 C455 416 405 371 366 323 C326 372 279 416 206 416 C115 416 44 340 44 252 C44 163 117 91 206 91 C278 91 328 136 367 184 C406 136 454 91 528 91 C617 91 689 163 689 252 L689 252 Z M604 252 C604 210 570 176 528 176 C492 176 458 208 420 254 C456 300 487 331 528 331 C568 331 604 295 604 252 L604 252 Z M313 254 C277 207 246 176 206 176 C164 176 130 210 130 252 C130 295 165 331 206 331 C228 331 247 322 268 304 C284 290 298 273 313 254 L313 254 Z " />
<glyph glyph-name="integral" unicode="&#x222b;" horiz-adv-x="515" d="M457 588 L431 666 L293 612 L299 748 L218 748 L223 613 L84 666 L58 588 L205 550 L109 432 L176 384 L256 512 L339 384 L406 432 L312 549 L457 588 Z M293 554 L257 529 L222 555 L234 595 L280 596 L293 554 Z " />
<glyph glyph-name="approxequal" unicode="&#x2248;" horiz-adv-x="572" d="M509 299 L503 373 C463 352 419 342 389 342 C321 342 256 364 187 364 C154 364 100 357 62 336 L68 262 C113 285 149 294 184 294 C246 294 313 274 375 274 C405 274 475 283 509 299 L509 299 Z M509 170 L503 243 C463 223 419 213 389 213 C321 213 256 235 187 235 C154 235 100 227 62 207 L68 133 C113 156 149 165 184 165 C246 165 313 144 375 144 C405 144 475 153 509 170 L509 170 Z " />
<glyph glyph-name="notequal" unicode="&#x2260;" horiz-adv-x="661" d="M575 -1 L575 489 L86 489 L86 -1 L575 -1 Z " />
<glyph glyph-name="lessequal" unicode="&#x2264;" horiz-adv-x="468" d="M441 72 L441 157 L174 267 L128 283 L174 301 L440 410 L441 495 L41 318 L41 249 L441 72 Z M441 -1 L441 69 L40 69 L40 -1 L441 -1 Z " />
<glyph glyph-name="greaterequal" unicode="&#x2265;" horiz-adv-x="468" d="M427 249 L427 318 L27 495 L27 410 L294 301 L340 283 L294 267 L27 157 L27 72 L427 249 Z M428 -1 L428 69 L27 69 L27 -1 L428 -1 Z " />
<glyph glyph-name="lozenge" unicode="&#x25ca;" horiz-adv-x="642" d="M577 243 L321 499 L65 243 L321 -13 L577 243 Z " />
<glyph glyph-name="fi" unicode="&#xfb01;" horiz-adv-x="676" d="M621 554 L621 708 L443 708 L443 554 L621 554 Z M613 0 L613 489 L452 489 L452 0 L613 0 Z M392 709 C365 718 311 730 260 730 C147 730 98 676 97 579 L97 484 L25 474 L25 349 L97 349 L97 0 L257 0 L257 349 L357 349 L357 489 L257 489 L257 556 C257 583 265 588 285 588 C321 588 354 578 380 568 L392 709 Z " />
<glyph glyph-name="fl" unicode="&#xfb02;" horiz-adv-x="679" d="M624 0 L624 720 L462 720 L463 0 L624 0 Z M392 709 C365 718 311 730 260 730 C147 730 98 676 97 579 L97 484 L25 474 L25 349 L97 349 L97 0 L257 0 L257 349 L357 349 L357 489 L257 489 L257 556 C257 583 265 588 285 588 C321 588 354 578 380 568 L392 709 Z " />
</font>
</svg>
