<?xml version="1.0" encoding="UTF-8"?>
<svg xmlns="http://www.w3.org/2000/svg" xmlns:xlink="http://www.w3.org/1999/xlink" version="1.2" >
<font id="Section-Medium">
<font-face  font-family="Section" units-per-em="1000" ascent="800" descent="-200" font-style="normal" font-weight="500" font-stretch="normal" cap-height="689" x-height="468" underline-position="-143" underline-thickness="20" />
<missing-glyph  horiz-adv-x="1000" d="" />
<glyph glyph-name="NULL" horiz-adv-x="243" d="" />
<glyph glyph-name="CR" unicode="&#xd;" horiz-adv-x="243" d="" />
<glyph glyph-name="space" unicode="&#x20;" horiz-adv-x="201" d="" />
<glyph glyph-name="exclam" unicode="&#x21;" horiz-adv-x="315" d="M202 689 L113 689 L118 176 L196 176 L202 689 Z M204 -4 L204 89 L111 89 L111 -4 L204 -4 Z " />
<glyph glyph-name="quotedbl" unicode="&#x22;" horiz-adv-x="348" d="M280 689 L200 689 L210 485 L269 485 L280 689 Z M149 689 L68 689 L79 485 L138 485 L149 689 Z " />
<glyph glyph-name="numbersign" unicode="&#x23;" horiz-adv-x="575" d="M522 371 L427 371 L455 499 L402 499 L375 371 L254 371 L281 499 L229 499 L202 371 L109 371 L98 319 L190 319 L157 163 L64 163 L53 111 L146 111 L119 -18 L171 -18 L198 111 L320 111 L293 -18 L345 -18 L372 111 L467 111 L478 163 L383 163 L416 319 L511 319 L522 371 Z M364 319 L331 163 L209 163 L243 319 L364 319 Z " />
<glyph glyph-name="dollar" unicode="&#x24;" horiz-adv-x="426" d="M376 108 C376 175 345 206 294 240 L170 323 C149 337 132 349 132 383 C132 419 161 430 208 430 C238 430 304 428 346 422 L351 493 C321 497 271 498 237 499 L237 604 L191 604 L191 498 C115 494 55 462 55 389 C55 313 96 281 134 256 L250 180 C282 159 300 154 300 111 C300 70 251 61 195 61 C165 61 110 64 68 70 L63 -3 C103 -8 164 -9 192 -9 L192 -112 L237 -112 L237 -6 C310 2 376 33 376 108 L376 108 Z " />
<glyph glyph-name="percent" unicode="&#x25;" horiz-adv-x="706" d="M633 132 C633 237 598 279 517 279 C435 279 400 238 400 132 C400 27 435 -13 517 -13 C598 -13 633 27 633 132 L633 132 Z M556 541 L501 541 L149 -51 L205 -51 L556 541 Z M306 352 C306 458 271 499 189 499 C108 499 72 458 72 353 C72 247 108 207 189 207 C271 207 306 247 306 352 L306 352 Z M587 132 C587 47 563 29 517 29 C471 29 446 48 446 132 C446 217 471 237 517 237 C563 237 587 217 587 132 L587 132 Z M259 352 C259 268 236 249 189 249 C143 249 119 268 119 353 C119 437 143 457 189 457 C236 457 259 437 259 352 L259 352 Z " />
<glyph glyph-name="ampersand" unicode="&#x26;" horiz-adv-x="585" d="M559 0 L549 76 C533 71 516 69 501 69 C496 69 480 72 458 90 C452 94 445 100 438 107 C465 151 484 202 496 252 L423 275 C414 238 403 199 385 165 C345 212 300 276 263 336 L263 337 C316 382 367 438 367 538 C367 636 338 697 236 697 C133 697 107 635 107 538 C107 480 127 422 171 350 L171 349 C161 341 150 333 141 324 C103 287 70 239 70 158 C70 75 104 -9 238 -9 C303 -9 353 15 392 51 C429 17 467 -7 501 -7 C521 -7 540 -4 559 0 L559 0 Z M292 538 C292 482 272 439 242 409 C237 404 232 399 226 394 C222 402 219 409 215 416 C191 463 182 505 182 538 C182 618 198 628 236 628 C272 628 292 616 292 538 L292 538 Z M341 104 C313 75 281 60 238 60 C165 60 147 101 147 158 C147 214 174 256 208 289 L208 288 C233 251 284 169 341 104 L341 104 Z " />
<glyph glyph-name="quotesingle" unicode="&#x27;" horiz-adv-x="217" d="M149 689 L68 689 L79 485 L138 485 L149 689 Z " />
<glyph glyph-name="parenleft" unicode="&#x28;" horiz-adv-x="261" d="M210 -123 C169 6 143 148 143 342 C143 536 169 678 210 807 L136 807 C92 682 65 526 65 342 C65 158 92 2 136 -123 L210 -123 Z " />
<glyph glyph-name="parenright" unicode="&#x29;" horiz-adv-x="261" d="M195 342 C195 526 168 682 124 807 L50 807 C92 678 117 536 117 342 C117 148 92 6 50 -123 L124 -123 C168 2 195 158 195 342 L195 342 Z " />
<glyph glyph-name="asterisk" unicode="&#x2a;" horiz-adv-x="508" d="M440 606 L421 663 L278 608 L284 748 L225 748 L230 609 L230 608 L87 663 L68 606 L216 566 L217 564 L121 445 L170 410 L253 538 L255 538 L339 410 L387 445 L291 564 L292 567 L292 566 L440 606 Z " />
<glyph glyph-name="plus" unicode="&#x2b;" horiz-adv-x="534" d="M480 231 L480 280 L291 280 L291 468 L242 468 L242 280 L54 280 L54 231 L242 231 L242 42 L291 42 L291 231 L480 231 Z " />
<glyph glyph-name="comma" unicode="&#x2c;" horiz-adv-x="236" d="M171 92 L78 92 C79 58 82 -3 81 -3 C75 -30 60 -75 48 -107 L105 -107 C116 -90 127 -72 137 -54 C148 -34 159 -14 168 6 L171 92 Z " />
<glyph glyph-name="hyphen" unicode="&#x2d;" horiz-adv-x="334" d="M281 220 L281 289 L53 289 L53 220 L281 220 Z " />
<glyph glyph-name="period" unicode="&#x2e;" horiz-adv-x="254" d="M174 -1 L174 92 L80 92 L80 -1 L174 -1 Z " />
<glyph glyph-name="slash" unicode="&#x2f;" horiz-adv-x="377" d="M377 807 L298 807 L33 -123 L113 -123 L377 807 Z " />
<glyph glyph-name="zero" unicode="0" horiz-adv-x="507" d="M457 244 C457 428 395 499 254 499 C113 499 50 428 50 244 C50 60 113 -9 254 -9 C395 -9 457 59 457 244 L457 244 Z M379 244 C379 95 337 61 254 61 C171 61 129 95 129 244 C129 393 171 429 254 429 C337 429 379 393 379 244 L379 244 Z " />
<glyph glyph-name="one" unicode="1" horiz-adv-x="308" d="M217 0 L217 489 L30 489 L30 420 L141 420 L141 0 L217 0 Z " />
<glyph glyph-name="two" unicode="2" horiz-adv-x="448" d="M388 0 L388 70 L167 70 L125 68 L125 69 L156 89 L295 200 C350 244 385 284 385 353 C385 413 366 458 319 481 C289 496 245 499 193 499 C170 499 95 495 60 491 L64 418 C89 422 144 428 194 428 C231 428 265 425 282 415 C301 404 309 383 309 351 C309 293 285 277 236 237 L40 79 L40 0 L388 0 Z " />
<glyph glyph-name="three" unicode="3" horiz-adv-x="415" d="M369 -1 C369 79 355 134 293 171 L293 174 C333 207 357 254 357 327 C357 388 345 428 320 453 C290 485 241 499 170 499 C147 499 70 495 37 491 L41 419 C65 422 121 428 169 429 C212 429 247 419 263 402 C276 388 282 364 282 324 C282 260 266 203 177 203 L117 202 L117 133 L186 133 C273 133 295 75 295 -1 C295 -104 231 -138 141 -137 C101 -137 61 -131 30 -124 L25 -196 C62 -202 103 -207 143 -207 C273 -206 369 -145 369 -1 L369 -1 Z " />
<glyph glyph-name="four" unicode="4" horiz-adv-x="519" d="M509 0 L509 69 L389 69 L389 272 L324 272 L313 69 L123 69 L121 72 L137 108 L289 488 L208 488 L40 73 L40 0 L313 0 L313 -201 L389 -201 L389 0 L509 0 Z " />
<glyph glyph-name="five" unicode="5" horiz-adv-x="447" d="M407 -3 C407 59 394 115 355 152 C330 176 294 195 228 195 L149 195 L149 420 L380 420 L380 489 L73 489 L73 127 L220 127 C310 127 333 73 333 -3 C333 -104 265 -141 176 -139 C136 -139 96 -133 65 -126 L60 -199 C97 -204 138 -209 178 -209 C307 -208 407 -144 407 -3 L407 -3 Z " />
<glyph glyph-name="six" unicode="6" horiz-adv-x="509" d="M459 200 C459 355 380 412 269 412 C230 412 178 394 134 362 L133 362 C136 434 144 537 193 586 C223 616 273 625 335 624 C356 624 378 622 400 618 L405 690 C380 695 355 697 331 697 C255 697 187 682 134 629 C64 560 56 418 55 321 C55 210 79 97 124 46 C160 5 202 -9 258 -9 C370 -9 459 50 459 200 L459 200 Z M384 196 C384 87 316 62 260 62 C224 62 199 75 181 95 C152 129 134 205 133 290 C141 296 201 340 269 340 C326 340 384 309 384 196 L384 196 Z " />
<glyph glyph-name="seven" unicode="7" horiz-adv-x="413" d="M383 439 L383 489 L20 489 L20 420 L296 420 L297 419 L272 355 L71 -200 L151 -200 L383 439 Z " />
<glyph glyph-name="eight" unicode="8" horiz-adv-x="514" d="M459 188 C459 273 434 320 380 358 L380 359 C422 392 441 440 441 516 C441 660 363 697 257 697 C152 697 74 660 74 516 C74 440 92 392 134 359 L135 358 C81 320 55 273 55 188 C55 36 146 -8 257 -8 C369 -8 459 36 459 188 L459 188 Z M365 517 C365 441 338 393 257 393 C176 393 150 441 150 517 C150 619 205 625 257 625 C310 625 365 619 365 517 L365 517 Z M382 188 C382 77 314 67 258 67 C201 67 133 77 133 188 C133 268 168 324 257 324 C346 324 382 268 382 188 L382 188 Z " />
<glyph glyph-name="nine" unicode="9" horiz-adv-x="509" d="M454 170 C454 280 431 394 385 445 C349 486 307 499 251 499 C140 499 50 441 50 290 C50 135 129 78 240 78 C279 78 331 96 375 129 L377 129 C374 56 366 -46 316 -96 C286 -126 236 -134 175 -134 C154 -134 132 -132 109 -128 L105 -200 C129 -204 154 -207 178 -206 C254 -206 322 -192 376 -139 C445 -69 454 73 454 170 L454 170 Z M377 200 C368 195 308 151 240 151 C183 151 126 182 126 294 C126 403 193 429 250 429 C285 429 310 416 328 395 C357 362 376 285 377 200 L377 200 Z " />
<glyph glyph-name="colon" unicode="&#x3a;" horiz-adv-x="284" d="M189 245 L189 338 L96 338 L96 245 L189 245 Z M189 -1 L189 92 L96 92 L96 -1 L189 -1 Z " />
<glyph glyph-name="semicolon" unicode="&#x3b;" horiz-adv-x="284" d="M186 245 L186 338 L93 338 L93 245 L186 245 Z M188 92 L95 92 C96 58 99 -3 99 -3 C92 -30 77 -75 65 -107 L122 -107 C133 -90 144 -72 154 -54 C166 -34 176 -14 185 6 L188 92 Z " />
<glyph glyph-name="less" unicode="&#x3c;" horiz-adv-x="493" d="M443 455 L58 285 L58 216 L443 47 L443 100 L135 235 L98 252 L135 267 L443 401 L443 455 Z " />
<glyph glyph-name="equal" unicode="&#x3d;" horiz-adv-x="533" d="M470 295 L470 344 L62 344 L62 295 L470 295 Z M470 166 L470 215 L62 215 L62 166 L470 166 Z " />
<glyph glyph-name="greater" unicode="&#x3e;" horiz-adv-x="493" d="M435 216 L435 285 L50 455 L50 401 L359 267 L396 252 L359 235 L51 100 L50 47 L435 216 Z " />
<glyph glyph-name="question" unicode="&#x3f;" horiz-adv-x="346" d="M326 582 C326 617 318 641 301 658 C270 691 214 697 161 697 C133 697 74 696 42 690 L47 618 C77 624 127 630 160 630 C199 630 254 624 254 580 C254 531 243 526 205 499 C168 474 136 460 112 436 C91 415 78 388 78 343 C78 313 86 288 95 267 C95 267 115 216 130 189 L197 223 C187 242 168 289 168 289 C160 308 156 326 156 343 C156 397 204 415 237 438 C291 474 326 504 326 582 L326 582 Z M204 -1 L204 92 L111 92 L111 -1 L204 -1 Z " />
<glyph glyph-name="at" unicode="&#x40;" horiz-adv-x="827" d="M752 233 C752 510 644 637 415 637 C185 637 64 508 64 231 C64 -46 176 -172 405 -172 C462 -172 515 -160 564 -138 L555 -78 C511 -103 459 -113 405 -113 C221 -113 123 -28 123 231 C123 491 230 578 415 578 C599 578 696 493 696 233 C696 173 685 58 611 58 C541 58 535 144 555 233 L593 409 C543 432 489 449 437 450 C385 450 336 435 294 393 C263 362 227 301 210 233 C182 125 193 9 306 9 C391 9 461 90 493 156 C487 80 517 5 611 5 C722 5 752 119 752 233 L752 233 Z M516 368 C503 305 506 328 498 287 C484 223 388 71 320 71 C254 71 258 155 280 233 C296 286 323 332 340 351 C363 374 394 387 426 387 C458 387 490 381 516 368 L516 368 Z " />
<glyph glyph-name="A" unicode="A" horiz-adv-x="568" d="M543 0 L343 695 L225 695 L25 0 L111 0 L153 149 L415 149 L457 0 L543 0 Z M394 224 L174 224 L266 557 L284 627 L285 627 L302 556 L394 224 Z " />
<glyph glyph-name="B" unicode="B" horiz-adv-x="523" d="M483 194 C483 265 450 339 390 355 L390 356 C439 375 470 444 470 507 C470 616 438 689 321 689 L75 689 L76 0 L311 0 C437 0 483 77 483 194 L483 194 Z M392 507 C392 442 375 390 299 390 L156 390 L156 622 L313 622 C382 622 392 571 392 507 L392 507 Z M403 194 C403 121 387 71 302 71 L157 71 L157 317 L299 317 C382 317 403 262 403 194 L403 194 Z " />
<glyph glyph-name="C" unicode="C" horiz-adv-x="505" d="M475 685 C428 694 387 697 324 697 C130 697 50 598 50 345 C50 93 130 -7 324 -7 C387 -7 427 -4 475 5 L470 85 C414 74 377 69 323 69 C198 69 136 125 136 345 C136 565 198 621 323 621 C377 621 415 616 470 606 L475 685 Z " />
<glyph glyph-name="D" unicode="D" horiz-adv-x="587" d="M537 343 C537 483 515 585 458 638 C411 681 373 689 287 689 L75 689 L75 0 L287 0 C378 0 418 9 464 56 C517 110 537 209 537 343 L537 343 Z M449 344 C449 227 435 149 397 111 C364 77 315 77 256 77 L157 77 L157 613 L256 613 C314 613 363 613 396 579 C434 541 449 462 449 344 L449 344 Z " />
<glyph glyph-name="E" unicode="E" horiz-adv-x="476" d="M454 0 L454 75 L156 75 L156 317 L367 317 L367 391 L156 391 L156 614 L454 614 L454 689 L75 689 L75 0 L454 0 Z " />
<glyph glyph-name="F" unicode="F" horiz-adv-x="460" d="M454 614 L454 689 L75 689 L75 0 L156 0 L156 317 L367 317 L367 391 L156 391 L156 614 L454 614 Z " />
<glyph glyph-name="G" unicode="G" horiz-adv-x="586" d="M530 315 L449 315 L449 84 C422 72 365 68 334 68 C208 68 136 124 136 344 C136 564 208 621 334 621 C389 621 440 619 491 607 L496 686 C449 693 397 697 335 697 C140 697 50 597 50 345 C50 93 140 -9 335 -9 C397 -9 485 7 530 19 L530 315 Z " />
<glyph glyph-name="H" unicode="H" horiz-adv-x="620" d="M544 0 L544 689 L463 689 L463 391 L156 391 L156 689 L75 689 L75 0 L156 0 L156 317 L463 317 L463 0 L544 0 Z " />
<glyph glyph-name="I" unicode="I" horiz-adv-x="232" d="M156 0 L156 689 L75 689 L75 0 L156 0 Z " />
<glyph glyph-name="J" unicode="J" horiz-adv-x="350" d="M280 689 L198 689 L198 172 C198 72 191 67 122 67 C67 67 33 71 5 75 L0 0 C29 -5 92 -9 124 -9 C251 -9 279 27 280 172 L280 689 Z " />
<glyph glyph-name="K" unicode="K" horiz-adv-x="522" d="M516 0 L285 402 L501 689 L406 689 L158 356 L156 356 L156 689 L75 689 L75 0 L156 0 L156 229 L230 329 L233 329 L422 0 L516 0 Z " />
<glyph glyph-name="L" unicode="L" horiz-adv-x="451" d="M445 0 L445 75 L156 75 L156 689 L75 689 L75 0 L445 0 Z " />
<glyph glyph-name="M" unicode="M" horiz-adv-x="794" d="M719 0 L719 689 L575 689 L421 161 L400 77 L398 77 L375 161 L220 689 L75 689 L75 0 L156 0 L156 616 L159 616 L192 493 L342 0 L452 0 L601 491 L636 618 L638 618 L638 0 L719 0 Z " />
<glyph glyph-name="N" unicode="N" horiz-adv-x="628" d="M553 0 L553 689 L472 689 L472 87 L470 87 L434 176 L205 689 L75 689 L75 0 L156 0 L156 600 L158 600 L193 516 L427 0 L553 0 Z " />
<glyph glyph-name="O" unicode="O" horiz-adv-x="626" d="M576 343 C576 595 508 697 314 697 C119 697 50 596 50 343 C50 91 119 -9 314 -9 C508 -9 576 91 576 343 L576 343 Z M488 344 C488 123 438 69 313 69 C187 69 136 124 136 344 C136 564 187 621 313 621 C438 621 488 564 488 344 L488 344 Z " />
<glyph glyph-name="P" unicode="P" horiz-adv-x="479" d="M469 480 C469 595 430 689 306 689 L76 689 L75 0 L156 0 L156 273 L306 273 C432 273 469 363 469 480 L469 480 Z M393 480 C393 409 385 342 302 342 L156 342 L156 620 L303 620 C383 620 393 548 393 480 L393 480 Z " />
<glyph glyph-name="Q" unicode="Q" horiz-adv-x="620" d="M620 -140 L615 -67 C589 -74 564 -78 548 -78 C486 -78 441 -27 371 -7 L371 -5 C522 14 576 117 576 343 C576 595 508 697 314 697 C119 697 50 596 50 343 C50 121 104 17 251 -4 L251 -6 C219 -12 189 -22 163 -33 L173 -108 C216 -90 271 -71 314 -71 C398 -71 446 -151 548 -151 C568 -151 594 -147 620 -140 L620 -140 Z M488 344 C488 123 438 69 313 69 C187 69 136 124 136 344 C136 564 187 621 313 621 C438 621 488 564 488 344 L488 344 Z " />
<glyph glyph-name="R" unicode="R" horiz-adv-x="508" d="M471 0 L341 295 L341 297 C441 309 469 382 469 488 C469 603 434 689 309 689 L75 689 L76 0 L156 0 L156 293 L261 293 L389 0 L471 0 Z M393 488 C393 418 389 362 306 362 L156 362 L156 620 L307 619 C387 619 393 557 393 488 L393 488 Z " />
<glyph glyph-name="S" unicode="S" horiz-adv-x="450" d="M423 148 C423 241 383 279 313 331 L160 444 C129 467 110 494 110 549 C110 604 164 622 229 622 C272 622 335 617 381 611 L386 691 C340 697 268 697 231 697 C114 697 27 652 27 549 C27 444 75 407 126 370 L271 263 C320 226 342 215 342 148 C342 78 271 66 196 66 C153 66 89 71 44 78 L38 -2 C84 -8 156 -9 194 -9 C318 -9 423 38 423 148 L423 148 Z " />
<glyph glyph-name="T" unicode="T" horiz-adv-x="469" d="M453 613 L453 689 L16 689 L16 614 L194 614 L194 0 L275 0 L275 613 L453 613 Z " />
<glyph glyph-name="U" unicode="U" horiz-adv-x="601" d="M531 689 L450 689 L450 182 C450 100 373 66 300 66 C227 66 151 100 151 182 L151 689 L70 689 L70 186 C70 33 210 -9 301 -9 C391 -9 530 33 530 186 L531 689 Z " />
<glyph glyph-name="V" unicode="V" horiz-adv-x="572" d="M545 688 L459 688 L304 138 L287 70 L285 70 L268 138 L113 688 L27 688 L227 -7 L345 -7 L545 688 Z " />
<glyph glyph-name="W" unicode="W" horiz-adv-x="865" d="M828 688 L744 688 L632 137 L621 64 L620 64 L609 136 L495 688 L370 688 L259 137 L248 64 L246 64 L236 136 L122 688 L37 688 L186 -7 L307 -7 L419 524 L433 599 L434 599 L447 524 L560 -7 L680 -7 L828 688 Z " />
<glyph glyph-name="X" unicode="X" horiz-adv-x="558" d="M538 0 L329 344 L538 689 L440 689 L282 414 L280 414 L120 689 L22 689 L232 344 L20 0 L118 0 L280 275 L282 275 L440 0 L538 0 Z " />
<glyph glyph-name="Y" unicode="Y" horiz-adv-x="525" d="M510 689 L417 689 L264 361 L262 361 L106 689 L15 689 L222 287 L222 0 L303 0 L303 286 L510 689 Z " />
<glyph glyph-name="Z" unicode="Z" horiz-adv-x="491" d="M459 75 L179 76 L137 75 L136 75 L154 103 L459 632 L459 689 L32 689 L32 614 L306 614 L356 615 L357 614 L332 572 L32 50 L32 0 L459 0 L459 75 Z " />
<glyph glyph-name="bracketleft" unicode="&#x5b;" horiz-adv-x="282" d="M249 -123 L249 -47 L161 -47 L161 732 L249 732 L249 807 L80 807 L80 -123 L249 -123 Z " />
<glyph glyph-name="backslash" unicode="&#x5c;" horiz-adv-x="377" d="M344 -123 L80 807 L0 807 L265 -123 L344 -123 Z " />
<glyph glyph-name="bracketright" unicode="&#x5d;" horiz-adv-x="282" d="M201 -123 L201 807 L32 807 L32 732 L120 732 L120 -47 L32 -47 L32 -123 L201 -123 Z " />
<glyph glyph-name="asciicircum" unicode="&#x5e;" horiz-adv-x="529" d="M477 233 L292 690 L238 690 L52 233 L125 233 L250 549 L266 592 L280 548 L404 233 L477 233 Z " />
<glyph glyph-name="underscore" unicode="&#x5f;" horiz-adv-x="628" d="M630 -49 L630 0 L-2 0 L-2 -49 L630 -49 Z " />
<glyph glyph-name="grave" unicode="&#x60;" horiz-adv-x="508" d="M317 540 L260 686 L167 686 L258 540 L317 540 Z " />
<glyph glyph-name="a" unicode="a" horiz-adv-x="438" d="M382 0 L382 361 C382 448 318 477 230 477 C163 477 126 473 72 460 L77 388 C115 401 180 413 223 413 C277 413 307 394 307 350 L307 274 C248 272 156 272 100 245 C45 217 35 166 35 119 C35 38 94 -8 161 -10 C211 -11 263 -5 315 26 L318 26 L324 0 L382 0 Z M307 91 C262 64 223 57 171 57 C138 57 112 85 113 121 C113 147 118 176 141 188 C182 210 265 212 306 213 L307 91 Z " />
<glyph glyph-name="b" unicode="b" horiz-adv-x="485" d="M445 234 C445 400 396 478 273 478 C232 478 195 470 143 444 L142 443 L142 720 L65 720 L65 0 L123 0 L131 28 L133 28 C183 -1 232 -9 272 -9 C411 -9 445 119 445 234 L445 234 Z M367 234 C367 169 357 61 269 61 C218 61 165 78 141 93 L141 369 C163 386 221 408 272 408 C340 408 367 364 367 234 L367 234 Z " />
<glyph glyph-name="c" unicode="c" horiz-adv-x="395" d="M365 0 L360 72 C330 66 279 61 246 61 C169 61 118 92 118 233 C118 374 169 408 246 408 C279 408 330 402 360 397 L365 469 C333 475 274 477 246 477 C110 477 40 409 40 233 C40 57 110 -9 246 -9 C274 -9 333 -6 365 0 L365 0 Z " />
<glyph glyph-name="d" unicode="d" horiz-adv-x="484" d="M419 0 L419 720 L343 720 L343 459 L341 459 C309 472 272 477 233 477 C97 477 40 409 40 233 C40 67 89 -9 212 -9 C253 -9 302 -1 351 28 L354 28 L361 0 L419 0 Z M343 93 C319 78 267 61 216 61 C147 61 118 103 118 233 C118 374 156 409 233 409 C276 409 303 403 343 386 L343 93 Z " />
<glyph glyph-name="e" unicode="e" horiz-adv-x="442" d="M402 282 C402 355 388 404 359 435 C332 465 289 477 237 477 C100 477 40 409 40 233 C40 57 110 -9 246 -9 C296 -9 348 -2 386 6 L381 78 C344 70 304 61 246 61 C171 61 120 90 118 224 L402 224 L402 282 Z M325 284 L121 284 C128 384 163 408 237 408 C265 408 286 403 299 390 C319 372 325 338 325 284 L325 284 Z " />
<glyph glyph-name="f" unicode="f" horiz-adv-x="361" d="M361 717 C308 730 300 731 233 731 C146 731 103 681 102 594 L102 468 L30 457 L30 398 L102 398 L102 0 L178 0 L178 398 L329 398 L329 468 L178 468 C178 520 177 580 177 580 C177 624 186 665 241 665 C288 665 319 659 357 647 L361 717 Z " />
<glyph glyph-name="g" unicode="g" horiz-adv-x="475" d="M455 403 L450 472 C422 466 393 461 352 461 C331 461 312 462 292 468 C272 474 249 477 225 477 C121 477 50 427 50 291 C50 209 77 161 116 134 L116 133 L86 100 C67 79 60 56 60 39 C60 4 91 -14 91 -14 L91 -15 C60 -43 40 -85 40 -119 C40 -156 56 -185 77 -204 C106 -230 169 -235 205 -235 C274 -235 351 -229 399 -183 C423 -161 438 -126 438 -82 C438 -16 405 37 307 37 L165 37 C126 37 143 67 155 80 L180 109 C193 107 211 105 225 105 C331 105 397 153 397 290 C397 332 386 366 373 392 L373 394 C398 396 432 397 455 403 L455 403 Z M325 291 C325 197 281 174 224 174 C167 174 124 197 124 291 C124 383 169 408 225 408 C281 408 325 383 325 291 L325 291 Z M361 -79 C361 -113 350 -135 326 -147 C292 -165 246 -166 211 -166 C196 -166 152 -165 137 -150 C127 -140 120 -122 120 -104 C120 -77 140 -50 173 -27 L303 -27 C351 -27 361 -58 361 -79 L361 -79 Z " />
<glyph glyph-name="h" unicode="h" horiz-adv-x="484" d="M429 361 C429 448 358 477 297 477 C247 477 205 474 142 444 L141 444 L141 720 L65 720 L65 0 L141 0 L141 373 C166 392 227 410 289 410 C314 410 353 392 353 348 L353 0 L429 0 L429 361 Z " />
<glyph glyph-name="i" unicode="i" horiz-adv-x="214" d="M154 568 L154 662 L60 662 L60 568 L154 568 Z M146 0 L146 468 L70 468 L70 0 L146 0 Z " />
<glyph glyph-name="j" unicode="j" horiz-adv-x="218" d="M157 568 L157 661 L64 661 L64 568 L157 568 Z M149 -74 L149 468 L74 468 L74 -68 C74 -161 70 -166 13 -166 C-17 -166 -53 -160 -76 -156 L-80 -228 C-56 -233 -15 -236 15 -236 C126 -236 149 -207 149 -74 L149 -74 Z " />
<glyph glyph-name="k" unicode="k" horiz-adv-x="429" d="M419 0 L257 294 L398 468 L304 468 L163 290 L144 265 L142 265 L142 720 L65 720 L66 0 L142 0 L142 153 L205 231 L208 231 L221 205 L335 0 L419 0 Z " />
<glyph glyph-name="l" unicode="l" horiz-adv-x="208" d="M142 0 L142 720 L65 720 L67 0 L142 0 Z " />
<glyph glyph-name="m" unicode="m" horiz-adv-x="704" d="M649 361 C649 446 589 477 524 477 C509 477 450 481 372 437 L371 437 C341 470 308 477 268 477 C216 477 175 465 127 439 L125 440 L118 468 L60 468 L60 0 L136 0 L136 373 C163 392 203 410 259 410 C285 410 317 392 317 348 L317 0 L392 0 C392 0 393 283 393 374 C426 395 460 405 516 405 C542 405 573 388 573 344 L573 0 L649 0 L649 361 Z " />
<glyph glyph-name="n" unicode="n" horiz-adv-x="479" d="M424 361 C424 448 353 477 292 477 C240 477 194 474 127 439 L125 440 L119 468 L60 468 L60 0 L136 0 L136 373 C161 392 222 410 284 410 C309 410 348 392 348 348 L348 0 L424 0 L424 361 Z " />
<glyph glyph-name="o" unicode="o" horiz-adv-x="491" d="M451 233 C451 409 381 477 246 477 C110 477 40 409 40 233 C40 58 110 -9 246 -9 C381 -9 451 57 451 233 L451 233 Z M373 233 C373 92 323 61 246 61 C169 61 118 92 118 233 C118 374 169 408 246 408 C323 408 373 374 373 233 L373 233 Z " />
<glyph glyph-name="p" unicode="p" horiz-adv-x="484" d="M444 234 C444 401 396 476 272 476 C231 476 183 469 133 440 L131 440 L123 467 L65 467 L65 -232 L141 -232 L141 8 L143 8 C175 -4 213 -10 252 -10 C387 -10 444 58 444 234 L444 234 Z M366 234 C366 93 329 58 252 58 C208 58 181 65 141 82 L141 374 C165 389 218 406 268 406 C337 406 366 365 366 234 L366 234 Z " />
<glyph glyph-name="q" unicode="q" horiz-adv-x="485" d="M420 -232 L419 467 L362 467 L354 440 L351 440 C302 469 253 476 212 476 C73 476 40 348 40 234 C40 67 89 -10 212 -10 C253 -10 290 -2 342 24 L343 24 L343 -232 L420 -232 Z M344 99 C322 81 264 59 213 59 C145 59 118 103 118 234 C118 298 128 406 216 406 C267 406 320 389 344 374 L344 99 Z " />
<glyph glyph-name="r" unicode="r" horiz-adv-x="309" d="M294 472 C280 477 264 477 248 477 C191 477 161 455 130 420 L127 420 L117 468 L60 468 L60 0 L136 0 L136 342 C157 375 202 404 239 404 C252 404 274 407 290 401 L294 472 Z " />
<glyph glyph-name="s" unicode="s" horiz-adv-x="389" d="M354 110 C354 186 318 211 266 241 L159 304 C137 316 119 332 119 362 C119 396 168 410 207 410 C240 410 289 405 319 400 L324 471 C293 477 234 477 206 477 C125 477 40 445 40 362 C40 287 90 258 127 236 L225 178 C255 160 278 151 278 112 C278 72 226 58 180 58 C147 58 93 64 63 69 L58 -3 C90 -9 152 -9 180 -9 C266 -9 354 28 354 110 L354 110 Z " />
<glyph glyph-name="t" unicode="t" horiz-adv-x="347" d="M319 399 L319 468 L178 468 L178 607 L102 607 L102 468 L30 457 L30 398 L102 398 L102 76 C102 19 123 -9 180 -9 C208 -9 267 -6 298 0 L294 72 C267 67 240 61 202 61 C180 61 178 72 178 85 L178 399 L319 399 Z " />
<glyph glyph-name="u" unicode="u" horiz-adv-x="479" d="M419 0 L419 468 L343 468 L343 95 C319 76 258 58 196 58 C170 58 131 76 131 120 L131 468 L55 468 L55 107 C55 20 126 -9 187 -9 C239 -9 285 -5 352 29 L354 28 L361 0 L419 0 Z " />
<glyph glyph-name="v" unicode="v" horiz-adv-x="423" d="M410 468 L328 468 L226 128 L211 71 L210 72 L196 129 L95 468 L13 468 L163 -6 L260 -6 L410 468 Z " />
<glyph glyph-name="w" unicode="w" horiz-adv-x="682" d="M657 468 L575 468 L501 130 L488 58 L486 58 L473 129 L392 468 L286 468 L211 132 L198 62 L196 62 L182 131 L106 468 L25 468 L140 -6 L248 -6 L328 335 L339 390 L341 390 L352 334 L434 -6 L542 -6 L657 468 Z " />
<glyph glyph-name="x" unicode="x" horiz-adv-x="408" d="M389 468 L300 468 L205 297 L203 297 L108 468 L18 468 L159 234 L19 0 L107 0 L202 171 L205 171 L300 0 L388 0 L248 234 L389 468 Z " />
<glyph glyph-name="y" unicode="y" horiz-adv-x="421" d="M408 468 L326 468 L227 144 L212 87 L211 87 L197 144 L93 468 L11 468 L176 -19 L168 -48 C152 -103 132 -166 64 -166 C39 -166 23 -160 5 -156 L0 -228 C19 -232 37 -236 63 -236 C176 -237 203 -173 234 -75 L408 468 Z " />
<glyph glyph-name="z" unicode="z" horiz-adv-x="397" d="M362 70 L158 70 L128 68 L127 69 L148 99 L361 410 L361 468 L46 468 L46 398 L267 398 L269 397 L250 371 L35 58 L35 0 L361 0 L362 70 Z " />
<glyph glyph-name="braceleft" unicode="&#x7b;" horiz-adv-x="303" d="M271 -123 L271 -47 L209 -47 C194 -47 190 -39 190 -21 L199 223 C201 263 194 315 141 341 L141 342 C194 368 201 419 199 459 L190 705 C190 723 194 731 209 731 L271 731 L271 807 L172 807 C123 807 105 798 108 735 L118 481 C122 396 70 378 6 351 L6 331 C70 304 122 286 118 201 L108 -51 C105 -114 123 -123 172 -123 L271 -123 Z " />
<glyph glyph-name="bar" unicode="&#x7c;" horiz-adv-x="219" d="M135 -123 L135 807 L85 807 L85 -123 L135 -123 Z " />
<glyph glyph-name="braceright" unicode="&#x7d;" horiz-adv-x="303" d="M297 331 L297 351 C233 378 182 396 185 481 L196 735 C198 798 181 807 131 807 L32 807 L32 731 L94 731 C109 731 114 723 113 705 L104 459 C103 419 109 368 162 342 L162 341 C109 315 103 263 104 223 L113 -21 C114 -39 109 -47 94 -47 L32 -47 L32 -123 L131 -123 C181 -123 198 -114 196 -51 L185 201 C182 286 233 304 297 331 L297 331 Z " />
<glyph glyph-name="asciitilde" unicode="&#x7e;" horiz-adv-x="574" d="M530 250 L525 307 C482 282 444 260 388 260 C325 260 263 307 187 307 C123 307 97 292 44 258 L49 197 C106 232 147 248 182 248 C202 248 217 245 248 234 C311 209 340 203 384 203 C429 203 453 207 490 227 L530 250 Z " />
<glyph glyph-name="nbspace" unicode="&#xa0;" horiz-adv-x="243" d="" />
<glyph glyph-name="exclamdown" unicode="&#xa1;" horiz-adv-x="315" d="M204 375 L204 468 L111 468 L111 375 L204 375 Z M201 -225 L197 288 L119 288 L113 -225 L201 -225 Z " />
<glyph glyph-name="cent" unicode="&#xa2;" horiz-adv-x="433" d="M393 485 C359 492 323 497 285 499 L285 604 L240 604 L241 498 C112 489 50 410 50 245 C50 79 112 1 240 -8 L240 -113 L285 -113 L285 -8 C322 -7 358 -2 392 6 L387 78 C342 68 315 62 264 62 C182 62 130 97 130 246 C130 394 183 429 264 429 C316 429 342 423 387 412 L393 485 Z " />
<glyph glyph-name="sterling" unicode="&#xa3;" horiz-adv-x="483" d="M433 0 L433 69 L259 69 L216 67 L216 68 C224 82 228 120 228 137 L228 202 L357 202 L357 272 L228 272 L228 318 C228 418 231 430 295 430 C350 430 379 426 406 421 L411 490 C382 495 330 499 297 499 C179 499 151 463 152 318 L153 272 L75 261 L75 202 L153 202 L153 119 C153 104 152 82 142 69 L75 69 L75 0 L433 0 Z " />
<glyph glyph-name="currency" unicode="&#xa4;" horiz-adv-x="431" d="M391 485 C351 494 308 499 263 499 C137 499 60 439 42 309 L-10 309 L-10 264 L39 264 C38 257 38 251 38 245 C38 238 38 231 39 224 L-10 224 L-10 179 L43 179 C61 50 137 -9 263 -9 C308 -9 350 -3 390 6 L385 78 C340 68 313 62 262 62 C194 62 140 86 123 179 L264 179 L284 224 L119 224 C118 231 118 238 118 246 L118 264 L303 264 L323 309 L123 309 C139 404 194 429 262 429 C314 429 340 423 385 412 L391 485 Z " />
<glyph glyph-name="yen" unicode="&#xa5;" horiz-adv-x="483" d="M443 489 L356 489 L242 276 L126 489 L40 489 L199 214 L85 214 L85 169 L203 169 L203 130 L85 130 L85 85 L203 85 L203 0 L280 0 L280 85 L409 85 L409 130 L280 130 L280 169 L409 169 L409 214 L284 214 L443 489 Z " />
<glyph glyph-name="brokenbar" unicode="&#xa6;" horiz-adv-x="219" d="M135 378 L135 807 L85 807 L85 378 L135 378 Z M135 -123 L135 309 L85 309 L85 -123 L135 -123 Z " />
<glyph glyph-name="section" unicode="&#xa7;" horiz-adv-x="480" d="M453 148 C453 241 413 279 343 331 L191 444 C160 467 140 494 140 549 C140 604 194 622 259 622 C302 622 366 617 411 611 L417 691 C371 697 299 697 261 697 C144 697 57 652 57 549 C57 494 70 458 90 431 C51 407 27 369 27 315 C27 210 75 174 126 136 L271 29 C320 -8 342 -19 342 -86 C342 -155 271 -168 196 -168 C153 -168 89 -163 44 -156 L38 -236 C84 -242 156 -242 194 -242 C318 -242 423 -196 423 -86 C423 -35 411 0 388 29 C429 55 453 94 453 148 L453 148 Z M372 148 C372 116 357 96 333 82 C327 87 320 92 313 97 L160 210 C129 233 110 260 110 315 C110 343 124 363 146 377 L156 370 L301 263 C350 226 372 215 372 148 L372 148 Z " />
<glyph glyph-name="dieresis" unicode="&#xa8;" horiz-adv-x="508" d="M377 572 L377 656 L293 656 L293 572 L377 572 Z M217 572 L217 656 L133 656 L133 572 L217 572 Z " />
<glyph glyph-name="copyright" unicode="&#xa9;" horiz-adv-x="568" d="M508 244 C508 431 426 499 284 499 C143 499 60 431 60 244 C60 57 142 -9 284 -9 C425 -9 508 57 508 244 L508 244 Z M448 244 C448 85 378 45 284 45 C191 45 120 85 120 244 C120 403 190 444 284 444 C378 444 448 403 448 244 L448 244 Z M366 373 C337 379 315 382 292 382 C212 382 174 337 174 245 C174 153 212 108 291 108 C315 108 337 111 366 118 L362 174 C328 166 315 163 291 163 C257 163 234 175 234 245 C234 316 257 327 291 327 C316 327 328 324 362 316 L366 373 Z " />
<glyph glyph-name="ordfeminine" unicode="&#xaa;" horiz-adv-x="371" d="M316 340 L315 607 C315 676 262 698 196 698 C147 698 119 696 72 684 L77 617 C113 629 160 637 191 637 C229 637 246 624 245 599 L245 552 C225 551 201 551 176 548 C102 541 45 520 45 433 C45 362 96 333 157 333 C190 333 221 339 254 356 L256 356 L260 340 L316 340 Z M245 417 C215 400 190 396 163 396 C126 396 117 418 117 440 C117 455 125 471 136 477 C162 491 213 492 245 493 L245 417 Z " />
<glyph glyph-name="guillemotleft" unicode="&#xab;" horiz-adv-x="507" d="M457 417 L370 417 L214 229 L214 221 L362 41 L449 41 L294 226 L457 417 Z M280 417 L193 417 L37 229 L37 221 L186 41 L272 41 L117 226 L280 417 Z " />
<glyph glyph-name="logicalnot" unicode="&#xac;" horiz-adv-x="661" d="M575 -1 L575 489 L86 489 L86 -1 L575 -1 Z M516 59 L145 59 L145 430 L516 430 L516 59 Z " />
<glyph glyph-name="registered" unicode="&#xae;" horiz-adv-x="568" d="M508 244 C508 431 426 499 284 499 C143 499 60 431 60 244 C60 57 142 -9 284 -9 C425 -9 508 57 508 244 L508 244 Z M448 244 C448 85 378 45 284 45 C191 45 120 85 120 244 C120 403 190 445 284 445 C378 445 448 403 448 244 L448 244 Z M385 113 L336 214 C368 227 375 260 375 292 C375 334 359 377 302 377 L196 377 L195 113 L253 113 L253 208 L279 208 L323 113 L385 113 Z M319 292 C319 267 316 261 301 261 L253 261 L253 324 L302 324 C315 324 319 317 319 292 L319 292 Z " />
<glyph glyph-name="macron" unicode="&#xaf;" horiz-adv-x="508" d="M398 577 L398 642 L118 642 L118 577 L398 577 Z " />
<glyph glyph-name="degree" unicode="&#xb0;" horiz-adv-x="332" d="M263 651 C263 705 220 748 166 748 C112 748 68 705 68 651 C68 597 112 554 166 554 C220 554 263 597 263 651 L263 651 Z M221 651 C221 620 196 596 166 596 C135 596 110 620 110 651 C110 682 135 707 166 707 C196 707 221 682 221 651 L221 651 Z " />
<glyph glyph-name="plusminus" unicode="&#xb1;" horiz-adv-x="534" d="M480 262 L480 311 L291 311 L291 468 L242 468 L242 311 L54 311 L54 262 L242 262 L242 106 L291 106 L291 262 L480 262 Z M478 -1 L478 48 L55 48 L55 -1 L478 -1 Z " />
<glyph glyph-name="acute" unicode="&#xb4;" horiz-adv-x="508" d="M339 686 L246 686 L189 540 L248 540 L339 686 Z " />
<glyph glyph-name="paragraph" unicode="&#xb6;" horiz-adv-x="493" d="M408 609 L203 609 C72 609 25 533 25 412 C25 289 70 217 202 217 L202 -126 L270 -126 L270 551 L340 551 L340 -126 L408 -126 L408 609 Z " />
<glyph glyph-name="periodcentered" unicode="&#xb7;" horiz-adv-x="254" d="M174 192 L174 285 L80 285 L80 192 L174 192 Z " />
<glyph glyph-name="cedilla" unicode="&#xb8;" horiz-adv-x="508" d="M312 -123 C312 -86 299 -66 271 -46 C267 -42 261 -40 261 -34 C261 -28 261 -28 265 -22 L281 0 L216 0 C208 -14 199 -26 199 -40 C199 -51 203 -61 212 -69 C234 -87 254 -91 254 -123 C254 -150 242 -158 225 -158 C208 -158 187 -152 169 -149 L167 -199 C202 -203 217 -204 232 -204 C260 -204 279 -196 292 -183 C305 -170 312 -152 312 -123 L312 -123 Z " />
<glyph glyph-name="ordmasculine" unicode="&#xba;" horiz-adv-x="398" d="M358 515 C358 645 304 698 199 698 C94 698 40 645 40 515 C40 385 95 334 199 334 C304 334 358 385 358 515 L358 515 Z M286 515 C286 417 251 398 199 398 C148 398 113 417 113 515 C113 614 148 634 199 634 C251 634 286 614 286 515 L286 515 Z " />
<glyph glyph-name="guillemotright" unicode="&#xbb;" horiz-adv-x="507" d="M470 221 L470 229 L314 417 L227 417 L390 226 L235 41 L321 41 L470 221 Z M293 221 L293 229 L137 417 L50 417 L213 226 L58 41 L145 41 L293 221 Z " />
<glyph glyph-name="onequarter" unicode="&#xbc;" horiz-adv-x="243" d="" />
<glyph glyph-name="questiondown" unicode="&#xbf;" horiz-adv-x="346" d="M235 375 L235 468 L142 468 L142 375 L235 375 Z M304 -233 L299 -161 C269 -167 220 -173 187 -173 C148 -173 93 -167 93 -123 C93 -74 103 -69 142 -42 C178 -17 210 -3 234 21 C255 42 268 69 268 114 C268 144 261 168 251 190 C251 190 232 241 217 268 L150 234 C159 215 179 168 179 168 C187 149 191 131 191 114 C191 60 143 42 109 19 C56 -17 20 -47 20 -125 C20 -160 29 -184 45 -201 C77 -234 133 -240 186 -240 C214 -240 273 -239 304 -233 L304 -233 Z " />
<glyph glyph-name="Agrave" unicode="&#xc0;" horiz-adv-x="568" d="M313 758 L256 903 L163 903 L254 758 L313 758 Z M543 0 L343 695 L225 695 L25 0 L111 0 L153 149 L415 149 L457 0 L543 0 Z M394 224 L174 224 L266 557 L284 627 L285 627 L302 556 L394 224 Z " />
<glyph glyph-name="Aacute" unicode="&#xc1;" horiz-adv-x="568" d="M405 903 L313 903 L256 758 L315 758 L405 903 Z M543 0 L343 695 L225 695 L25 0 L111 0 L153 149 L415 149 L457 0 L543 0 Z M394 224 L174 224 L266 557 L284 627 L285 627 L302 556 L394 224 Z " />
<glyph glyph-name="Acircumflex" unicode="&#xc2;" horiz-adv-x="568" d="M416 758 L323 900 L246 900 L153 758 L228 758 L285 856 L342 758 L416 758 Z M543 0 L343 695 L225 695 L25 0 L111 0 L153 149 L415 149 L457 0 L543 0 Z M394 224 L174 224 L266 557 L284 627 L285 627 L302 556 L394 224 Z " />
<glyph glyph-name="Atilde" unicode="&#xc3;" horiz-adv-x="568" d="M430 804 L424 871 C402 856 383 842 353 843 C305 845 265 867 213 869 C189 870 151 855 134 844 L142 779 C163 793 182 807 211 806 C259 804 300 781 352 779 C375 778 414 793 430 804 L430 804 Z M543 0 L343 695 L225 695 L25 0 L111 0 L153 149 L415 149 L457 0 L543 0 Z M394 224 L174 224 L266 557 L284 627 L285 627 L302 556 L394 224 Z " />
<glyph glyph-name="Adieresis" unicode="&#xc4;" horiz-adv-x="568" d="M406 790 L406 874 L323 874 L323 790 L406 790 Z M246 790 L246 874 L162 874 L162 790 L246 790 Z M543 0 L343 695 L225 695 L25 0 L111 0 L153 149 L415 149 L457 0 L543 0 Z M394 224 L174 224 L266 557 L284 627 L285 627 L302 556 L394 224 Z " />
<glyph glyph-name="Aring" unicode="&#xc5;" horiz-adv-x="568" d="M360 827 C360 867 327 900 287 900 C246 900 214 867 214 827 C214 787 246 754 287 754 C327 754 360 787 360 827 L360 827 Z M543 0 L343 695 L225 695 L25 0 L111 0 L153 149 L415 149 L457 0 L543 0 Z M318 827 C318 810 304 796 287 796 C269 796 255 810 255 827 C255 844 269 858 287 858 C304 858 318 844 318 827 L318 827 Z M394 224 L174 224 L266 557 L284 627 L285 627 L302 556 L394 224 Z " />
<glyph glyph-name="AE" unicode="&#xc6;" horiz-adv-x="848" d="M826 0 L826 75 L528 75 L528 317 L739 317 L739 391 L528 391 L528 614 L826 614 L826 689 L395 689 L25 0 L118 0 L198 149 L448 149 L448 0 L826 0 Z M448 224 L237 224 L426 579 L446 617 L448 616 L448 224 Z " />
<glyph glyph-name="Ccedilla" unicode="&#xc7;" horiz-adv-x="505" d="M475 685 C428 694 387 697 324 697 C130 697 50 598 50 345 C50 110 120 7 287 -6 C280 -17 274 -28 274 -40 C274 -51 277 -61 287 -69 C308 -87 329 -91 329 -123 C329 -150 316 -158 299 -158 C282 -158 262 -152 244 -149 L241 -199 C277 -203 292 -204 307 -204 C334 -204 353 -196 366 -183 C379 -170 387 -152 387 -123 C387 -86 374 -66 346 -46 C342 -42 336 -40 336 -34 C336 -28 335 -28 339 -22 L351 -7 C399 -6 435 -2 475 5 L470 85 C414 74 377 69 323 69 C198 69 136 125 136 345 C136 565 198 621 323 621 C377 621 415 616 470 606 L475 685 Z " />
<glyph glyph-name="Egrave" unicode="&#xc8;" horiz-adv-x="476" d="M301 758 L243 903 L151 903 L241 758 L301 758 Z M454 0 L454 75 L156 75 L156 317 L367 317 L367 391 L156 391 L156 614 L454 614 L454 689 L75 689 L75 0 L454 0 Z " />
<glyph glyph-name="Eacute" unicode="&#xc9;" horiz-adv-x="476" d="M372 903 L280 903 L222 758 L282 758 L372 903 Z M454 0 L454 75 L156 75 L156 317 L367 317 L367 391 L156 391 L156 614 L454 614 L454 689 L75 689 L75 0 L454 0 Z " />
<glyph glyph-name="Ecircumflex" unicode="&#xca;" horiz-adv-x="476" d="M390 758 L297 900 L219 900 L126 758 L202 758 L258 856 L315 758 L390 758 Z M454 0 L454 75 L156 75 L156 317 L367 317 L367 391 L156 391 L156 614 L454 614 L454 689 L75 689 L75 0 L454 0 Z " />
<glyph glyph-name="Edieresis" unicode="&#xcb;" horiz-adv-x="476" d="M388 790 L388 874 L304 874 L304 790 L388 790 Z M228 790 L228 874 L144 874 L144 790 L228 790 Z M454 0 L454 75 L156 75 L156 317 L367 317 L367 391 L156 391 L156 614 L454 614 L454 689 L75 689 L75 0 L454 0 Z " />
<glyph glyph-name="Igrave" unicode="&#xcc;" horiz-adv-x="232" d="M146 758 L89 903 L-4 903 L87 758 L146 758 Z M156 0 L156 689 L75 689 L75 0 L156 0 Z " />
<glyph glyph-name="Iacute" unicode="&#xcd;" horiz-adv-x="232" d="M237 903 L145 903 L88 758 L147 758 L237 903 Z M156 0 L156 689 L75 689 L75 0 L156 0 Z " />
<glyph glyph-name="Icircumflex" unicode="&#xce;" horiz-adv-x="232" d="M249 758 L156 900 L78 900 L-15 758 L61 758 L117 856 L174 758 L249 758 Z M156 0 L156 689 L75 689 L75 0 L156 0 Z " />
<glyph glyph-name="Idieresis" unicode="&#xcf;" horiz-adv-x="232" d="M237 790 L237 874 L153 874 L153 790 L237 790 Z M76 790 L76 874 L-7 874 L-7 790 L76 790 Z M156 0 L156 689 L75 689 L75 0 L156 0 Z " />
<glyph glyph-name="Eth" unicode="&#xd0;" horiz-adv-x="580" d="M530 343 C530 483 508 585 450 638 C404 681 366 689 280 689 L68 689 L68 367 L-40 304 L-40 224 L68 287 L68 0 L279 0 C370 0 410 9 457 56 C510 110 530 209 530 343 L530 343 Z M442 344 C442 227 428 149 390 111 C357 77 308 77 249 77 L150 77 L150 334 L260 398 L261 478 L150 414 L150 613 L249 613 C307 613 356 613 389 579 C427 541 442 462 442 344 L442 344 Z " />
<glyph glyph-name="Ntilde" unicode="&#xd1;" horiz-adv-x="628" d="M461 804 L455 871 C433 856 414 842 384 843 C336 845 296 867 244 869 C220 870 182 855 165 844 L173 779 C194 793 212 807 242 806 C290 804 331 781 383 779 C406 778 444 793 461 804 L461 804 Z M553 0 L553 689 L472 689 L472 87 L470 87 L434 176 L205 689 L75 689 L75 0 L156 0 L156 600 L158 600 L193 516 L427 0 L553 0 Z " />
<glyph glyph-name="Ograve" unicode="&#xd2;" horiz-adv-x="626" d="M341 758 L284 903 L191 903 L282 758 L341 758 Z M576 343 C576 595 508 697 314 697 C119 697 50 596 50 343 C50 91 119 -9 314 -9 C508 -9 576 91 576 343 L576 343 Z M488 344 C488 123 438 69 313 69 C187 69 136 124 136 344 C136 564 187 621 313 621 C438 621 488 564 488 344 L488 344 Z " />
<glyph glyph-name="Oacute" unicode="&#xd3;" horiz-adv-x="626" d="M434 903 L341 903 L284 758 L343 758 L434 903 Z M576 343 C576 595 508 697 314 697 C119 697 50 596 50 343 C50 91 119 -9 314 -9 C508 -9 576 91 576 343 L576 343 Z M488 344 C488 123 438 69 313 69 C187 69 136 124 136 344 C136 564 187 621 313 621 C438 621 488 564 488 344 L488 344 Z " />
<glyph glyph-name="Ocircumflex" unicode="&#xd4;" horiz-adv-x="626" d="M445 758 L352 900 L274 900 L181 758 L257 758 L313 856 L370 758 L445 758 Z M576 343 C576 595 508 697 314 697 C119 697 50 596 50 343 C50 91 119 -9 314 -9 C508 -9 576 91 576 343 L576 343 Z M488 344 C488 123 438 69 313 69 C187 69 136 124 136 344 C136 564 187 621 313 621 C438 621 488 564 488 344 L488 344 Z " />
<glyph glyph-name="Otilde" unicode="&#xd5;" horiz-adv-x="626" d="M462 804 L456 871 C434 856 415 842 385 843 C337 845 297 867 245 869 C222 870 183 855 166 844 L174 779 C196 793 214 807 244 806 C291 804 332 781 384 779 C408 778 446 793 462 804 L462 804 Z M576 343 C576 595 508 697 314 697 C119 697 50 596 50 343 C50 91 119 -9 314 -9 C508 -9 576 91 576 343 L576 343 Z M488 344 C488 123 438 69 313 69 C187 69 136 124 136 344 C136 564 187 621 313 621 C438 621 488 564 488 344 L488 344 Z " />
<glyph glyph-name="Odieresis" unicode="&#xd6;" horiz-adv-x="626" d="M437 790 L437 874 L353 874 L353 790 L437 790 Z M276 790 L276 874 L193 874 L193 790 L276 790 Z M576 343 C576 595 508 697 314 697 C119 697 50 596 50 343 C50 91 119 -9 314 -9 C508 -9 576 91 576 343 L576 343 Z M488 344 C488 123 438 69 313 69 C187 69 136 124 136 344 C136 564 187 621 313 621 C438 621 488 564 488 344 L488 344 Z " />
<glyph glyph-name="multiply" unicode="&#xd7;" horiz-adv-x="508" d="M444 82 L289 236 L443 391 L409 425 L254 271 L99 425 L64 390 L219 236 L65 81 L99 47 L254 201 L409 47 L444 82 Z " />
<glyph glyph-name="Oslash" unicode="&#xd8;" horiz-adv-x="622" d="M593 748 L518 749 L467 662 C428 686 378 697 314 697 C119 697 50 596 50 343 C50 206 71 114 121 58 L53 -60 L128 -60 L173 19 C210 0 256 -9 314 -9 C508 -9 576 91 576 343 C576 471 559 560 516 617 L593 748 Z M425 589 L168 140 C146 182 136 247 136 344 C136 564 187 621 313 621 C361 621 398 612 425 589 L425 589 Z M488 344 C488 123 438 69 313 69 C272 69 239 74 214 90 L466 529 C481 487 488 427 488 344 L488 344 Z " />
<glyph glyph-name="Ugrave" unicode="&#xd9;" horiz-adv-x="600" d="M332 758 L275 903 L182 903 L273 758 L332 758 Z M531 689 L450 689 L450 182 C450 100 373 66 300 66 C227 66 151 100 151 182 L151 689 L70 689 L70 186 C70 33 210 -9 301 -9 C391 -9 530 33 530 186 L531 689 Z " />
<glyph glyph-name="Uacute" unicode="&#xda;" horiz-adv-x="600" d="M420 903 L327 903 L270 758 L329 758 L420 903 Z M531 689 L450 689 L450 182 C450 100 373 66 300 66 C227 66 151 100 151 182 L151 689 L70 689 L70 186 C70 33 210 -9 301 -9 C391 -9 530 33 530 186 L531 689 Z " />
<glyph glyph-name="Ucircumflex" unicode="&#xdb;" horiz-adv-x="600" d="M431 758 L338 900 L260 900 L167 758 L242 758 L299 856 L356 758 L431 758 Z M531 689 L450 689 L450 182 C450 100 373 66 300 66 C227 66 151 100 151 182 L151 689 L70 689 L70 186 C70 33 210 -9 301 -9 C391 -9 530 33 530 186 L531 689 Z " />
<glyph glyph-name="Udieresis" unicode="&#xdc;" horiz-adv-x="600" d="M422 790 L422 874 L338 874 L338 790 L422 790 Z M262 790 L262 874 L178 874 L178 790 L262 790 Z M531 689 L450 689 L450 182 C450 100 373 66 300 66 C227 66 151 100 151 182 L151 689 L70 689 L70 186 C70 33 210 -9 301 -9 C391 -9 530 33 530 186 L531 689 Z " />
<glyph glyph-name="Yacute" unicode="&#xdd;" horiz-adv-x="525" d="M382 903 L290 903 L232 758 L292 758 L382 903 Z M510 689 L417 689 L264 361 L262 361 L106 689 L15 689 L222 287 L222 0 L303 0 L303 286 L510 689 Z " />
<glyph glyph-name="Thorn" unicode="&#xde;" horiz-adv-x="484" d="M459 350 C459 465 424 547 299 547 L156 547 L156 688 L76 688 L75 0 L156 0 L156 155 L299 155 C426 155 459 233 459 350 L459 350 Z M383 350 C383 280 379 224 296 225 L156 225 L156 478 L297 478 C376 479 383 419 383 350 L383 350 Z " />
<glyph glyph-name="germandbls" unicode="&#xdf;" horiz-adv-x="542" d="M517 110 C517 186 473 214 422 245 L322 306 C300 319 279 332 279 369 C279 399 291 415 316 443 C342 471 385 515 385 580 C385 685 323 737 224 737 C144 737 65 702 65 575 L65 0 L140 0 L140 556 C140 610 147 668 224 668 C281 668 308 648 308 574 C308 524 270 493 245 464 C219 435 203 404 203 372 C203 297 252 264 289 241 L387 180 C417 161 441 151 441 112 C441 72 389 58 343 58 C310 58 256 64 226 69 L221 -3 C253 -9 317 -9 345 -9 C431 -9 517 28 517 110 L517 110 Z " />
<glyph glyph-name="agrave" unicode="&#xe0;" horiz-adv-x="438" d="M262 540 L204 686 L112 686 L202 540 L262 540 Z M382 0 L382 361 C382 448 318 477 230 477 C163 477 126 473 72 460 L77 388 C115 401 180 413 223 413 C277 413 307 394 307 350 L307 274 C248 272 156 272 100 245 C45 217 35 166 35 119 C35 38 94 -8 161 -10 C211 -11 263 -5 315 26 L318 26 L324 0 L382 0 Z M307 91 C262 64 223 57 171 57 C138 57 112 85 113 121 C113 147 118 176 141 188 C182 210 265 212 306 213 L307 91 Z " />
<glyph glyph-name="aacute" unicode="&#xe1;" horiz-adv-x="438" d="M348 686 L256 686 L198 540 L258 540 L348 686 Z M382 0 L382 361 C382 448 318 477 230 477 C163 477 126 473 72 460 L77 388 C115 401 180 413 223 413 C277 413 307 394 307 350 L307 274 C248 272 156 272 100 245 C45 217 35 166 35 119 C35 38 94 -8 161 -10 C211 -11 263 -5 315 26 L318 26 L324 0 L382 0 Z M307 91 C262 64 223 57 171 57 C138 57 112 85 113 121 C113 147 118 176 141 188 C182 210 265 212 306 213 L307 91 Z " />
<glyph glyph-name="acircumflex" unicode="&#xe2;" horiz-adv-x="438" d="M360 540 L267 683 L190 683 L97 540 L172 540 L228 638 L286 540 L360 540 Z M382 0 L382 361 C382 448 318 477 230 477 C163 477 126 473 72 460 L77 388 C115 401 180 413 223 413 C277 413 307 394 307 350 L307 274 C248 272 156 272 100 245 C45 217 35 166 35 119 C35 38 94 -8 161 -10 C211 -11 263 -5 315 26 L318 26 L324 0 L382 0 Z M307 91 C262 64 223 57 171 57 C138 57 112 85 113 121 C113 147 118 176 141 188 C182 210 265 212 306 213 L307 91 Z " />
<glyph glyph-name="atilde" unicode="&#xe3;" horiz-adv-x="438" d="M372 587 L367 653 C345 639 326 625 296 626 C248 628 208 650 156 652 C132 653 93 638 77 627 L84 562 C106 576 124 589 154 588 C202 587 243 564 295 562 C318 561 356 576 372 587 L372 587 Z M382 0 L382 361 C382 448 318 477 230 477 C163 477 126 473 72 460 L77 388 C115 401 180 413 223 413 C277 413 307 394 307 350 L307 274 C248 272 156 272 100 245 C45 217 35 166 35 119 C35 38 94 -8 161 -10 C211 -11 263 -5 315 26 L318 26 L324 0 L382 0 Z M307 91 C262 64 223 57 171 57 C138 57 112 85 113 121 C113 147 118 176 141 188 C182 210 265 212 306 213 L307 91 Z " />
<glyph glyph-name="adieresis" unicode="&#xe4;" horiz-adv-x="438" d="M352 572 L352 656 L268 656 L268 572 L352 572 Z M192 572 L192 656 L108 656 L108 572 L192 572 Z M382 0 L382 361 C382 448 318 477 230 477 C163 477 126 473 72 460 L77 388 C115 401 180 413 223 413 C277 413 307 394 307 350 L307 274 C248 272 156 272 100 245 C45 217 35 166 35 119 C35 38 94 -8 161 -10 C211 -11 263 -5 315 26 L318 26 L324 0 L382 0 Z M307 91 C262 64 223 57 171 57 C138 57 112 85 113 121 C113 147 118 176 141 188 C182 210 265 212 306 213 L307 91 Z " />
<glyph glyph-name="aring" unicode="&#xe5;" horiz-adv-x="438" d="M302 610 C302 650 270 683 229 683 C189 683 156 650 156 610 C156 569 189 537 229 537 C270 537 302 569 302 610 L302 610 Z M382 0 L382 361 C382 448 318 477 230 477 C163 477 126 473 72 460 L77 388 C115 401 180 413 223 413 C277 413 307 394 307 350 L307 274 C248 272 156 272 100 245 C45 217 35 166 35 119 C35 38 94 -8 161 -10 C211 -11 263 -5 315 26 L318 26 L324 0 L382 0 Z M261 610 C261 592 247 578 229 578 C212 578 198 592 198 610 C198 627 212 641 229 641 C247 641 261 627 261 610 L261 610 Z M307 91 C262 64 223 57 171 57 C138 57 112 85 113 121 C113 147 118 176 141 188 C182 210 265 212 306 213 L307 91 Z " />
<glyph glyph-name="ae" unicode="&#xe6;" horiz-adv-x="708" d="M668 282 C668 355 655 404 626 435 C598 465 556 477 503 477 C440 477 394 463 363 430 L361 430 C335 464 288 477 230 477 C163 477 126 474 72 460 L77 388 C115 401 180 410 223 410 C277 410 307 391 307 347 L307 274 C248 272 156 272 100 245 C45 217 35 166 35 119 C35 38 93 -8 161 -10 C210 -11 264 -7 352 52 L354 52 C388 10 442 -9 512 -9 C562 -9 615 -2 652 6 L648 78 C611 70 570 61 512 61 C437 61 387 90 385 224 L668 224 L668 282 Z M591 284 L387 284 C394 384 430 408 503 408 C531 408 552 403 566 390 C585 372 591 338 591 284 L591 284 Z M325 104 C307 92 275 74 247 65 C225 59 211 57 171 57 C138 57 112 85 113 121 C113 147 118 176 141 188 C181 210 265 212 307 214 C308 170 314 134 325 104 L325 104 Z " />
<glyph glyph-name="ccedilla" unicode="&#xe7;" horiz-adv-x="395" d="M365 0 L360 72 C330 66 279 61 246 61 C169 61 118 92 118 233 C118 374 169 408 246 408 C279 408 330 402 360 397 L365 469 C333 475 274 477 246 477 C110 477 40 409 40 233 C40 74 98 5 210 -7 C203 -18 197 -28 197 -40 C197 -51 201 -61 210 -69 C232 -87 253 -91 253 -123 C253 -150 240 -158 223 -158 C206 -158 186 -152 167 -149 L165 -199 C201 -203 215 -204 230 -204 C258 -204 277 -196 290 -183 C303 -170 310 -152 310 -123 C310 -86 297 -66 270 -46 C265 -42 259 -40 259 -34 C259 -28 259 -28 263 -22 L273 -8 C303 -7 342 -5 365 0 L365 0 Z " />
<glyph glyph-name="egrave" unicode="&#xe8;" horiz-adv-x="442" d="M269 540 L211 686 L119 686 L209 540 L269 540 Z M402 282 C402 355 388 404 359 435 C332 465 289 477 237 477 C100 477 40 409 40 233 C40 57 110 -9 246 -9 C296 -9 348 -2 386 6 L381 78 C344 70 304 61 246 61 C171 61 120 90 118 224 L402 224 L402 282 Z M325 284 L121 284 C128 384 163 408 237 408 C265 408 286 403 299 390 C319 372 325 338 325 284 L325 284 Z " />
<glyph glyph-name="eacute" unicode="&#xe9;" horiz-adv-x="442" d="M354 686 L262 686 L204 540 L264 540 L354 686 Z M402 282 C402 355 388 404 359 435 C332 465 289 477 237 477 C100 477 40 409 40 233 C40 57 110 -9 246 -9 C296 -9 348 -2 386 6 L381 78 C344 70 304 61 246 61 C171 61 120 90 118 224 L402 224 L402 282 Z M325 284 L121 284 C128 384 163 408 237 408 C265 408 286 403 299 390 C319 372 325 338 325 284 L325 284 Z " />
<glyph glyph-name="ecircumflex" unicode="&#xea;" horiz-adv-x="442" d="M369 540 L276 683 L198 683 L105 540 L181 540 L237 638 L294 540 L369 540 Z M402 282 C402 355 388 404 359 435 C332 465 289 477 237 477 C100 477 40 409 40 233 C40 57 110 -9 246 -9 C296 -9 348 -2 386 6 L381 78 C344 70 304 61 246 61 C171 61 120 90 118 224 L402 224 L402 282 Z M325 284 L121 284 C128 384 163 408 237 408 C265 408 286 403 299 390 C319 372 325 338 325 284 L325 284 Z " />
<glyph glyph-name="edieresis" unicode="&#xeb;" horiz-adv-x="442" d="M359 572 L359 656 L275 656 L275 572 L359 572 Z M199 572 L199 656 L115 656 L115 572 L199 572 Z M402 282 C402 355 388 404 359 435 C332 465 289 477 237 477 C100 477 40 409 40 233 C40 57 110 -9 246 -9 C296 -9 348 -2 386 6 L381 78 C344 70 304 61 246 61 C171 61 120 90 118 224 L402 224 L402 282 Z M325 284 L121 284 C128 384 163 408 237 408 C265 408 286 403 299 390 C319 372 325 338 325 284 L325 284 Z " />
<glyph glyph-name="igrave" unicode="&#xec;" horiz-adv-x="214" d="M138 540 L80 686 L-12 686 L78 540 L138 540 Z M146 0 L146 468 L70 468 L70 0 L146 0 Z " />
<glyph glyph-name="iacute" unicode="&#xed;" horiz-adv-x="214" d="M227 686 L135 686 L77 540 L137 540 L227 686 Z M146 0 L146 468 L70 468 L70 0 L146 0 Z " />
<glyph glyph-name="icircumflex" unicode="&#xee;" horiz-adv-x="214" d="M239 540 L146 683 L69 683 L-25 540 L51 540 L107 638 L164 540 L239 540 Z M146 0 L146 468 L70 468 L70 0 L146 0 Z " />
<glyph glyph-name="idieresis" unicode="&#xef;" horiz-adv-x="214" d="M229 572 L229 656 L145 656 L145 572 L229 572 Z M69 572 L69 656 L-15 656 L-15 572 L69 572 Z M146 0 L146 468 L70 468 L70 0 L146 0 Z " />
<glyph glyph-name="eth" unicode="&#xf0;" horiz-adv-x="493" d="M463 766 L338 694 C304 719 257 730 200 730 C146 730 117 722 82 713 L88 640 C144 654 153 660 203 660 C224 660 247 659 270 650 L162 591 L162 511 L322 604 C351 565 377 505 380 425 C352 461 304 477 246 477 C110 477 40 411 40 235 C40 60 110 -9 246 -9 C408 -9 461 93 461 285 C461 420 443 555 385 640 L462 685 L463 766 Z M383 235 C383 94 329 61 246 61 C169 61 118 94 118 235 C118 376 169 408 246 408 C323 408 383 376 383 235 L383 235 Z " />
<glyph glyph-name="ntilde" unicode="&#xf1;" horiz-adv-x="479" d="M391 587 L385 653 C363 639 344 625 314 626 C266 628 226 650 174 652 C151 653 112 638 95 627 L103 562 C125 576 143 589 173 588 C220 587 261 564 313 562 C337 561 375 576 391 587 L391 587 Z M424 361 C424 448 353 477 292 477 C240 477 194 474 127 439 L125 440 L119 468 L60 468 L60 0 L136 0 L136 373 C161 392 222 410 284 410 C309 410 348 392 348 348 L348 0 L424 0 L424 361 Z " />
<glyph glyph-name="ograve" unicode="&#xf2;" horiz-adv-x="491" d="M279 540 L221 686 L129 686 L219 540 L279 540 Z M451 233 C451 409 381 477 246 477 C110 477 40 409 40 233 C40 58 110 -9 246 -9 C381 -9 451 57 451 233 L451 233 Z M373 233 C373 92 323 61 246 61 C169 61 118 92 118 233 C118 374 169 408 246 408 C323 408 373 374 373 233 L373 233 Z " />
<glyph glyph-name="oacute" unicode="&#xf3;" horiz-adv-x="491" d="M365 686 L273 686 L215 540 L275 540 L365 686 Z M451 233 C451 409 381 477 246 477 C110 477 40 409 40 233 C40 58 110 -9 246 -9 C381 -9 451 57 451 233 L451 233 Z M373 233 C373 92 323 61 246 61 C169 61 118 92 118 233 C118 374 169 408 246 408 C323 408 373 374 373 233 L373 233 Z " />
<glyph glyph-name="ocircumflex" unicode="&#xf4;" horiz-adv-x="491" d="M376 540 L283 683 L205 683 L112 540 L188 540 L244 638 L301 540 L376 540 Z M451 233 C451 409 381 477 246 477 C110 477 40 409 40 233 C40 58 110 -9 246 -9 C381 -9 451 57 451 233 L451 233 Z M373 233 C373 92 323 61 246 61 C169 61 118 92 118 233 C118 374 169 408 246 408 C323 408 373 374 373 233 L373 233 Z " />
<glyph glyph-name="otilde" unicode="&#xf5;" horiz-adv-x="491" d="M394 587 L388 653 C367 639 347 625 317 626 C269 628 229 650 177 652 C154 653 115 638 98 627 L106 562 C128 576 146 589 176 588 C223 587 264 564 316 562 C340 561 378 576 394 587 L394 587 Z M451 233 C451 409 381 477 246 477 C110 477 40 409 40 233 C40 58 110 -9 246 -9 C381 -9 451 57 451 233 L451 233 Z M373 233 C373 92 323 61 246 61 C169 61 118 92 118 233 C118 374 169 408 246 408 C323 408 373 374 373 233 L373 233 Z " />
<glyph glyph-name="odieresis" unicode="&#xf6;" horiz-adv-x="491" d="M370 572 L370 656 L286 656 L286 572 L370 572 Z M210 572 L210 656 L126 656 L126 572 L210 572 Z M451 233 C451 409 381 477 246 477 C110 477 40 409 40 233 C40 58 110 -9 246 -9 C381 -9 451 57 451 233 L451 233 Z M373 233 C373 92 323 61 246 61 C169 61 118 92 118 233 C118 374 169 408 246 408 C323 408 373 374 373 233 L373 233 Z " />
<glyph glyph-name="divide" unicode="&#xf7;" horiz-adv-x="537" d="M303 365 L303 437 L231 437 L231 365 L303 365 Z M482 231 L482 280 L54 280 L54 231 L482 231 Z M303 75 L303 147 L231 147 L231 75 L303 75 Z " />
<glyph glyph-name="oslash" unicode="&#xf8;" horiz-adv-x="491" d="M451 233 C451 326 431 389 393 427 L443 515 L369 515 L339 462 C312 473 281 477 246 477 C110 477 40 409 40 233 C40 141 59 80 97 41 L47 -45 L122 -46 L152 6 C178 -4 210 -9 246 -9 C381 -9 451 57 451 233 L451 233 Z M373 233 C373 92 323 61 246 61 C224 61 205 63 188 70 L351 354 C365 327 373 288 373 233 L373 233 Z M302 399 L139 115 C126 141 118 179 118 233 C118 374 169 408 246 408 C267 408 286 405 302 399 L302 399 Z " />
<glyph glyph-name="ugrave" unicode="&#xf9;" horiz-adv-x="479" d="M268 540 L210 686 L118 686 L208 540 L268 540 Z M419 0 L419 468 L343 468 L343 95 C319 76 258 58 196 58 C170 58 131 76 131 120 L131 468 L55 468 L55 107 C55 20 126 -9 187 -9 C239 -9 285 -5 352 29 L354 28 L361 0 L419 0 Z " />
<glyph glyph-name="uacute" unicode="&#xfa;" horiz-adv-x="479" d="M360 686 L268 686 L210 540 L270 540 L360 686 Z M419 0 L419 468 L343 468 L343 95 C319 76 258 58 196 58 C170 58 131 76 131 120 L131 468 L55 468 L55 107 C55 20 126 -9 187 -9 C239 -9 285 -5 352 29 L354 28 L361 0 L419 0 Z " />
<glyph glyph-name="ucircumflex" unicode="&#xfb;" horiz-adv-x="479" d="M370 540 L277 683 L200 683 L107 540 L182 540 L238 638 L296 540 L370 540 Z M419 0 L419 468 L343 468 L343 95 C319 76 258 58 196 58 C170 58 131 76 131 120 L131 468 L55 468 L55 107 C55 20 126 -9 187 -9 C239 -9 285 -5 352 29 L354 28 L361 0 L419 0 Z " />
<glyph glyph-name="udieresis" unicode="&#xfc;" horiz-adv-x="479" d="M358 572 L358 656 L274 656 L274 572 L358 572 Z M198 572 L198 656 L114 656 L114 572 L198 572 Z M419 0 L419 468 L343 468 L343 95 C319 76 258 58 196 58 C170 58 131 76 131 120 L131 468 L55 468 L55 107 C55 20 126 -9 187 -9 C239 -9 285 -5 352 29 L354 28 L361 0 L419 0 Z " />
<glyph glyph-name="yacute" unicode="&#xfd;" horiz-adv-x="421" d="M333 686 L240 686 L183 540 L242 540 L333 686 Z M408 468 L326 468 L227 144 L212 87 L211 87 L197 144 L93 468 L11 468 L176 -19 L168 -48 C152 -103 132 -166 64 -166 C39 -166 23 -160 5 -156 L0 -228 C19 -232 37 -236 63 -236 C176 -237 203 -173 234 -75 L408 468 Z " />
<glyph glyph-name="thorn" unicode="&#xfe;" horiz-adv-x="484" d="M444 233 C444 409 387 477 251 477 C212 477 175 472 143 459 L140 459 L141 720 L65 720 L66 -232 L141 -232 L141 8 L143 8 C176 -4 213 -10 252 -10 C387 -10 444 57 444 233 L444 233 Z M366 233 C366 92 329 58 252 58 C208 58 181 65 141 81 L141 386 C181 403 208 409 251 409 C328 409 366 374 366 233 L366 233 Z " />
<glyph glyph-name="ydieresis" unicode="&#xff;" horiz-adv-x="421" d="M332 572 L332 656 L248 656 L248 572 L332 572 Z M172 572 L172 656 L88 656 L88 572 L172 572 Z M408 468 L326 468 L227 144 L212 87 L211 87 L197 144 L93 468 L11 468 L176 -19 L168 -48 C152 -103 132 -166 64 -166 C39 -166 23 -160 5 -156 L0 -228 C19 -232 37 -236 63 -236 C176 -237 203 -173 234 -75 L408 468 Z " />
<glyph glyph-name="dotlessi" unicode="&#x131;" horiz-adv-x="214" d="M148 0 L148 468 L72 468 L73 0 L148 0 Z " />
<glyph glyph-name="Lslash" unicode="&#x141;" horiz-adv-x="456" d="M450 0 L450 75 L161 75 L161 335 L270 398 L271 478 L161 415 L161 689 L80 689 L80 368 L-30 304 L-30 224 L80 288 L80 0 L450 0 Z " />
<glyph glyph-name="lslash" unicode="&#x142;" horiz-adv-x="212" d="M257 478 L145 414 L145 720 L68 720 L69 370 L-44 304 L-44 224 L69 290 L69 0 L145 0 L145 334 L256 398 L257 478 Z " />
<glyph glyph-name="OE" unicode="&#x152;" horiz-adv-x="897" d="M875 0 L875 75 L577 75 L577 317 L788 317 L788 391 L577 391 L577 614 L875 614 L875 689 L497 689 L497 628 L496 628 C458 663 408 697 314 697 C119 697 50 596 50 343 C50 91 119 -8 314 -8 C409 -8 458 26 496 61 L497 61 L497 0 L875 0 Z M488 344 C488 123 438 69 313 69 C187 69 136 124 136 344 C136 564 187 621 313 621 C438 621 488 564 488 344 L488 344 Z " />
<glyph glyph-name="oe" unicode="&#x153;" horiz-adv-x="775" d="M735 282 C735 355 721 404 692 435 C664 465 622 477 569 477 C493 477 445 463 410 387 L409 387 C368 460 321 477 246 477 C110 477 40 409 40 233 C40 58 110 -9 246 -9 C323 -9 364 5 411 84 L412 85 C455 9 502 -9 579 -9 C628 -9 681 -2 719 6 L714 78 C677 70 637 61 579 61 C503 61 453 90 451 224 L734 224 L735 282 Z M658 284 L453 284 C461 384 496 408 570 408 C597 408 619 403 632 390 C652 372 658 338 658 284 L658 284 Z M373 233 C373 92 323 61 246 61 C169 61 118 92 118 233 C118 374 169 408 246 408 C323 408 373 374 373 233 L373 233 Z " />
<glyph glyph-name="Scaron" unicode="&#x160;" horiz-adv-x="450" d="M355 900 L280 900 L223 802 L166 900 L92 900 L185 758 L262 758 L355 900 Z M423 148 C423 241 383 279 313 331 L160 444 C129 467 110 494 110 549 C110 604 164 622 229 622 C272 622 335 617 381 611 L386 691 C340 697 268 697 231 697 C114 697 27 652 27 549 C27 444 75 407 126 370 L271 263 C320 226 342 215 342 148 C342 78 271 66 196 66 C153 66 89 71 44 78 L38 -2 C84 -8 156 -9 194 -9 C318 -9 423 38 423 148 L423 148 Z " />
<glyph glyph-name="scaron" unicode="&#x161;" horiz-adv-x="389" d="M336 683 L260 683 L204 585 L147 683 L72 683 L165 540 L242 540 L336 683 Z M354 110 C354 186 318 211 266 241 L159 304 C137 316 119 332 119 362 C119 396 168 410 207 410 C240 410 289 405 319 400 L324 471 C293 477 234 477 206 477 C125 477 40 445 40 362 C40 287 90 258 127 236 L225 178 C255 160 278 151 278 112 C278 72 226 58 180 58 C147 58 93 64 63 69 L58 -3 C90 -9 152 -9 180 -9 C266 -9 354 28 354 110 L354 110 Z " />
<glyph glyph-name="Ydieresis" unicode="&#x178;" horiz-adv-x="525" d="M385 790 L385 874 L301 874 L301 790 L385 790 Z M225 790 L225 874 L141 874 L141 790 L225 790 Z M510 689 L417 689 L264 361 L262 361 L106 689 L15 689 L222 287 L222 0 L303 0 L303 286 L510 689 Z " />
<glyph glyph-name="Zcaron" unicode="&#x17d;" horiz-adv-x="491" d="M375 900 L300 900 L243 802 L186 900 L112 900 L205 758 L282 758 L375 900 Z M459 75 L179 76 L137 75 L136 75 L154 103 L459 632 L459 689 L32 689 L32 614 L306 614 L356 615 L357 614 L332 572 L32 50 L32 0 L459 0 L459 75 Z " />
<glyph glyph-name="zcaron" unicode="&#x17e;" horiz-adv-x="397" d="M362 70 L158 70 L128 68 L127 69 L148 99 L361 410 L361 468 L46 468 L46 398 L267 398 L269 397 L250 371 L35 58 L35 0 L361 0 L362 70 Z M345 683 L269 683 L213 585 L156 683 L81 683 L174 540 L252 540 L345 683 Z " />
<glyph glyph-name="florin" unicode="&#x192;" horiz-adv-x="455" d="M420 485 C367 498 360 499 293 499 C205 499 156 449 145 361 L126 202 L53 192 L45 133 L117 133 L72 -231 L148 -231 L193 133 L301 133 L309 202 L201 202 L219 348 C224 392 238 432 292 432 C339 432 370 426 406 415 L420 485 Z " />
<glyph glyph-name="circumflex" unicode="&#x2c6;" horiz-adv-x="508" d="M386 540 L293 683 L216 683 L123 540 L198 540 L254 638 L312 540 L386 540 Z " />
<glyph glyph-name="caron" unicode="&#x2c7;" horiz-adv-x="508" d="M384 683 L309 683 L253 585 L195 683 L121 683 L214 540 L291 540 L384 683 Z " />
<glyph glyph-name="breve" unicode="&#x2d8;" horiz-adv-x="508" d="M408 676 L330 676 C316 623 295 608 254 608 C213 608 193 623 178 676 L101 676 C120 601 171 546 254 546 C337 546 388 601 408 676 L408 676 Z " />
<glyph glyph-name="dotaccent" unicode="&#x2d9;" horiz-adv-x="508" d="M301 565 L301 659 L208 659 L208 565 L301 565 Z " />
<glyph glyph-name="ring" unicode="&#x2da;" horiz-adv-x="508" d="M326 610 C326 650 293 683 253 683 C213 683 180 650 180 610 C180 569 213 537 253 537 C293 537 326 569 326 610 L326 610 Z M284 610 C284 592 270 578 253 578 C236 578 222 592 222 610 C222 627 236 641 253 641 C270 641 284 627 284 610 L284 610 Z " />
<glyph glyph-name="ogonek" unicode="&#x2db;" horiz-adv-x="508" d="M333 -186 L330 -136 C311 -146 291 -158 271 -158 C246 -158 231 -131 231 -109 C231 -68 265 -26 293 0 L219 0 C199 -23 173 -60 173 -110 C173 -157 205 -204 268 -204 C291 -204 315 -196 333 -186 L333 -186 Z " />
<glyph glyph-name="tilde" unicode="&#x2dc;" horiz-adv-x="508" d="M398 587 L392 653 C371 639 351 625 321 626 C273 628 234 650 181 652 C158 653 119 638 103 627 L110 562 C132 576 150 589 180 588 C228 587 268 564 320 562 C344 561 382 576 398 587 L398 587 Z " />
<glyph glyph-name="hungarumlaut" unicode="&#x2dd;" horiz-adv-x="508" d="M401 686 L309 686 L252 540 L311 540 L401 686 Z M265 686 L172 686 L115 540 L174 540 L265 686 Z " />
<glyph glyph-name="Delta" unicode="&#x394;" horiz-adv-x="649" d="M614 0 L324 501 L35 0 L614 0 Z " />
<glyph glyph-name="Omega" unicode="&#x3a9;" horiz-adv-x="324" d="M294 341 L290 407 C260 402 223 398 199 398 C147 398 112 417 112 515 C112 614 147 634 199 634 C223 634 260 630 290 625 L294 691 C264 696 220 698 199 698 C94 698 40 645 40 515 C40 385 94 334 199 334 C220 334 264 336 294 341 L294 341 Z " />
<glyph glyph-name="mu" unicode="&#x3bc;" horiz-adv-x="490" d="M429 0 L429 468 L354 468 L354 105 C328 83 268 58 206 58 C180 58 141 76 141 120 L141 468 L65 468 L65 -212 L141 -212 L141 15 C160 -1 179 -9 198 -9 C250 -9 291 -6 358 29 L360 28 L367 0 L429 0 Z " />
<glyph glyph-name="pi" unicode="&#x3c0;" horiz-adv-x="715" d="M688 241 L688 249 L391 499 L291 499 L506 315 L553 280 L553 278 L46 278 L46 211 L553 211 L553 209 L507 175 L291 -9 L390 -9 L688 241 Z " />
<glyph glyph-name="endash" unicode="&#x2013;" horiz-adv-x="521" d="M474 231 L474 280 L46 280 L46 231 L474 231 Z " />
<glyph glyph-name="emdash" unicode="&#x2014;" horiz-adv-x="751" d="M697 231 L697 280 L54 280 L54 231 L697 231 Z " />
<glyph glyph-name="quoteleft" unicode="&#x2018;" horiz-adv-x="251" d="M183 707 L126 707 L94 654 C83 634 72 614 64 594 L60 508 L154 508 C152 542 150 602 150 603 C156 630 171 674 183 707 L183 707 Z " />
<glyph glyph-name="quoteright" unicode="&#x2019;" horiz-adv-x="251" d="M191 697 L98 697 C99 663 102 602 102 601 C95 575 80 530 68 498 L125 497 C136 514 147 532 157 550 C169 570 179 591 188 611 L191 697 Z " />
<glyph glyph-name="quotesinglbase" unicode="&#x201a;" horiz-adv-x="251" d="M191 93 L98 93 C99 59 102 -2 102 -3 C95 -29 80 -74 68 -107 L125 -107 C136 -90 147 -72 157 -54 C169 -34 179 -13 188 7 L191 93 Z " />
<glyph glyph-name="quotedblleft" unicode="&#x201c;" horiz-adv-x="391" d="M323 708 L266 708 L234 656 C223 636 212 615 204 595 L200 509 L293 509 C292 543 289 604 290 605 C296 631 311 676 323 708 L323 708 Z M183 707 L126 708 L94 655 C83 635 72 614 64 594 L60 508 L154 508 C152 542 150 603 150 604 C156 630 171 675 183 707 L183 707 Z " />
<glyph glyph-name="quotedblright" unicode="&#x201d;" horiz-adv-x="392" d="M332 698 L239 698 C240 664 243 603 242 602 C236 576 221 531 209 499 L266 498 C277 515 288 533 298 551 C309 571 320 592 329 612 L332 698 Z M191 697 L98 697 C99 663 102 602 102 601 C95 575 80 530 68 498 L125 498 C136 514 147 532 157 550 C169 570 179 591 188 611 L191 697 Z " />
<glyph glyph-name="quotedblbase" unicode="&#x201e;" horiz-adv-x="392" d="M332 84 L239 84 C240 50 243 -11 242 -12 C236 -38 221 -83 209 -116 L266 -116 C277 -99 288 -81 298 -63 C309 -43 320 -22 329 -2 L332 84 Z M191 83 L98 83 C99 49 102 -12 102 -13 C95 -39 80 -84 68 -116 L125 -117 C136 -100 147 -82 157 -64 C169 -44 179 -23 188 -3 L191 83 Z " />
<glyph glyph-name="dagger" unicode="&#x2020;" horiz-adv-x="514" d="M429 400 L429 468 L290 468 L290 748 L223 748 L223 468 L86 468 L86 400 L223 400 L223 -123 L290 -123 L290 400 L429 400 Z " />
<glyph glyph-name="daggerdbl" unicode="&#x2021;" horiz-adv-x="515" d="M430 400 L430 468 L291 468 L291 748 L224 748 L224 468 L87 468 L87 400 L224 400 L224 250 L86 250 L86 182 L224 182 L224 -123 L291 -123 L291 182 L429 182 L429 250 L291 250 L291 400 L430 400 Z " />
<glyph glyph-name="bullet" unicode="&#x2022;" horiz-adv-x="328" d="M264 354 C264 409 219 454 164 454 C109 454 64 409 64 354 C64 299 109 254 164 254 C219 254 264 299 264 354 L264 354 Z " />
<glyph glyph-name="ellipsis" unicode="&#x2026;" horiz-adv-x="627" d="M547 -1 L547 92 L454 92 L454 -1 L547 -1 Z M361 -1 L361 92 L268 92 L268 -1 L361 -1 Z M174 -1 L174 92 L80 92 L80 -1 L174 -1 Z " />
<glyph glyph-name="perthousand" unicode="&#x2030;" horiz-adv-x="978" d="M906 132 C906 237 870 279 789 279 C708 279 672 238 672 132 C672 27 708 -13 789 -13 C870 -13 906 27 906 132 L906 132 Z M633 132 C633 237 598 279 517 279 C435 279 400 238 400 132 C400 27 435 -13 517 -13 C598 -13 633 27 633 132 L633 132 Z M556 541 L501 541 L149 -51 L205 -51 L556 541 Z M306 352 C306 458 271 499 189 499 C108 499 72 458 72 353 C72 247 108 207 189 207 C271 207 306 247 306 352 L306 352 Z M859 132 C859 47 835 29 789 29 C743 29 719 48 719 132 C719 217 743 237 789 237 C835 237 859 217 859 132 L859 132 Z M587 132 C587 47 563 29 517 29 C471 29 446 48 446 132 C446 217 471 237 517 237 C563 237 587 217 587 132 L587 132 Z M259 352 C259 268 236 249 189 249 C143 249 119 268 119 353 C119 437 143 457 189 457 C236 457 259 437 259 352 L259 352 Z " />
<glyph glyph-name="guilsinglleft" unicode="&#x2039;" horiz-adv-x="330" d="M280 417 L193 417 L37 229 L37 221 L186 41 L272 41 L117 226 L280 417 Z " />
<glyph glyph-name="guilsinglright" unicode="&#x203a;" horiz-adv-x="330" d="M293 221 L293 229 L137 417 L50 417 L213 226 L58 41 L145 41 L293 221 Z " />
<glyph glyph-name="fraction" unicode="&#x2044;" horiz-adv-x="640" d="M640 807 L566 807 L33 -123 L106 -123 L640 807 Z " />
<glyph glyph-name="trademark" unicode="&#x2122;" horiz-adv-x="567" d="M509 433 L509 688 L440 688 L388 505 L383 477 L381 477 L376 505 L324 688 L256 688 L256 433 L304 433 L301 619 L303 618 L313 572 L354 433 L409 433 L451 571 L461 619 L462 619 L460 433 L509 433 Z M226 646 L226 688 L48 688 L48 646 L113 646 L113 433 L161 434 L161 646 L226 646 Z " />
<glyph glyph-name="partialdiff" unicode="&#x2202;" horiz-adv-x="509" d="M454 321 C454 418 442 548 375 621 C323 676 254 686 178 686 C154 687 129 684 105 680 L109 608 C132 612 154 614 175 614 C236 614 286 606 316 576 C363 528 374 435 377 362 L375 362 C331 395 279 413 240 413 C129 413 50 356 50 201 C50 50 140 -8 251 -8 C307 -8 349 5 385 46 C431 97 454 210 454 321 L454 321 Z M377 290 C376 206 357 129 328 95 C310 75 285 62 250 62 C193 62 126 87 126 197 C126 309 183 340 240 340 C308 340 368 296 377 290 L377 290 Z " />
<glyph glyph-name="product" unicode="&#x220f;" horiz-adv-x="715" d="M669 211 L669 278 L162 278 L162 280 L209 315 L425 499 L325 499 L27 249 L27 241 L326 -9 L425 -9 L208 175 L162 209 L162 211 L669 211 Z " />
<glyph glyph-name="summation" unicode="&#x2211;" horiz-adv-x="640" d="M575 245 C575 385 461 499 320 499 C179 499 65 385 65 245 C65 104 179 -10 320 -10 C461 -10 575 104 575 245 L575 245 Z " />
<glyph glyph-name="minus" unicode="&#x2212;" horiz-adv-x="430" d="M375 231 L375 280 L54 280 L54 231 L375 231 Z " />
<glyph glyph-name="radical" unicode="&#x221a;" horiz-adv-x="661" d="M575 -1 L575 489 L86 489 L86 -1 L575 -1 Z M516 59 L145 59 L145 430 L516 430 L516 59 Z M467 148 L374 242 L467 336 L426 377 L333 283 L239 377 L198 336 L291 242 L198 148 L239 107 L333 201 L426 107 L467 148 Z " />
<glyph glyph-name="infinity" unicode="&#x221e;" horiz-adv-x="713" d="M659 252 C659 330 596 396 518 396 C445 396 398 345 356 290 C337 315 319 337 301 353 C273 378 239 396 196 396 C117 396 54 330 54 252 C54 174 118 111 196 111 C268 111 315 161 357 216 C399 161 445 111 518 111 C596 111 659 174 659 252 L659 252 Z M614 252 C614 199 571 156 518 156 C467 156 424 203 385 253 C423 305 462 351 518 351 C570 351 614 306 614 252 L614 252 Z M329 254 C290 202 251 156 196 156 C143 156 100 199 100 252 C100 306 143 351 196 351 C224 351 248 339 271 319 C292 301 310 278 329 254 L329 254 Z " />
<glyph glyph-name="integral" unicode="&#x222b;" horiz-adv-x="508" d="M440 606 L421 663 L278 608 L284 748 L225 748 L230 609 L230 608 L87 663 L68 606 L216 566 L217 564 L121 445 L170 410 L253 538 L255 538 L339 410 L387 445 L291 564 L292 567 L292 566 L440 606 Z M290 565 L254 540 L219 566 L231 607 L277 607 L290 565 Z " />
<glyph glyph-name="approxequal" unicode="&#x2248;" horiz-adv-x="566" d="M493 306 L489 356 C461 342 412 332 380 332 C311 332 256 354 186 354 C153 354 102 346 72 330 L77 279 C110 295 146 305 183 305 C247 305 294 284 358 284 C389 284 467 293 493 306 L493 306 Z M493 177 L489 227 C461 213 412 203 380 203 C311 203 256 225 186 225 C153 225 102 217 72 201 L77 150 C110 166 146 176 183 176 C247 176 294 155 358 155 C389 155 467 164 493 177 L493 177 Z " />
<glyph glyph-name="notequal" unicode="&#x2260;" horiz-adv-x="661" d="M575 -1 L575 489 L86 489 L86 -1 L575 -1 Z " />
<glyph glyph-name="lessequal" unicode="&#x2264;" horiz-adv-x="473" d="M435 475 L51 305 L51 236 L435 67 L435 121 L127 255 L90 272 L127 287 L435 422 L435 475 Z M435 0 L435 49 L50 49 L50 0 L435 0 Z " />
<glyph glyph-name="greaterequal" unicode="&#x2265;" horiz-adv-x="473" d="M422 236 L422 305 L37 475 L37 422 L346 287 L383 272 L346 255 L37 121 L37 67 L422 236 Z M422 0 L422 49 L37 49 L37 0 L422 0 Z " />
<glyph glyph-name="lozenge" unicode="&#x25ca;" horiz-adv-x="642" d="M577 243 L321 499 L65 243 L321 -13 L577 243 Z " />
<glyph glyph-name="fi" unicode="&#xfb01;" horiz-adv-x="550" d="M490 568 L490 662 L397 662 L397 568 L490 568 Z M482 0 L482 468 L406 468 L407 0 L482 0 Z M340 717 C303 727 286 731 233 731 C145 731 103 681 102 594 L102 468 L30 457 L30 398 L102 398 L102 0 L178 0 L178 398 L308 398 L308 468 L178 468 C178 520 177 580 177 580 C177 624 186 665 241 665 C288 665 303 660 336 649 L340 717 Z " />
<glyph glyph-name="fl" unicode="&#xfb02;" horiz-adv-x="547" d="M482 0 L482 720 L405 720 L406 0 L482 0 Z M340 717 C303 727 286 731 233 731 C145 731 103 681 102 594 L102 468 L30 457 L30 398 L102 398 L102 0 L178 0 L178 398 L308 398 L308 468 L178 468 C178 520 177 580 177 580 C177 624 186 665 241 665 C288 665 303 660 336 649 L340 717 Z " />
</font>
</svg>
