<svg xmlns="http://www.w3.org/2000/svg" viewBox="0 0 138.2 46.5"><defs><style>.a{isolation:isolate;}</style></defs><title>logo_1</title><g class="a"><path d="M2408.5,100.5a11.2,11.2,0,0,0,10.1,5.6c5.6,0,9.9-3.4,9.9-8.7,0-12.4-22.8-5.1-22.8-21.9,0-7.9,6.7-12.1,14.2-12.1,4.8,0,9.1,1.6,12.1,5.6l-3.6,2.6a9.9,9.9,0,0,0-8.6-4.4c-5.3,0-9.9,2.8-9.9,8.4,0,13.3,22.8,5.3,22.8,21.9,0,8-6.6,12.4-13.7,12.4s-10.9-1.9-14.4-6.7Z" transform="translate(-2404.5 -63.3)"/><path d="M2495.1,64.4h12.7c6.3,0,14.3,2.4,14.3,11.7s-6.4,11.6-13.3,11.6h-9.6v21h-4.1V64.4Zm4.1,19.5h9.4c4.7,0,9.4-2,9.4-7.8s-4.9-7.9-9.6-7.9h-9.1V83.9Z" transform="translate(-2404.5 -63.3)"/><rect x="134.1" y="1.1" width="4.1" height="44.25"/><polygon points="62.6 1.1 58.4 1.1 39.1 45.4 43.4 45.4 48.4 33.6 48.4 33.6 52.2 24.8 60.3 5.6 68.6 25.7 68.6 25.7 70.3 29.9 70.3 29.9 72.5 35.3 76.6 45.4 81.3 45.4 62.6 1.1"/></g></svg>